  0
SECTION
  2
HEADER
  9
$ACADVER
  1
AC1032
  9
$ACADMAINTVER
 90
       55
  9
$DWGCODEPAGE
  3
ISO8859-1
  9
$LASTSAVEDBY
  1
Matteo
  9
$REQUIREDVERSIONS
160
                 0
  9
$INSBASE
 10
0.0
 20
0.0
 30
0.0
  9
$EXTMIN
 10
1.000000000000000E+20
 20
1.000000000000000E+20
 30
1.000000000000000E+20
  9
$EXTMAX
 10
-1.000000000000000E+20
 20
-1.000000000000000E+20
 30
-1.000000000000000E+20
  9
$LIMMIN
 10
0.0
 20
0.0
  9
$LIMMAX
 10
420.0
 20
297.0
  9
$ORTHOMODE
 70
     0
  9
$REGENMODE
 70
     1
  9
$FILLMODE
 70
     1
  9
$QTEXTMODE
 70
     0
  9
$MIRRTEXT
 70
     1
  9
$LTSCALE
 40
1.0
  9
$ATTMODE
 70
     1
  9
$TEXTSIZE
 40
2.5
  9
$TRACEWID
 40
1.0
  9
$TEXTSTYLE
  7
Standard
  9
$CLAYER
  8
0
  9
$CELTYPE
  6
ByLayer
  9
$CECOLOR
 62
   256
  9
$CELTSCALE
 40
1.0
  9
$DISPSILH
 70
     0
  9
$DIMSCALE
 40
1.0
  9
$DIMASZ
 40
2.5
  9
$DIMEXO
 40
0.625
  9
$DIMDLI
 40
3.75
  9
$DIMRND
 40
0.0
  9
$DIMDLE
 40
0.0
  9
$DIMEXE
 40
1.25
  9
$DIMTP
 40
0.0
  9
$DIMTM
 40
0.0
  9
$DIMTXT
 40
2.5
  9
$DIMCEN
 40
2.5
  9
$DIMTSZ
 40
0.0
  9
$DIMTOL
 70
     0
  9
$DIMLIM
 70
     0
  9
$DIMTIH
 70
     0
  9
$DIMTOH
 70
     0
  9
$DIMSE1
 70
     0
  9
$DIMSE2
 70
     0
  9
$DIMTAD
 70
     1
  9
$DIMZIN
 70
     8
  9
$DIMBLK
  1

  9
$DIMASO
 70
     1
  9
$DIMSHO
 70
     1
  9
$DIMPOST
  1

  9
$DIMAPOST
  1

  9
$DIMALT
 70
     0
  9
$DIMALTD
 70
     3
  9
$DIMALTF
 40
0.03937007874016
  9
$DIMLFAC
 40
1.0
  9
$DIMTOFL
 70
     1
  9
$DIMTVP
 40
0.0
  9
$DIMTIX
 70
     0
  9
$DIMSOXD
 70
     0
  9
$DIMSAH
 70
     0
  9
$DIMBLK1
  1

  9
$DIMBLK2
  1

  9
$DIMSTYLE
  2
ISO-25
  9
$DIMCLRD
 70
     0
  9
$DIMCLRE
 70
     0
  9
$DIMCLRT
 70
     0
  9
$DIMTFAC
 40
1.0
  9
$DIMGAP
 40
0.625
  9
$DIMJUST
 70
     0
  9
$DIMSD1
 70
     0
  9
$DIMSD2
 70
     0
  9
$DIMTOLJ
 70
     0
  9
$DIMTZIN
 70
     8
  9
$DIMALTZ
 70
     0
  9
$DIMALTTZ
 70
     0
  9
$DIMUPT
 70
     0
  9
$DIMDEC
 70
     2
  9
$DIMTDEC
 70
     2
  9
$DIMALTU
 70
     2
  9
$DIMALTTD
 70
     3
  9
$DIMTXSTY
  7
Standard
  9
$DIMAUNIT
 70
     0
  9
$DIMADEC
 70
     0
  9
$DIMALTRND
 40
0.0
  9
$DIMAZIN
 70
     0
  9
$DIMDSEP
 70
    44
  9
$DIMATFIT
 70
     3
  9
$DIMFRAC
 70
     0
  9
$DIMLDRBLK
  1

  9
$DIMLUNIT
 70
     2
  9
$DIMLWD
 70
    -2
  9
$DIMLWE
 70
    -2
  9
$DIMTMOVE
 70
     0
  9
$DIMFXL
 40
1.0
  9
$DIMFXLON
 70
     0
  9
$DIMJOGANG
 40
0.7853981633974483
  9
$DIMTFILL
 70
     0
  9
$DIMTFILLCLR
 70
     0
  9
$DIMARCSYM
 70
     0
  9
$DIMLTYPE
  6

  9
$DIMLTEX1
  6

  9
$DIMLTEX2
  6

  9
$DIMTXTDIRECTION
 70
     0
  9
$LUNITS
 70
     2
  9
$LUPREC
 70
     4
  9
$SKETCHINC
 40
1.0
  9
$FILLETRAD
 40
0.0
  9
$AUNITS
 70
     0
  9
$AUPREC
 70
     0
  9
$MENU
  1
.
  9
$ELEVATION
 40
0.0
  9
$PELEVATION
 40
0.0
  9
$THICKNESS
 40
0.0
  9
$LIMCHECK
 70
     0
  9
$CHAMFERA
 40
0.0
  9
$CHAMFERB
 40
0.0
  9
$CHAMFERC
 40
0.0
  9
$CHAMFERD
 40
0.0
  9
$SKPOLY
 70
     0
  9
$TDCREATE
 40
2460775.921621678
  9
$TDUCREATE
 40
2460775.588288345
  9
$TDUPDATE
 40
2460775.921621701
  9
$TDUUPDATE
 40
2460775.588288368
  9
$TDINDWG
 40
0.0000000116
  9
$TDUSRTIMER
 40
0.0000000116
  9
$USRTIMER
 70
     1
  9
$ANGBASE
 50
0.0
  9
$ANGDIR
 70
     0
  9
$PDMODE
 70
     0
  9
$PDSIZE
 40
0.0
  9
$PLINEWID
 40
0.0
  9
$SPLFRAME
 70
     0
  9
$SPLINETYPE
 70
     6
  9
$SPLINESEGS
 70
     8
  9
$HANDSEED
  5
7D
  9
$SURFTAB1
 70
     6
  9
$SURFTAB2
 70
     6
  9
$SURFTYPE
 70
     6
  9
$SURFU
 70
     6
  9
$SURFV
 70
     6
  9
$UCSBASE
  2

  9
$UCSNAME
  2

  9
$UCSORG
 10
0.0
 20
0.0
 30
0.0
  9
$UCSXDIR
 10
1.0
 20
0.0
 30
0.0
  9
$UCSYDIR
 10
0.0
 20
1.0
 30
0.0
  9
$UCSORTHOREF
  2

  9
$UCSORTHOVIEW
 70
     0
  9
$UCSORGTOP
 10
0.0
 20
0.0
 30
0.0
  9
$UCSORGBOTTOM
 10
0.0
 20
0.0
 30
0.0
  9
$UCSORGLEFT
 10
0.0
 20
0.0
 30
0.0
  9
$UCSORGRIGHT
 10
0.0
 20
0.0
 30
0.0
  9
$UCSORGFRONT
 10
0.0
 20
0.0
 30
0.0
  9
$UCSORGBACK
 10
0.0
 20
0.0
 30
0.0
  9
$PUCSBASE
  2

  9
$PUCSNAME
  2

  9
$PUCSORG
 10
0.0
 20
0.0
 30
0.0
  9
$PUCSXDIR
 10
1.0
 20
0.0
 30
0.0
  9
$PUCSYDIR
 10
0.0
 20
1.0
 30
0.0
  9
$PUCSORTHOREF
  2

  9
$PUCSORTHOVIEW
 70
     0
  9
$PUCSORGTOP
 10
0.0
 20
0.0
 30
0.0
  9
$PUCSORGBOTTOM
 10
0.0
 20
0.0
 30
0.0
  9
$PUCSORGLEFT
 10
0.0
 20
0.0
 30
0.0
  9
$PUCSORGRIGHT
 10
0.0
 20
0.0
 30
0.0
  9
$PUCSORGFRONT
 10
0.0
 20
0.0
 30
0.0
  9
$PUCSORGBACK
 10
0.0
 20
0.0
 30
0.0
  9
$USERI1
 70
     0
  9
$USERI2
 70
     0
  9
$USERI3
 70
     0
  9
$USERI4
 70
     0
  9
$USERI5
 70
     0
  9
$USERR1
 40
0.0
  9
$USERR2
 40
0.0
  9
$USERR3
 40
0.0
  9
$USERR4
 40
0.0
  9
$USERR5
 40
0.0
  9
$WORLDVIEW
 70
     1
  9
$SHADEDGE
 70
     3
  9
$SHADEDIF
 70
    70
  9
$TILEMODE
 70
     1
  9
$MAXACTVP
 70
    64
  9
$PINSBASE
 10
0.0
 20
0.0
 30
0.0
  9
$PLIMCHECK
 70
     0
  9
$PEXTMIN
 10
300.0
 20
400.0
 30
0.0
  9
$PEXTMAX
 10
0.0
 20
0.0
 30
0.0
  9
$PLIMMIN
 10
-20.0
 20
-7.5
  9
$PLIMMAX
 10
277.0
 20
202.5
  9
$UNITMODE
 70
     0
  9
$VISRETAIN
 70
     1
  9
$PLINEGEN
 70
     0
  9
$PSLTSCALE
 70
     1
  9
$TREEDEPTH
 70
  3020
  9
$CMLSTYLE
  2
Standard
  9
$CMLJUST
 70
     0
  9
$CMLSCALE
 40
20.0
  9
$PROXYGRAPHICS
 70
     1
  9
$MEASUREMENT
 70
     1
  9
$CELWEIGHT
370
    -1
  9
$ENDCAPS
280
     0
  9
$JOINSTYLE
280
     0
  9
$LWDISPLAY
290
     0
  9
$INSUNITS
 70
     4
  9
$HYPERLINKBASE
  1

  9
$STYLESHEET
  1

  9
$XEDIT
290
     1
  9
$CEPSNTYPE
380
     0
  9
$PSTYLEMODE
290
     1
  9
$FINGERPRINTGUID
  2
{2109d4bb-892d-4d34-86ac-bfee239e9f0a}
  9
$VERSIONGUID
  2
{FAEB1C32-E019-11D5-929B-00C0DF256EC4}
  9
$EXTNAMES
290
     1
  9
$PSVPSCALE
 40
0.0
  9
$OLESTARTUP
290
     0
  9
$SORTENTS
280
   127
  9
$INDEXCTL
280
     0
  9
$HIDETEXT
280
     1
  9
$XCLIPFRAME
280
     2
  9
$HALOGAP
280
     0
  9
$OBSCOLOR
 70
   257
  9
$OBSLTYPE
280
     0
  9
$INTERSECTIONDISPLAY
280
     0
  9
$INTERSECTIONCOLOR
 70
   257
  9
$DIMASSOC
280
     2
  9
$PROJECTNAME
  1

  9
$CAMERADISPLAY
290
     0
  9
$LENSLENGTH
 40
50.0
  9
$CAMERAHEIGHT
 40
0.0
  9
$STEPSPERSEC
 40
2.0
  9
$STEPSIZE
 40
6.0
  9
$3DDWFPREC
 40
2.0
  9
$PSOLWIDTH
 40
5.0
  9
$PSOLHEIGHT
 40
80.0
  9
$LOFTANG1
 40
1.570796326794897
  9
$LOFTANG2
 40
1.570796326794897
  9
$LOFTMAG1
 40
0.0
  9
$LOFTMAG2
 40
0.0
  9
$LOFTPARAM
 70
     7
  9
$LOFTNORMALS
280
     1
  9
$LATITUDE
 40
37.795
  9
$LONGITUDE
 40
-122.394
  9
$NORTHDIRECTION
 40
0.0
  9
$TIMEZONE
 70
 -8000
  9
$LIGHTGLYPHDISPLAY
280
     1
  9
$TILEMODELIGHTSYNCH
280
     1
  9
$CMATERIAL
347
44
  9
$SOLIDHIST
280
     0
  9
$SHOWHIST
280
     1
  9
$DWFFRAME
280
     2
  9
$DGNFRAME
280
     2
  9
$REALWORLDSCALE
290
     1
  9
$INTERFERECOLOR
 62
   256
  9
$CSHADOW
280
     0
  9
$SHADOWPLANELOCATION
 40
0.0
  0
ENDSEC
  0
SECTION
  2
CLASSES
  0
CLASS
  1
ACDBDICTIONARYWDFLT
  2
AcDbDictionaryWithDefault
  3
ObjectDBX Classes
 90
        0
 91
        3
280
     0
281
     0
  0
CLASS
  1
VISUALSTYLE
  2
AcDbVisualStyle
  3
ObjectDBX Classes
 90
     4095
 91
        3
280
     0
281
     0
  0
CLASS
  1
MATERIAL
  2
AcDbMaterial
  3
ObjectDBX Classes
 90
     1153
 91
        3
280
     0
281
     0
  0
CLASS
  1
SCALE
  2
AcDbScale
  3
ObjectDBX Classes
 90
     1153
 91
        3
280
     0
281
     0
  0
CLASS
  1
TABLESTYLE
  2
AcDbTableStyle
  3
ObjectDBX Classes
 90
     4095
 91
        3
280
     0
281
     0
  0
CLASS
  1
MLEADERSTYLE
  2
AcDbMLeaderStyle
  3
ACDB_MLEADERSTYLE_CLASS
 90
     4095
 91
        3
280
     0
281
     0
  0
CLASS
  1
SUN
  2
AcDbSun
  3
SCENEOE
 90
     1153
 91
        3
280
     0
281
     0
  0
CLASS
  1
DICTIONARYVAR
  2
AcDbDictionaryVar
  3
ObjectDBX Classes
 90
        0
 91
        3
280
     0
281
     0
  0
CLASS
  1
CELLSTYLEMAP
  2
AcDbCellStyleMap
  3
ObjectDBX Classes
 90
     1152
 91
        3
280
     0
281
     0
  0
ENDSEC
  0
SECTION
  2
TABLES
  0
TABLE
  2
VPORT
  5
8
330
0
100
AcDbSymbolTable
 70
     1
  0
VPORT
  5
29
330
8
100
AcDbSymbolTableRecord
100
AcDbViewportTableRecord
  2
*Active
 70
     0
 10
0.0
 20
0.0
 11
1.0
 21
1.0
 12
200.0
 22
150.0
 13
0.0
 23
0.0
 14
10.0
 24
10.0
 15
10.0
 25
10.0
 16
0.0
 26
0.0
 36
1.0
 17
0.0
 27
0.0
 37
0.0
 40
300.0
 41
1.972972972850329
 42
50.0
 43
0.0
 44
0.0
 50
0.0
 51
0.0
 71
     0
 72
   100
 73
     1
 74
     3
 75
     0
 76
     0
 77
     0
 78
     0
281
     0
 65
     1
110
0.0
120
0.0
130
0.0
111
1.0
121
0.0
131
0.0
112
0.0
122
1.0
132
0.0
 79
     0
146
0.0
348
2F
 60
     3
 61
     5
292
     1
282
     1
141
0.0
142
0.0
 63
   250
361
5D
  0
ENDTAB
  0
TABLE
  2
LTYPE
  5
5
330
0
100
AcDbSymbolTable
 70
     1
  0
LTYPE
  5
14
330
5
100
AcDbSymbolTableRecord
100
AcDbLinetypeTableRecord
  2
ByBlock
 70
     0
  3

 72
    65
 73
     0
 40
0.0
  0
LTYPE
  5
15
330
5
100
AcDbSymbolTableRecord
100
AcDbLinetypeTableRecord
  2
ByLayer
 70
     0
  3

 72
    65
 73
     0
 40
0.0
  0
LTYPE
  5
16
330
5
100
AcDbSymbolTableRecord
100
AcDbLinetypeTableRecord
  2
Continuous
 70
     0
  3
Solid line
 72
    65
 73
     0
 40
0.0
  0
ENDTAB
  0
TABLE
  2
LAYER
  5
2
330
0
100
AcDbSymbolTable
 70
     1
  0
LAYER
  5
10
330
2
100
AcDbSymbolTableRecord
100
AcDbLayerTableRecord
  2
0
 70
     0
 62
     7
  6
Continuous
370
    -3
390
F
347
46
348
0
  0
ENDTAB
  0
TABLE
  2
STYLE
  5
3
330
0
100
AcDbSymbolTable
 70
     1
  0
STYLE
  5
11
330
3
100
AcDbSymbolTableRecord
100
AcDbTextStyleTableRecord
  2
Standard
 70
     0
 40
0.0
 41
1.0
 50
0.0
 71
     0
 42
2.5
  3
txt
  4

  0
ENDTAB
  0
TABLE
  2
VIEW
  5
6
330
0
100
AcDbSymbolTable
 70
     0
  0
ENDTAB
  0
TABLE
  2
UCS
  5
7
330
0
100
AcDbSymbolTable
 70
     0
  0
ENDTAB
  0
TABLE
  2
APPID
  5
9
330
0
100
AcDbSymbolTable
 70
     1
  0
APPID
  5
12
330
9
100
AcDbSymbolTableRecord
100
AcDbRegAppTableRecord
  2
ACAD
 70
     0
  0
ENDTAB
  0
TABLE
  2
DIMSTYLE
  5
A
330
0
100
AcDbSymbolTable
 70
     1
100
AcDbDimStyleTable
  0
DIMSTYLE
105
27
330
A
100
AcDbSymbolTableRecord
100
AcDbDimStyleTableRecord
  2
ISO-25
 70
     0
 41
2.5
 42
0.625
 43
3.75
 44
1.25
 73
     0
 74
     0
 77
     1
 78
     8
140
2.5
141
2.5
143
0.03937007874016
147
0.625
171
     3
172
     1
178
     0
271
     2
272
     2
274
     3
278
    44
283
     0
284
     8
340
11
  0
ENDTAB
  0
TABLE
  2
BLOCK_RECORD
  5
1
330
0
100
AcDbSymbolTable
 70
     0
  0
BLOCK_RECORD
  5
1F
330
1
100
AcDbSymbolTableRecord
100
AcDbBlockTableRecord
  2
*Model_Space
340
22
 70
     0
280
     1
281
     0
  0
BLOCK_RECORD
  5
6A
330
1
100
AcDbSymbolTableRecord
100
AcDbBlockTableRecord
  2
*Paper_Space
340
6B
 70
     0
280
     1
281
     0
  0
ENDTAB
  0
ENDSEC
  0
SECTION
  2
BLOCKS
  0
BLOCK
  5
20
330
1F
100
AcDbEntity
  8
0
100
AcDbBlockBegin
  2
*Model_Space
 70
     0
 10
0.0
 20
0.0
 30
0.0
  3
*Model_Space
  1

  0
ENDBLK
  5
21
330
1F
100
AcDbEntity
  8
0
100
AcDbBlockEnd
  0
BLOCK
  5
6C
330
6A
100
AcDbEntity
 67
     1
  8
0
100
AcDbBlockBegin
  2
*Paper_Space
 70
     0
 10
0.0
 20
0.0
 30
0.0
  3
*Paper_Space
  1

  0
ENDBLK
  5
6D
330
6A
100
AcDbEntity
 67
     1
  8
0
100
AcDbBlockEnd
  0
ENDSEC
  0
SECTION
  2
ENTITIES
  0
SPLINE
  5
5E
330
1F
100
AcDbEntity
  8
0
  6
Continuous
 62
    18
420
        0
370
    35
100
AcDbSpline
210
0.0
220
0.0
230
1.0
 70
    11
 71
     3
 72
   185
 73
   181
 74
     0
 42
0.000000001
 43
0.0
 40
0.0
 40
0.0
 40
0.0
 40
0.0
 40
1.0
 40
1.0
 40
1.0
 40
2.0
 40
2.0
 40
2.0
 40
3.0
 40
3.0
 40
3.0
 40
4.0
 40
4.0
 40
4.0
 40
5.0
 40
5.0
 40
5.0
 40
6.0
 40
6.0
 40
6.0
 40
7.0
 40
7.0
 40
7.0
 40
8.0
 40
8.0
 40
8.0
 40
9.0
 40
9.0
 40
9.0
 40
10.0
 40
10.0
 40
10.0
 40
11.0
 40
11.0
 40
11.0
 40
12.0
 40
12.0
 40
12.0
 40
13.0
 40
13.0
 40
13.0
 40
14.0
 40
14.0
 40
14.0
 40
15.0
 40
15.0
 40
15.0
 40
16.0
 40
16.0
 40
16.0
 40
17.0
 40
17.0
 40
17.0
 40
18.0
 40
18.0
 40
18.0
 40
19.0
 40
19.0
 40
19.0
 40
20.0
 40
20.0
 40
20.0
 40
21.0
 40
21.0
 40
21.0
 40
22.0
 40
22.0
 40
22.0
 40
23.0
 40
23.0
 40
23.0
 40
24.0
 40
24.0
 40
24.0
 40
25.0
 40
25.0
 40
25.0
 40
26.0
 40
26.0
 40
26.0
 40
27.0
 40
27.0
 40
27.0
 40
28.0
 40
28.0
 40
28.0
 40
29.0
 40
29.0
 40
29.0
 40
30.0
 40
30.0
 40
30.0
 40
31.0
 40
31.0
 40
31.0
 40
32.0
 40
32.0
 40
32.0
 40
33.0
 40
33.0
 40
33.0
 40
34.0
 40
34.0
 40
34.0
 40
35.0
 40
35.0
 40
35.0
 40
36.0
 40
36.0
 40
36.0
 40
37.0
 40
37.0
 40
37.0
 40
38.0
 40
38.0
 40
38.0
 40
39.0
 40
39.0
 40
39.0
 40
40.0
 40
40.0
 40
40.0
 40
41.0
 40
41.0
 40
41.0
 40
42.0
 40
42.0
 40
42.0
 40
43.0
 40
43.0
 40
43.0
 40
44.0
 40
44.0
 40
44.0
 40
45.0
 40
45.0
 40
45.0
 40
46.0
 40
46.0
 40
46.0
 40
47.0
 40
47.0
 40
47.0
 40
48.0
 40
48.0
 40
48.0
 40
49.0
 40
49.0
 40
49.0
 40
50.0
 40
50.0
 40
50.0
 40
51.0
 40
51.0
 40
51.0
 40
52.0
 40
52.0
 40
52.0
 40
53.0
 40
53.0
 40
53.0
 40
54.0
 40
54.0
 40
54.0
 40
55.0
 40
55.0
 40
55.0
 40
56.0
 40
56.0
 40
56.0
 40
57.0
 40
57.0
 40
57.0
 40
58.0
 40
58.0
 40
58.0
 40
59.0
 40
59.0
 40
59.0
 40
60.0
 40
60.0
 40
60.0
 40
60.0
 10
177.6934840107911
 20
65.19393067705178
 30
0.0
 10
175.6377268041928
 20
65.1939301903341
 30
0.0
 10
173.8406045962448
 20
67.08844038260207
 30
0.0
 10
173.3189954559458
 20
69.07692261718148
 30
0.0
 10
173.3189954559458
 20
69.07692261718148
 30
0.0
 10
168.9084560062979
 20
85.89080921001445
 30
0.0
 10
168.9084560062979
 20
85.89080921001445
 30
0.0
 10
168.8641616546629
 20
86.05966809817394
 30
0.0
 10
168.79794983607
 20
86.22200096153529
 30
0.0
 10
168.7115086223867
 20
86.3736691199409
 30
0.0
 10
168.7115086223867
 20
86.3736691199409
 30
0.0
 10
159.6034703190974
 20
102.354475233966
 30
0.0
 10
159.6034703190974
 20
102.354475233966
 30
0.0
 10
159.4298319354882
 20
102.6591382941818
 30
0.0
 10
159.1791413936422
 20
102.9127922037251
 30
0.0
 10
158.8765397863208
 20
103.0899986815099
 30
0.0
 10
158.8765397863208
 20
103.0899986815099
 30
0.0
 10
146.0796232150178
 20
110.5840088057784
 30
0.0
 10
146.0796232150178
 20
110.5840088057784
 30
0.0
 10
145.9270627640736
 20
110.67334990922
 30
0.0
 10
145.7634009103039
 20
110.742210582134
 30
0.0
 10
145.5928589013804
 20
110.7888147359054
 30
0.0
 10
145.5928589013804
 20
110.7888147359054
 30
0.0
 10
81.67444015202048
 20
128.2558845130273
 30
0.0
 10
81.67444015202048
 20
128.2558845130273
 30
0.0
 10
79.28546378074049
 20
128.9087233171398
 30
0.0
 10
77.87301616516957
 20
131.3692242016602
 30
0.0
 10
78.51400066314663
 20
133.7614084504257
 30
0.0
 10
78.51400066314663
 20
133.7614084504257
 30
0.0
 10
80.52050523374858
 20
141.249785453532
 30
0.0
 10
80.52050523374858
 20
141.249785453532
 30
0.0
 10
81.16170785044866
 20
143.642788461788
 30
0.0
 10
79.74807684306127
 20
146.1039722861927
 30
0.0
 10
77.35796790038422
 20
146.75587982206
 30
0.0
 10
77.35796790038422
 20
146.75587982206
 30
0.0
 10
49.28142259242192
 20
154.4138179669474
 30
0.0
 10
49.28142259242192
 20
154.4138179669474
 30
0.0
 10
48.12976466016972
 20
154.7279351499475
 30
0.0
 10
47.15010518288718
 20
155.4867722094914
 30
0.0
 10
46.55804287574099
 20
156.523327959093
 30
0.0
 10
45.96598056859477
 20
157.5598837086946
 30
0.0
 10
45.81003530768469
 20
158.7892117568439
 30
0.0
 10
46.12452677109086
 20
159.9407675379591
 30
0.0
 10
46.12452677109086
 20
159.9407675379591
 30
0.0
 10
64.601118231599
 20
227.626366719464
 30
0.0
 10
64.601118231599
 20
227.626366719464
 30
0.0
 10
64.601118231599
 20
227.626366719464
 30
0.0
 10
65.5585335208672
 20
231.1994892229562
 30
0.0
 10
65.5585335208672
 20
231.1994892229562
 30
0.0
 10
65.86608171509587
 20
232.3472742577432
 30
0.0
 10
66.61835112963503
 20
233.3251797960462
 30
0.0
 10
67.64887274717795
 20
233.9168060071212
 30
0.0
 10
68.67939436472084
 20
234.5084322181962
 30
0.0
 10
69.90319819679776
 20
234.6649975224259
 30
0.0
 10
71.04946980198027
 20
234.3518557254609
 30
0.0
 10
71.04946980198027
 20
234.3518557254609
 30
0.0
 10
100.5636342962104
 20
226.2890911600188
 30
0.0
 10
100.5636342962104
 20
226.2890911600188
 30
0.0
 10
101.3413642193297
 20
226.0766288520541
 30
0.0
 10
102.1716986357163
 20
226.1828564729172
 30
0.0
 10
102.8708936325169
 20
226.5842670134737
 30
0.0
 10
103.5700886293175
 20
226.9856775540302
 30
0.0
 10
104.0804932304234
 20
227.6491733668581
 30
0.0
 10
104.2891604873587
 20
228.4279300949215
 30
0.0
 10
104.2891604873587
 20
228.4279300949215
 30
0.0
 10
104.5610982389345
 20
229.4428156002986
 30
0.0
 10
104.5610982389345
 20
229.4428156002986
 30
0.0
 10
104.7690957385522
 20
230.219072874699
 30
0.0
 10
105.2779573431359
 20
230.8803904645596
 30
0.0
 10
105.9750090498356
 20
231.2803370036043
 30
0.0
 10
106.6720607565353
 20
231.6802835426489
 30
0.0
 10
107.4997894227292
 20
231.7858597825864
 30
0.0
 10
108.2749163312699
 20
231.5736886451455
 30
0.0
 10
108.2749163312699
 20
231.5736886451455
 30
0.0
 10
166.5368335621861
 20
215.659858556353
 30
0.0
 10
166.5368335621861
 20
215.659858556353
 30
0.0
 10
167.584140122525
 20
215.3738070405021
 30
0.0
 10
168.2034060280637
 20
214.2952023004763
 30
0.0
 10
167.9224143855274
 20
213.2465268512193
 30
0.0
 10
167.9224143855274
 20
213.2465268512193
 30
0.0
 10
167.6972408153258
 20
212.4061676467049
 30
0.0
 10
167.6972408153258
 20
212.4061676467049
 30
0.0
 10
167.4195865143974
 20
211.3699494771713
 30
0.0
 10
168.0312400294858
 20
210.3040992664254
 30
0.0
 10
169.0659902600081
 20
210.0210233647138
 30
0.0
 10
169.0659902600081
 20
210.0210233647138
 30
0.0
 10
193.0
 20
203.4205791015301
 30
0.0
 10
193.0
 20
203.4205791015301
 30
0.0
 10
193.0
 20
203.4205791015301
 30
0.0
 10
207.0
 20
203.4205791015301
 30
0.0
 10
207.0
 20
203.4205791015301
 30
0.0
 10
207.0
 20
203.4205791015301
 30
0.0
 10
230.9340097399919
 20
210.0210233647139
 30
0.0
 10
230.9340097399919
 20
210.0210233647139
 30
0.0
 10
231.9687599705142
 20
210.3040992664254
 30
0.0
 10
232.5804134856027
 20
211.3699494771713
 30
0.0
 10
232.3027591846743
 20
212.406167646705
 30
0.0
 10
232.3027591846743
 20
212.406167646705
 30
0.0
 10
232.0775856144726
 20
213.2465268512193
 30
0.0
 10
232.0775856144726
 20
213.2465268512193
 30
0.0
 10
231.7965939719364
 20
214.2952023004763
 30
0.0
 10
232.4158598774751
 20
215.3738070405021
 30
0.0
 10
233.463166437814
 20
215.659858556353
 30
0.0
 10
241.7595868567485
 20
217.9258653779191
 30
0.0
 10
286.5531795499786
 20
230.158009859944
 30
0.0
 10
291.7250836687302
 20
231.5736886451455
 30
0.0
 10
292.5002105772708
 20
231.7858597825865
 30
0.0
 10
293.3279392434647
 20
231.680283542649
 30
0.0
 10
294.0249909501645
 20
231.2803370036043
 30
0.0
 10
294.7220426568641
 20
230.8803904645596
 30
0.0
 10
295.2309042614479
 20
230.2190728746991
 30
0.0
 10
295.4389017610656
 20
229.4428156002986
 30
0.0
 10
295.4389017610656
 20
229.4428156002986
 30
0.0
 10
295.7108395126414
 20
228.4279300949215
 30
0.0
 10
295.7108395126414
 20
228.4279300949215
 30
0.0
 10
295.9195067695766
 20
227.6491733668582
 30
0.0
 10
296.4299113706826
 20
226.9856775540302
 30
0.0
 10
297.1291063674832
 20
226.5842670134737
 30
0.0
 10
297.8283013642838
 20
226.1828564729172
 30
0.0
 10
298.6586357806704
 20
226.0766288520542
 30
0.0
 10
299.4363657037897
 20
226.2890911600188
 30
0.0
 10
299.4363657037897
 20
226.2890911600188
 30
0.0
 10
328.9505301980197
 20
234.3518557254609
 30
0.0
 10
328.9505301980197
 20
234.3518557254609
 30
0.0
 10
330.0968018032023
 20
234.664997522426
 30
0.0
 10
331.3206056352793
 20
234.5084322181962
 30
0.0
 10
332.3511272528221
 20
233.9168060071212
 30
0.0
 10
333.381648870365
 20
233.3251797960462
 30
0.0
 10
334.1339182849042
 20
232.3472742577432
 30
0.0
 10
334.4414664791329
 20
231.1994892229563
 30
0.0
 10
334.4414664791329
 20
231.1994892229563
 30
0.0
 10
335.3988817684011
 20
227.626366719464
 30
0.0
 10
335.3988817684011
 20
227.626366719464
 30
0.0
 10
335.3988817684011
 20
227.626366719464
 30
0.0
 10
353.8754732289091
 20
159.9407675379591
 30
0.0
 10
353.8754732289091
 20
159.9407675379591
 30
0.0
 10
354.1899646923154
 20
158.7892117568439
 30
0.0
 10
354.0340194314052
 20
157.5598837086946
 30
0.0
 10
353.441957124259
 20
156.523327959093
 30
0.0
 10
352.8498948171129
 20
155.4867722094914
 30
0.0
 10
351.8702353398303
 20
154.7279351499475
 30
0.0
 10
350.7185774075781
 20
154.4138179669474
 30
0.0
 10
350.7185774075781
 20
154.4138179669474
 30
0.0
 10
322.6420320996158
 20
146.7558798220601
 30
0.0
 10
322.6420320996158
 20
146.7558798220601
 30
0.0
 10
320.2519231569387
 20
146.1039722861928
 30
0.0
 10
318.8382921495514
 20
143.6427884617881
 30
0.0
 10
319.4794947662514
 20
141.249785453532
 30
0.0
 10
319.4794947662514
 20
141.249785453532
 30
0.0
 10
321.4859993368535
 20
133.7614084504258
 30
0.0
 10
321.4859993368535
 20
133.7614084504258
 30
0.0
 10
322.1269838348305
 20
131.3692242016601
 30
0.0
 10
320.7145362192596
 20
128.9087233171398
 30
0.0
 10
318.3255598479795
 20
128.2558845130273
 30
0.0
 10
318.3255598479795
 20
128.2558845130273
 30
0.0
 10
254.4071410986197
 20
110.7888147359054
 30
0.0
 10
254.4071410986197
 20
110.7888147359054
 30
0.0
 10
254.2365990896961
 20
110.742210582134
 30
0.0
 10
254.0729372359264
 20
110.67334990922
 30
0.0
 10
253.9203767849823
 20
110.5840088057784
 30
0.0
 10
253.9203767849823
 20
110.5840088057784
 30
0.0
 10
241.1234602136794
 20
103.0899986815099
 30
0.0
 10
241.1234602136794
 20
103.0899986815099
 30
0.0
 10
240.8208586063579
 20
102.9127922037252
 30
0.0
 10
240.5701680645118
 20
102.6591382941818
 30
0.0
 10
240.3965296809027
 20
102.354475233966
 30
0.0
 10
240.3965296809027
 20
102.354475233966
 30
0.0
 10
231.2884913776133
 20
86.37366911994096
 30
0.0
 10
231.2884913776133
 20
86.37366911994096
 30
0.0
 10
231.20205016393
 20
86.22200096153534
 30
0.0
 10
231.1358383453371
 20
86.059668098174
 30
0.0
 10
231.0915439937021
 20
85.89080921001451
 30
0.0
 10
231.0915439937021
 20
85.89080921001451
 30
0.0
 10
226.6810045440543
 20
69.07692261718151
 30
0.0
 10
226.6810045440543
 20
69.07692261718151
 30
0.0
 10
226.1593954037553
 20
67.08844038260219
 30
0.0
 10
224.3622731958073
 20
65.19393019033413
 30
0.0
 10
222.306515989209
 20
65.19393067705181
 30
0.0
 10
222.306515989209
 20
65.19393067705181
 30
0.0
 10
177.6934840107911
 20
65.19393067705178
 30
0.0
 10
177.6934840107911
 20
65.19393067705178
 30
0.0
  0
SPLINE
  5
5F
330
1F
100
AcDbEntity
  8
0
  6
Continuous
 62
    18
420
        0
370
    35
100
AcDbSpline
210
0.0
220
0.0
230
1.0
 70
    11
 71
     3
 72
   365
 73
   361
 74
     0
 42
0.000000001
 43
0.0
 40
0.0
 40
0.0
 40
0.0
 40
0.0
 40
1.0
 40
1.0
 40
1.0
 40
2.0
 40
2.0
 40
2.0
 40
3.0
 40
3.0
 40
3.0
 40
4.0
 40
4.0
 40
4.0
 40
5.0
 40
5.0
 40
5.0
 40
6.0
 40
6.0
 40
6.0
 40
7.0
 40
7.0
 40
7.0
 40
8.0
 40
8.0
 40
8.0
 40
9.0
 40
9.0
 40
9.0
 40
10.0
 40
10.0
 40
10.0
 40
11.0
 40
11.0
 40
11.0
 40
12.0
 40
12.0
 40
12.0
 40
13.0
 40
13.0
 40
13.0
 40
14.0
 40
14.0
 40
14.0
 40
15.0
 40
15.0
 40
15.0
 40
16.0
 40
16.0
 40
16.0
 40
17.0
 40
17.0
 40
17.0
 40
18.0
 40
18.0
 40
18.0
 40
19.0
 40
19.0
 40
19.0
 40
20.0
 40
20.0
 40
20.0
 40
21.0
 40
21.0
 40
21.0
 40
22.0
 40
22.0
 40
22.0
 40
23.0
 40
23.0
 40
23.0
 40
24.0
 40
24.0
 40
24.0
 40
25.0
 40
25.0
 40
25.0
 40
26.0
 40
26.0
 40
26.0
 40
27.0
 40
27.0
 40
27.0
 40
28.0
 40
28.0
 40
28.0
 40
29.0
 40
29.0
 40
29.0
 40
30.0
 40
30.0
 40
30.0
 40
31.0
 40
31.0
 40
31.0
 40
32.0
 40
32.0
 40
32.0
 40
33.0
 40
33.0
 40
33.0
 40
34.0
 40
34.0
 40
34.0
 40
35.0
 40
35.0
 40
35.0
 40
36.0
 40
36.0
 40
36.0
 40
37.0
 40
37.0
 40
37.0
 40
38.0
 40
38.0
 40
38.0
 40
39.0
 40
39.0
 40
39.0
 40
40.0
 40
40.0
 40
40.0
 40
41.0
 40
41.0
 40
41.0
 40
42.0
 40
42.0
 40
42.0
 40
43.0
 40
43.0
 40
43.0
 40
44.0
 40
44.0
 40
44.0
 40
45.0
 40
45.0
 40
45.0
 40
46.0
 40
46.0
 40
46.0
 40
47.0
 40
47.0
 40
47.0
 40
48.0
 40
48.0
 40
48.0
 40
49.0
 40
49.0
 40
49.0
 40
50.0
 40
50.0
 40
50.0
 40
51.0
 40
51.0
 40
51.0
 40
52.0
 40
52.0
 40
52.0
 40
53.0
 40
53.0
 40
53.0
 40
54.0
 40
54.0
 40
54.0
 40
55.0
 40
55.0
 40
55.0
 40
56.0
 40
56.0
 40
56.0
 40
57.0
 40
57.0
 40
57.0
 40
58.0
 40
58.0
 40
58.0
 40
59.0
 40
59.0
 40
59.0
 40
60.0
 40
60.0
 40
60.0
 40
61.0
 40
61.0
 40
61.0
 40
62.0
 40
62.0
 40
62.0
 40
63.0
 40
63.0
 40
63.0
 40
64.0
 40
64.0
 40
64.0
 40
65.0
 40
65.0
 40
65.0
 40
66.0
 40
66.0
 40
66.0
 40
67.0
 40
67.0
 40
67.0
 40
68.0
 40
68.0
 40
68.0
 40
69.0
 40
69.0
 40
69.0
 40
70.0
 40
70.0
 40
70.0
 40
71.0
 40
71.0
 40
71.0
 40
72.0
 40
72.0
 40
72.0
 40
73.0
 40
73.0
 40
73.0
 40
74.0
 40
74.0
 40
74.0
 40
75.0
 40
75.0
 40
75.0
 40
76.0
 40
76.0
 40
76.0
 40
77.0
 40
77.0
 40
77.0
 40
78.0
 40
78.0
 40
78.0
 40
79.0
 40
79.0
 40
79.0
 40
80.0
 40
80.0
 40
80.0
 40
81.0
 40
81.0
 40
81.0
 40
82.0
 40
82.0
 40
82.0
 40
83.0
 40
83.0
 40
83.0
 40
84.0
 40
84.0
 40
84.0
 40
85.0
 40
85.0
 40
85.0
 40
86.0
 40
86.0
 40
86.0
 40
87.0
 40
87.0
 40
87.0
 40
88.0
 40
88.0
 40
88.0
 40
89.0
 40
89.0
 40
89.0
 40
90.0
 40
90.0
 40
90.0
 40
91.0
 40
91.0
 40
91.0
 40
92.0
 40
92.0
 40
92.0
 40
93.0
 40
93.0
 40
93.0
 40
94.0
 40
94.0
 40
94.0
 40
95.0
 40
95.0
 40
95.0
 40
96.0
 40
96.0
 40
96.0
 40
97.0
 40
97.0
 40
97.0
 40
98.0
 40
98.0
 40
98.0
 40
99.0
 40
99.0
 40
99.0
 40
100.0
 40
100.0
 40
100.0
 40
101.0
 40
101.0
 40
101.0
 40
102.0
 40
102.0
 40
102.0
 40
103.0
 40
103.0
 40
103.0
 40
104.0
 40
104.0
 40
104.0
 40
105.0
 40
105.0
 40
105.0
 40
106.0
 40
106.0
 40
106.0
 40
107.0
 40
107.0
 40
107.0
 40
108.0
 40
108.0
 40
108.0
 40
109.0
 40
109.0
 40
109.0
 40
110.0
 40
110.0
 40
110.0
 40
111.0
 40
111.0
 40
111.0
 40
112.0
 40
112.0
 40
112.0
 40
113.0
 40
113.0
 40
113.0
 40
114.0
 40
114.0
 40
114.0
 40
115.0
 40
115.0
 40
115.0
 40
116.0
 40
116.0
 40
116.0
 40
117.0
 40
117.0
 40
117.0
 40
118.0
 40
118.0
 40
118.0
 40
119.0
 40
119.0
 40
119.0
 40
120.0
 40
120.0
 40
120.0
 40
120.0
 10
207.0
 20
203.4205791015301
 30
0.0
 10
207.0
 20
203.4205791015301
 30
0.0
 10
230.9340097399919
 20
210.0210233647139
 30
0.0
 10
230.9340097399919
 20
210.0210233647139
 30
0.0
 10
231.9687599705142
 20
210.3040992664254
 30
0.0
 10
232.5804134856027
 20
211.3699494771713
 30
0.0
 10
232.3027591846743
 20
212.406167646705
 30
0.0
 10
232.3027591846743
 20
212.406167646705
 30
0.0
 10
232.0775856144726
 20
213.2465268512193
 30
0.0
 10
232.0775856144726
 20
213.2465268512193
 30
0.0
 10
231.7965939719364
 20
214.2952023004763
 30
0.0
 10
232.4158598774751
 20
215.3738070405021
 30
0.0
 10
233.463166437814
 20
215.659858556353
 30
0.0
 10
241.7595868567485
 20
217.9258653779191
 30
0.0
 10
286.5531795499786
 20
230.158009859944
 30
0.0
 10
291.7250836687302
 20
231.5736886451455
 30
0.0
 10
292.5002105772708
 20
231.7858597825865
 30
0.0
 10
293.3279392434647
 20
231.680283542649
 30
0.0
 10
294.0249909501645
 20
231.2803370036043
 30
0.0
 10
294.7220426568641
 20
230.8803904645596
 30
0.0
 10
295.2309042614479
 20
230.2190728746991
 30
0.0
 10
295.4389017610656
 20
229.4428156002986
 30
0.0
 10
295.4389017610656
 20
229.4428156002986
 30
0.0
 10
295.7108395126414
 20
228.4279300949215
 30
0.0
 10
295.7108395126414
 20
228.4279300949215
 30
0.0
 10
295.9195067695766
 20
227.6491733668582
 30
0.0
 10
296.4299113706826
 20
226.9856775540302
 30
0.0
 10
297.1291063674832
 20
226.5842670134737
 30
0.0
 10
297.8283013642838
 20
226.1828564729172
 30
0.0
 10
298.6586357806704
 20
226.0766288520542
 30
0.0
 10
299.4363657037897
 20
226.2890911600188
 30
0.0
 10
299.4363657037897
 20
226.2890911600188
 30
0.0
 10
328.9505301980197
 20
234.3518557254609
 30
0.0
 10
328.9505301980197
 20
234.3518557254609
 30
0.0
 10
330.0968018032023
 20
234.664997522426
 30
0.0
 10
331.3206056352793
 20
234.5084322181962
 30
0.0
 10
332.3511272528221
 20
233.9168060071212
 30
0.0
 10
333.381648870365
 20
233.3251797960462
 30
0.0
 10
334.1339182849042
 20
232.3472742577432
 30
0.0
 10
334.4414664791329
 20
231.1994892229563
 30
0.0
 10
334.4414664791329
 20
231.1994892229563
 30
0.0
 10
335.3988817684011
 20
227.626366719464
 30
0.0
 10
335.3988817684011
 20
227.626366719464
 30
0.0
 10
335.3988817684011
 20
227.626366719464
 30
0.0
 10
353.8754732289091
 20
159.9407675379591
 30
0.0
 10
353.8754732289091
 20
159.9407675379591
 30
0.0
 10
354.1899646923154
 20
158.7892117568439
 30
0.0
 10
354.0340194314052
 20
157.5598837086946
 30
0.0
 10
353.441957124259
 20
156.523327959093
 30
0.0
 10
352.8498948171129
 20
155.4867722094914
 30
0.0
 10
351.8702353398303
 20
154.7279351499475
 30
0.0
 10
350.7185774075781
 20
154.4138179669474
 30
0.0
 10
350.7185774075781
 20
154.4138179669474
 30
0.0
 10
322.6420320996158
 20
146.7558798220601
 30
0.0
 10
322.6420320996158
 20
146.7558798220601
 30
0.0
 10
320.2519231569387
 20
146.1039722861928
 30
0.0
 10
318.8382921495514
 20
143.6427884617881
 30
0.0
 10
319.4794947662514
 20
141.249785453532
 30
0.0
 10
319.4794947662514
 20
141.249785453532
 30
0.0
 10
321.4859993368535
 20
133.7614084504258
 30
0.0
 10
321.4859993368535
 20
133.7614084504258
 30
0.0
 10
322.1269838348305
 20
131.3692242016601
 30
0.0
 10
320.7145362192596
 20
128.9087233171398
 30
0.0
 10
318.3255598479795
 20
128.2558845130273
 30
0.0
 10
318.3255598479795
 20
128.2558845130273
 30
0.0
 10
254.4071410986197
 20
110.7888147359054
 30
0.0
 10
254.4071410986197
 20
110.7888147359054
 30
0.0
 10
254.2365990896961
 20
110.742210582134
 30
0.0
 10
254.0729372359264
 20
110.67334990922
 30
0.0
 10
253.9203767849823
 20
110.5840088057784
 30
0.0
 10
253.9203767849823
 20
110.5840088057784
 30
0.0
 10
241.1234602136794
 20
103.0899986815099
 30
0.0
 10
241.1234602136794
 20
103.0899986815099
 30
0.0
 10
240.8208586063579
 20
102.9127922037252
 30
0.0
 10
240.5701680645118
 20
102.6591382941818
 30
0.0
 10
240.3965296809027
 20
102.354475233966
 30
0.0
 10
240.3965296809027
 20
102.354475233966
 30
0.0
 10
231.2884913776133
 20
86.37366911994096
 30
0.0
 10
231.2884913776133
 20
86.37366911994096
 30
0.0
 10
231.20205016393
 20
86.22200096153534
 30
0.0
 10
231.1358383453371
 20
86.059668098174
 30
0.0
 10
231.0915439937021
 20
85.89080921001451
 30
0.0
 10
231.0915439937021
 20
85.89080921001451
 30
0.0
 10
226.6810045440543
 20
69.07692261718151
 30
0.0
 10
226.6810045440543
 20
69.07692261718151
 30
0.0
 10
226.1593954037553
 20
67.08844038260219
 30
0.0
 10
224.3622731958073
 20
65.19393019033413
 30
0.0
 10
222.306515989209
 20
65.19393067705181
 30
0.0
 10
222.306515989209
 20
65.19393067705181
 30
0.0
 10
177.6934840107911
 20
65.19393067705178
 30
0.0
 10
177.6934840107911
 20
65.19393067705178
 30
0.0
 10
175.6377268041928
 20
65.1939301903341
 30
0.0
 10
173.8406045962448
 20
67.08844038260207
 30
0.0
 10
173.3189954559458
 20
69.07692261718148
 30
0.0
 10
173.3189954559458
 20
69.07692261718148
 30
0.0
 10
168.9084560062979
 20
85.89080921001445
 30
0.0
 10
168.9084560062979
 20
85.89080921001445
 30
0.0
 10
168.8641616546629
 20
86.05966809817394
 30
0.0
 10
168.79794983607
 20
86.22200096153529
 30
0.0
 10
168.7115086223867
 20
86.3736691199409
 30
0.0
 10
168.7115086223867
 20
86.3736691199409
 30
0.0
 10
159.6034703190974
 20
102.354475233966
 30
0.0
 10
159.6034703190974
 20
102.354475233966
 30
0.0
 10
159.4298319354882
 20
102.6591382941818
 30
0.0
 10
159.1791413936422
 20
102.9127922037251
 30
0.0
 10
158.8765397863208
 20
103.0899986815099
 30
0.0
 10
158.8765397863208
 20
103.0899986815099
 30
0.0
 10
146.0796232150178
 20
110.5840088057784
 30
0.0
 10
146.0796232150178
 20
110.5840088057784
 30
0.0
 10
145.9270627640736
 20
110.67334990922
 30
0.0
 10
145.7634009103039
 20
110.742210582134
 30
0.0
 10
145.5928589013804
 20
110.7888147359054
 30
0.0
 10
145.5928589013804
 20
110.7888147359054
 30
0.0
 10
81.67444015202048
 20
128.2558845130273
 30
0.0
 10
81.67444015202048
 20
128.2558845130273
 30
0.0
 10
79.28546378074049
 20
128.9087233171398
 30
0.0
 10
77.87301616516957
 20
131.3692242016602
 30
0.0
 10
78.51400066314663
 20
133.7614084504257
 30
0.0
 10
78.51400066314663
 20
133.7614084504257
 30
0.0
 10
80.52050523374858
 20
141.249785453532
 30
0.0
 10
80.52050523374858
 20
141.249785453532
 30
0.0
 10
81.16170785044866
 20
143.642788461788
 30
0.0
 10
79.74807684306127
 20
146.1039722861927
 30
0.0
 10
77.35796790038422
 20
146.75587982206
 30
0.0
 10
77.35796790038422
 20
146.75587982206
 30
0.0
 10
49.28142259242192
 20
154.4138179669474
 30
0.0
 10
49.28142259242192
 20
154.4138179669474
 30
0.0
 10
48.12976466016972
 20
154.7279351499475
 30
0.0
 10
47.15010518288718
 20
155.4867722094914
 30
0.0
 10
46.55804287574099
 20
156.523327959093
 30
0.0
 10
45.96598056859477
 20
157.5598837086946
 30
0.0
 10
45.81003530768469
 20
158.7892117568439
 30
0.0
 10
46.12452677109086
 20
159.9407675379591
 30
0.0
 10
46.12452677109086
 20
159.9407675379591
 30
0.0
 10
64.601118231599
 20
227.626366719464
 30
0.0
 10
64.601118231599
 20
227.626366719464
 30
0.0
 10
64.601118231599
 20
227.626366719464
 30
0.0
 10
65.5585335208672
 20
231.1994892229562
 30
0.0
 10
65.5585335208672
 20
231.1994892229562
 30
0.0
 10
65.86608171509587
 20
232.3472742577432
 30
0.0
 10
66.61835112963503
 20
233.3251797960462
 30
0.0
 10
67.64887274717795
 20
233.9168060071212
 30
0.0
 10
68.67939436472084
 20
234.5084322181962
 30
0.0
 10
69.90319819679776
 20
234.6649975224259
 30
0.0
 10
71.04946980198027
 20
234.3518557254609
 30
0.0
 10
71.04946980198027
 20
234.3518557254609
 30
0.0
 10
100.5636342962104
 20
226.2890911600188
 30
0.0
 10
100.5636342962104
 20
226.2890911600188
 30
0.0
 10
101.3413642193297
 20
226.0766288520541
 30
0.0
 10
102.1716986357163
 20
226.1828564729172
 30
0.0
 10
102.8708936325169
 20
226.5842670134737
 30
0.0
 10
103.5700886293175
 20
226.9856775540302
 30
0.0
 10
104.0804932304234
 20
227.6491733668581
 30
0.0
 10
104.2891604873587
 20
228.4279300949215
 30
0.0
 10
104.2891604873587
 20
228.4279300949215
 30
0.0
 10
104.5610982389345
 20
229.4428156002986
 30
0.0
 10
104.5610982389345
 20
229.4428156002986
 30
0.0
 10
104.7690957385522
 20
230.219072874699
 30
0.0
 10
105.2779573431359
 20
230.8803904645596
 30
0.0
 10
105.9750090498356
 20
231.2803370036043
 30
0.0
 10
106.6720607565353
 20
231.6802835426489
 30
0.0
 10
107.4997894227292
 20
231.7858597825864
 30
0.0
 10
108.2749163312699
 20
231.5736886451455
 30
0.0
 10
108.2749163312699
 20
231.5736886451455
 30
0.0
 10
166.5368335621861
 20
215.659858556353
 30
0.0
 10
166.5368335621861
 20
215.659858556353
 30
0.0
 10
167.584140122525
 20
215.3738070405021
 30
0.0
 10
168.2034060280637
 20
214.2952023004763
 30
0.0
 10
167.9224143855274
 20
213.2465268512193
 30
0.0
 10
167.9224143855274
 20
213.2465268512193
 30
0.0
 10
167.6972408153258
 20
212.4061676467049
 30
0.0
 10
167.6972408153258
 20
212.4061676467049
 30
0.0
 10
167.4195865143974
 20
211.3699494771713
 30
0.0
 10
168.0312400294858
 20
210.3040992664254
 30
0.0
 10
169.0659902600081
 20
210.0210233647138
 30
0.0
 10
169.0659902600081
 20
210.0210233647138
 30
0.0
 10
193.0
 20
203.4205791015301
 30
0.0
 10
193.0
 20
203.4205791015301
 30
0.0
 10
193.0
 20
203.4205791015301
 30
0.0
 10
193.0044181434529
 20
206.0408966178502
 30
0.0
 10
193.0044181434529
 20
206.0408966178502
 30
0.0
 10
193.0044181434529
 20
206.0408966178502
 30
0.0
 10
172.006694496149
 20
211.7946742143673
 30
0.0
 10
172.006694496149
 20
211.7946742143673
 30
0.0
 10
170.9719442656267
 20
212.0777501160788
 30
0.0
 10
170.3602907505382
 20
213.1436003268247
 30
0.0
 10
170.6379450514666
 20
214.1798184963584
 30
0.0
 10
170.6379450514666
 20
214.1798184963584
 30
0.0
 10
170.8631186216683
 20
215.0201777008727
 30
0.0
 10
170.8631186216683
 20
215.0201777008727
 30
0.0
 10
171.1441102642045
 20
216.0688531501297
 30
0.0
 10
170.5248443586658
 20
217.1474578901555
 30
0.0
 10
169.4775377983269
 20
217.4335094060064
 30
0.0
 10
169.4775377983269
 20
217.4335094060064
 30
0.0
 10
106.3087173698623
 20
234.6621402439198
 30
0.0
 10
106.3087173698623
 20
234.6621402439198
 30
0.0
 10
105.5335904613216
 20
234.8743113813607
 30
0.0
 10
104.7058617951277
 20
234.7687351414232
 30
0.0
 10
104.008810088428
 20
234.3687886023785
 30
0.0
 10
103.3117583817283
 20
233.9688420633339
 30
0.0
 10
102.8028967771446
 20
233.3075244734733
 30
0.0
 10
102.5948992775269
 20
232.5312671990729
 30
0.0
 10
102.5948992775269
 20
232.5312671990729
 30
0.0
 10
102.322961525951
 20
231.5163816936957
 30
0.0
 10
102.322961525951
 20
231.5163816936957
 30
0.0
 10
102.1142942690158
 20
230.7376249656323
 30
0.0
 10
101.6038896679099
 20
230.0741291528044
 30
0.0
 10
100.9046946711093
 20
229.6727186122479
 30
0.0
 10
100.2054996743087
 20
229.2713080716914
 30
0.0
 10
99.3751652579221
 20
229.1650804508284
 30
0.0
 10
98.59743533480281
 20
229.377542758793
 30
0.0
 10
98.59743533480281
 20
229.377542758793
 30
0.0
 10
69.08327084057267
 20
237.4403073242351
 30
0.0
 10
69.08327084057267
 20
237.4403073242351
 30
0.0
 10
67.93699923539016
 20
237.7534491212002
 30
0.0
 10
66.71319540331324
 20
237.5968838169704
 30
0.0
 10
65.68267378577033
 20
237.0052576058954
 30
0.0
 10
64.65215216822742
 20
236.4136313948204
 30
0.0
 10
63.89988275368827
 20
235.4357258565174
 30
0.0
 10
63.59233455945959
 20
234.2879408217305
 30
0.0
 10
63.59233455945959
 20
234.2879408217305
 30
0.0
 10
62.6349192701914
 20
230.7148183182383
 30
0.0
 10
62.6349192701914
 20
230.7148183182383
 30
0.0
 10
62.6349192701914
 20
230.7148183182383
 30
0.0
 10
42.84352706056247
 20
158.1223159391849
 30
0.0
 10
42.84352706056247
 20
158.1223159391849
 30
0.0
 10
42.52903559715629
 20
156.9707601580696
 30
0.0
 10
42.68498085806637
 20
155.7414321099203
 30
0.0
 10
43.27704316521259
 20
154.7048763603188
 30
0.0
 10
43.86910547235879
 20
153.6683206107172
 30
0.0
 10
44.84876494964132
 20
152.9094835511733
 30
0.0
 10
46.00042288189352
 20
152.5953663681731
 30
0.0
 10
46.00042288189352
 20
152.5953663681731
 30
0.0
 10
74.07696818985583
 20
144.9374282232858
 30
0.0
 10
74.07696818985583
 20
144.9374282232858
 30
0.0
 10
76.46707713253288
 20
144.2855206874185
 30
0.0
 10
77.88070813992027
 20
141.8243368630137
 30
0.0
 10
77.23950552322019
 20
139.4313338547578
 30
0.0
 10
77.23950552322019
 20
139.4313338547578
 30
0.0
 10
75.23300095261824
 20
131.9429568516515
 30
0.0
 10
75.23300095261824
 20
131.9429568516515
 30
0.0
 10
74.59201645464118
 20
129.5507726028859
 30
0.0
 10
76.00446407021208
 20
127.0902717183656
 30
0.0
 10
78.39344044149209
 20
126.4374329142531
 30
0.0
 10
78.39344044149209
 20
126.4374329142531
 30
0.0
 10
142.311859190852
 20
108.9703631371312
 30
0.0
 10
142.311859190852
 20
108.9703631371312
 30
0.0
 10
142.4824011997756
 20
108.9237589833598
 30
0.0
 10
142.6460630535452
 20
108.8548983104458
 30
0.0
 10
142.7986235044894
 20
108.7655572070043
 30
0.0
 10
142.7986235044894
 20
108.7655572070043
 30
0.0
 10
155.5955400757924
 20
101.2715470827357
 30
0.0
 10
155.5955400757924
 20
101.2715470827357
 30
0.0
 10
155.8981416831138
 20
101.0943406049509
 30
0.0
 10
156.1488322249598
 20
100.8406866954076
 30
0.0
 10
156.322470608569
 20
100.5360236351918
 30
0.0
 10
156.322470608569
 20
100.5360236351918
 30
0.0
 10
165.4305089118583
 20
84.55521752116672
 30
0.0
 10
165.4305089118583
 20
84.55521752116672
 30
0.0
 10
165.5169501255416
 20
84.40354936276111
 30
0.0
 10
165.5831619441346
 20
84.24121649939977
 30
0.0
 10
165.6274562957695
 20
84.07235761124028
 30
0.0
 10
165.6274562957695
 20
84.07235761124028
 30
0.0
 10
170.0379957454174
 20
67.2584710184073
 30
0.0
 10
170.0379957454174
 20
67.2584710184073
 30
0.0
 10
170.5596048857164
 20
65.2699887838279
 30
0.0
 10
172.3567270936644
 20
61.68214525822657
 30
0.0
 10
174.4124843002627
 20
61.68214574494425
 30
0.0
 10
174.4124843002627
 20
61.68214574494425
 30
0.0
 10
225.5875156997375
 20
61.68214574494419
 30
0.0
 10
225.5875156997375
 20
61.68214574494419
 30
0.0
 10
227.6432729063357
 20
61.68214525822648
 30
0.0
 10
229.4403951142837
 20
65.2699887838279
 30
0.0
 10
229.9620042545828
 20
67.25847101840722
 30
0.0
 10
229.9620042545828
 20
67.25847101840722
 30
0.0
 10
234.3725437042306
 20
84.0723576112402
 30
0.0
 10
234.3725437042306
 20
84.0723576112402
 30
0.0
 10
234.4168380558656
 20
84.24121649939968
 30
0.0
 10
234.4830498744585
 20
84.40354936276103
 30
0.0
 10
234.5694910881418
 20
84.55521752116664
 30
0.0
 10
234.5694910881418
 20
84.55521752116664
 30
0.0
 10
243.6775293914312
 20
100.5360236351918
 30
0.0
 10
243.6775293914312
 20
100.5360236351918
 30
0.0
 10
243.8511677750403
 20
100.8406866954075
 30
0.0
 10
244.1018583168863
 20
101.0943406049508
 30
0.0
 10
244.4044599242078
 20
101.2715470827356
 30
0.0
 10
244.4044599242078
 20
101.2715470827356
 30
0.0
 10
257.2013764955107
 20
108.7655572070041
 30
0.0
 10
257.2013764955107
 20
108.7655572070041
 30
0.0
 10
257.3539369464549
 20
108.8548983104457
 30
0.0
 10
257.5175988002245
 20
108.9237589833597
 30
0.0
 10
257.6881408091481
 20
108.9703631371311
 30
0.0
 10
257.6881408091481
 20
108.9703631371311
 30
0.0
 10
321.606559558508
 20
126.4374329142531
 30
0.0
 10
321.606559558508
 20
126.4374329142531
 30
0.0
 10
323.995535929788
 20
127.0902717183656
 30
0.0
 10
325.4079835453589
 20
129.5507726028859
 30
0.0
 10
324.7669990473819
 20
131.9429568516515
 30
0.0
 10
324.7669990473819
 20
131.9429568516515
 30
0.0
 10
322.7604944767799
 20
139.4313338547578
 30
0.0
 10
322.7604944767799
 20
139.4313338547578
 30
0.0
 10
322.1192918600798
 20
141.8243368630138
 30
0.0
 10
323.5329228674672
 20
144.2855206874186
 30
0.0
 10
325.9230318101443
 20
144.9374282232858
 30
0.0
 10
325.9230318101443
 20
144.9374282232858
 30
0.0
 10
353.9995771181065
 20
152.5953663681732
 30
0.0
 10
353.9995771181065
 20
152.5953663681732
 30
0.0
 10
355.1512350503588
 20
152.9094835511733
 30
0.0
 10
356.1308945276413
 20
153.6683206107172
 30
0.0
 10
356.7229568347875
 20
154.7048763603188
 30
0.0
 10
357.3150191419337
 20
155.7414321099204
 30
0.0
 10
357.4709644028438
 20
156.9707601580696
 30
0.0
 10
357.1564729394375
 20
158.1223159391849
 30
0.0
 10
357.1564729394375
 20
158.1223159391849
 30
0.0
 10
337.3650807298088
 20
230.7148183182383
 30
0.0
 10
337.3650807298088
 20
230.7148183182383
 30
0.0
 10
337.3650807298088
 20
230.7148183182383
 30
0.0
 10
336.4076654405405
 20
234.2879408217305
 30
0.0
 10
336.4076654405405
 20
234.2879408217305
 30
0.0
 10
336.1001172463119
 20
235.4357258565175
 30
0.0
 10
335.3478478317727
 20
236.4136313948205
 30
0.0
 10
334.3173262142298
 20
237.0052576058955
 30
0.0
 10
333.286804596687
 20
237.5968838169705
 30
0.0
 10
332.06300076461
 20
237.7534491212003
 30
0.0
 10
330.9167291594274
 20
237.4403073242352
 30
0.0
 10
330.9167291594274
 20
237.4403073242352
 30
0.0
 10
301.4025646651974
 20
229.3775427587931
 30
0.0
 10
301.4025646651974
 20
229.3775427587931
 30
0.0
 10
300.624834742078
 20
229.1650804508284
 30
0.0
 10
299.7945003256914
 20
229.2713080716915
 30
0.0
 10
299.0953053288908
 20
229.6727186122479
 30
0.0
 10
298.3961103320902
 20
230.0741291528045
 30
0.0
 10
297.8857057309843
 20
230.7376249656324
 30
0.0
 10
297.6770384740491
 20
231.5163816936957
 30
0.0
 10
297.6770384740491
 20
231.5163816936957
 30
0.0
 10
297.4051007224733
 20
232.5312671990729
 30
0.0
 10
297.4051007224733
 20
232.5312671990729
 30
0.0
 10
297.1971032228556
 20
233.3075244734733
 30
0.0
 10
296.6882416182718
 20
233.9688420633339
 30
0.0
 10
295.9911899115722
 20
234.3687886023786
 30
0.0
 10
295.2941382048724
 20
234.7687351414232
 30
0.0
 10
294.4664095386785
 20
234.8743113813607
 30
0.0
 10
293.6912826301378
 20
234.6621402439198
 30
0.0
 10
288.5193785113863
 20
233.2464614587182
 30
0.0
 10
238.8188826206076
 20
219.6995162275725
 30
0.0
 10
230.5224622016731
 20
217.4335094060064
 30
0.0
 10
229.4751556413342
 20
217.1474578901555
 30
0.0
 10
228.8558897357955
 20
216.0688531501297
 30
0.0
 10
229.1368813783317
 20
215.0201777008728
 30
0.0
 10
229.1368813783317
 20
215.0201777008728
 30
0.0
 10
229.3620549485334
 20
214.1798184963584
 30
0.0
 10
229.3620549485334
 20
214.1798184963584
 30
0.0
 10
229.6397092494618
 20
213.1436003268247
 30
0.0
 10
229.0280557343733
 20
212.0777501160788
 30
0.0
 10
227.993305503851
 20
211.7946742143673
 30
0.0
 10
227.993305503851
 20
211.7946742143673
 30
0.0
 10
207.0000000000001
 20
206.0408966178502
 30
0.0
 10
207.0000000000001
 20
206.0408966178502
 30
0.0
 10
207.0000000000001
 20
206.0408966178502
 30
0.0
 10
207.0
 20
203.4205791015301
 30
0.0
 10
207.0
 20
203.4205791015301
 30
0.0
  0
SPLINE
  5
60
330
1F
100
AcDbEntity
  8
0
  6
Continuous
 62
    18
420
        0
370
    35
100
AcDbSpline
210
0.0
220
0.0
230
1.0
 70
    11
 71
     3
 72
    17
 73
    13
 74
     0
 42
0.000000001
 43
0.0
 40
0.0
 40
0.0
 40
0.0
 40
0.0
 40
1.0
 40
1.0
 40
1.0
 40
2.0
 40
2.0
 40
2.0
 40
3.0
 40
3.0
 40
3.0
 40
4.0
 40
4.0
 40
4.0
 40
4.0
 10
73.91579101376767
 20
228.2683029614152
 30
0.0
 10
76.67536613623767
 20
228.2683029614152
 30
0.0
 10
78.91579101376767
 20
226.0278780838852
 30
0.0
 10
78.91579101376767
 20
223.2683029614152
 30
0.0
 10
78.91579101376767
 20
220.5087278389452
 30
0.0
 10
76.67536613623767
 20
218.2683029614152
 30
0.0
 10
73.91579101376767
 20
218.2683029614152
 30
0.0
 10
71.15621589129768
 20
218.2683029614152
 30
0.0
 10
68.91579101376767
 20
220.5087278389452
 30
0.0
 10
68.91579101376767
 20
223.2683029614152
 30
0.0
 10
68.91579101376767
 20
226.0278780838852
 30
0.0
 10
71.15621589129768
 20
228.2683029614152
 30
0.0
 10
73.91579101376767
 20
228.2683029614152
 30
0.0
  0
SPLINE
  5
61
330
1F
100
AcDbEntity
  8
0
  6
Continuous
 62
    18
420
        0
370
    35
100
AcDbSpline
210
0.0
220
0.0
230
1.0
 70
    11
 71
     3
 72
    17
 73
    13
 74
     0
 42
0.000000001
 43
0.0
 40
0.0
 40
0.0
 40
0.0
 40
0.0
 40
1.0
 40
1.0
 40
1.0
 40
2.0
 40
2.0
 40
2.0
 40
3.0
 40
3.0
 40
3.0
 40
4.0
 40
4.0
 40
4.0
 40
4.0
 10
134.8888834293058
 20
218.2683029614152
 30
0.0
 10
137.6484585517758
 20
218.2683029614152
 30
0.0
 10
139.8888834293058
 20
216.0278780838852
 30
0.0
 10
139.8888834293058
 20
213.2683029614152
 30
0.0
 10
139.8888834293058
 20
210.5087278389452
 30
0.0
 10
137.6484585517758
 20
208.2683029614152
 30
0.0
 10
134.8888834293058
 20
208.2683029614152
 30
0.0
 10
132.1293083068358
 20
208.2683029614152
 30
0.0
 10
129.8888834293058
 20
210.5087278389452
 30
0.0
 10
129.8888834293058
 20
213.2683029614152
 30
0.0
 10
129.8888834293058
 20
216.0278780838852
 30
0.0
 10
132.1293083068358
 20
218.2683029614152
 30
0.0
 10
134.8888834293058
 20
218.2683029614152
 30
0.0
  0
SPLINE
  5
62
330
1F
100
AcDbEntity
  8
0
  6
Continuous
 62
    18
420
        0
370
    35
100
AcDbSpline
210
0.0
220
0.0
230
1.0
 70
    11
 71
     3
 72
    17
 73
    13
 74
     0
 42
0.000000001
 43
0.0
 40
0.0
 40
0.0
 40
0.0
 40
0.0
 40
1.0
 40
1.0
 40
1.0
 40
2.0
 40
2.0
 40
2.0
 40
3.0
 40
3.0
 40
3.0
 40
4.0
 40
4.0
 40
4.0
 40
4.0
 10
263.677287258723
 20
218.2683029614152
 30
0.0
 10
266.436862381193
 20
218.2683029614152
 30
0.0
 10
268.677287258723
 20
216.0278780838852
 30
0.0
 10
268.677287258723
 20
213.2683029614152
 30
0.0
 10
268.677287258723
 20
210.5087278389452
 30
0.0
 10
266.436862381193
 20
208.2683029614152
 30
0.0
 10
263.677287258723
 20
208.2683029614152
 30
0.0
 10
260.917712136253
 20
208.2683029614152
 30
0.0
 10
258.677287258723
 20
210.5087278389452
 30
0.0
 10
258.677287258723
 20
213.2683029614152
 30
0.0
 10
258.677287258723
 20
216.0278780838852
 30
0.0
 10
260.917712136253
 20
218.2683029614152
 30
0.0
 10
263.677287258723
 20
218.2683029614152
 30
0.0
  0
SPLINE
  5
63
330
1F
100
AcDbEntity
  8
0
  6
Continuous
 62
    18
420
        0
370
    35
100
AcDbSpline
210
0.0
220
0.0
230
1.0
 70
    11
 71
     3
 72
    17
 73
    13
 74
     0
 42
0.000000001
 43
0.0
 40
0.0
 40
0.0
 40
0.0
 40
0.0
 40
1.0
 40
1.0
 40
1.0
 40
2.0
 40
2.0
 40
2.0
 40
3.0
 40
3.0
 40
3.0
 40
4.0
 40
4.0
 40
4.0
 40
4.0
 10
325.9495794291286
 20
228.2683029614152
 30
0.0
 10
328.7091545515986
 20
228.2683029614152
 30
0.0
 10
330.9495794291286
 20
226.0278780838852
 30
0.0
 10
330.9495794291286
 20
223.2683029614152
 30
0.0
 10
330.9495794291286
 20
220.5087278389452
 30
0.0
 10
328.7091545515986
 20
218.2683029614152
 30
0.0
 10
325.9495794291286
 20
218.2683029614152
 30
0.0
 10
323.1900043066586
 20
218.2683029614152
 30
0.0
 10
320.9495794291286
 20
220.5087278389452
 30
0.0
 10
320.9495794291286
 20
223.2683029614152
 30
0.0
 10
320.9495794291286
 20
226.0278780838852
 30
0.0
 10
323.1900043066586
 20
228.2683029614152
 30
0.0
 10
325.9495794291286
 20
228.2683029614152
 30
0.0
  0
SPLINE
  5
64
330
1F
100
AcDbEntity
  8
0
  6
Continuous
 62
    18
420
        0
370
    35
100
AcDbSpline
210
0.0
220
0.0
230
1.0
 70
    11
 71
     3
 72
    17
 73
    13
 74
     0
 42
0.000000001
 43
0.0
 40
0.0
 40
0.0
 40
0.0
 40
0.0
 40
1.0
 40
1.0
 40
1.0
 40
2.0
 40
2.0
 40
2.0
 40
3.0
 40
3.0
 40
3.0
 40
4.0
 40
4.0
 40
4.0
 40
4.0
 10
57.03782231588777
 20
167.8081822149001
 30
0.0
 10
59.79739743835776
 20
167.8081822149001
 30
0.0
 10
62.03782231588777
 20
165.5677573373702
 30
0.0
 10
62.03782231588777
 20
162.8081822149002
 30
0.0
 10
62.03782231588777
 20
160.0486070924302
 30
0.0
 10
59.79739743835776
 20
157.8081822149001
 30
0.0
 10
57.03782231588777
 20
157.8081822149001
 30
0.0
 10
54.27824719341778
 20
157.8081822149001
 30
0.0
 10
52.03782231588776
 20
160.0486070924302
 30
0.0
 10
52.03782231588776
 20
162.8081822149002
 30
0.0
 10
52.03782231588776
 20
165.5677573373702
 30
0.0
 10
54.27824719341778
 20
167.8081822149001
 30
0.0
 10
57.03782231588777
 20
167.8081822149001
 30
0.0
  0
SPLINE
  5
65
330
1F
100
AcDbEntity
  8
0
  6
Continuous
 62
    18
420
        0
370
    35
100
AcDbSpline
210
0.0
220
0.0
230
1.0
 70
    11
 71
     3
 72
    17
 73
    13
 74
     0
 42
0.000000001
 43
0.0
 40
0.0
 40
0.0
 40
0.0
 40
0.0
 40
1.0
 40
1.0
 40
1.0
 40
2.0
 40
2.0
 40
2.0
 40
3.0
 40
3.0
 40
3.0
 40
4.0
 40
4.0
 40
4.0
 40
4.0
 10
343.0030581514807
 20
167.8081822149001
 30
0.0
 10
345.7626332739507
 20
167.8081822149001
 30
0.0
 10
348.0030581514807
 20
165.5677573373702
 30
0.0
 10
348.0030581514807
 20
162.8081822149002
 30
0.0
 10
348.0030581514807
 20
160.0486070924302
 30
0.0
 10
345.7626332739507
 20
157.8081822149001
 30
0.0
 10
343.0030581514807
 20
157.8081822149001
 30
0.0
 10
340.2434830290107
 20
157.8081822149001
 30
0.0
 10
338.0030581514807
 20
160.0486070924302
 30
0.0
 10
338.0030581514807
 20
162.8081822149002
 30
0.0
 10
338.0030581514807
 20
165.5677573373702
 30
0.0
 10
340.2434830290107
 20
167.8081822149001
 30
0.0
 10
343.0030581514807
 20
167.8081822149001
 30
0.0
  0
SPLINE
  5
66
330
1F
100
AcDbEntity
  8
0
  6
Continuous
 62
    18
420
        0
370
    35
100
AcDbSpline
210
0.0
220
0.0
230
1.0
 70
    11
 71
     3
 72
    17
 73
    13
 74
     0
 42
0.000000001
 43
0.0
 40
0.0
 40
0.0
 40
0.0
 40
0.0
 40
1.0
 40
1.0
 40
1.0
 40
2.0
 40
2.0
 40
2.0
 40
3.0
 40
3.0
 40
3.0
 40
4.0
 40
4.0
 40
4.0
 40
4.0
 10
119.354806768292
 20
133.8499414118509
 30
0.0
 10
122.114381890762
 20
133.8499414118509
 30
0.0
 10
124.354806768292
 20
131.6095165343209
 30
0.0
 10
124.354806768292
 20
128.8499414118509
 30
0.0
 10
124.354806768292
 20
126.0903662893809
 30
0.0
 10
122.114381890762
 20
123.8499414118509
 30
0.0
 10
119.354806768292
 20
123.8499414118509
 30
0.0
 10
116.595231645822
 20
123.8499414118509
 30
0.0
 10
114.354806768292
 20
126.0903662893809
 30
0.0
 10
114.354806768292
 20
128.8499414118509
 30
0.0
 10
114.354806768292
 20
131.6095165343209
 30
0.0
 10
116.595231645822
 20
133.8499414118509
 30
0.0
 10
119.354806768292
 20
133.8499414118509
 30
0.0
  0
SPLINE
  5
67
330
1F
100
AcDbEntity
  8
0
  6
Continuous
 62
    18
420
        0
370
    35
100
AcDbSpline
210
0.0
220
0.0
230
1.0
 70
    11
 71
     3
 72
    17
 73
    13
 74
     0
 42
0.000000001
 43
0.0
 40
0.0
 40
0.0
 40
0.0
 40
0.0
 40
1.0
 40
1.0
 40
1.0
 40
2.0
 40
2.0
 40
2.0
 40
3.0
 40
3.0
 40
3.0
 40
4.0
 40
4.0
 40
4.0
 40
4.0
 10
280.2951927018925
 20
133.8499414118509
 30
0.0
 10
283.0547678243626
 20
133.8499414118509
 30
0.0
 10
285.2951927018926
 20
131.6095165343209
 30
0.0
 10
285.2951927018926
 20
128.8499414118509
 30
0.0
 10
285.2951927018926
 20
126.0903662893809
 30
0.0
 10
283.0547678243626
 20
123.8499414118509
 30
0.0
 10
280.2951927018925
 20
123.8499414118509
 30
0.0
 10
277.5356175794225
 20
123.8499414118509
 30
0.0
 10
275.2951927018926
 20
126.0903662893809
 30
0.0
 10
275.2951927018926
 20
128.8499414118509
 30
0.0
 10
275.2951927018926
 20
131.6095165343209
 30
0.0
 10
277.5356175794225
 20
133.8499414118509
 30
0.0
 10
280.2951927018925
 20
133.8499414118509
 30
0.0
  0
SPLINE
  5
68
330
1F
100
AcDbEntity
  8
0
  6
Continuous
 62
    18
420
        0
370
    35
100
AcDbSpline
210
0.0
220
0.0
230
1.0
 70
    11
 71
     3
 72
    17
 73
    13
 74
     0
 42
0.000000001
 43
0.0
 40
0.0
 40
0.0
 40
0.0
 40
0.0
 40
1.0
 40
1.0
 40
1.0
 40
2.0
 40
2.0
 40
2.0
 40
3.0
 40
3.0
 40
3.0
 40
4.0
 40
4.0
 40
4.0
 40
4.0
 10
200.0
 20
80.56440398153421
 30
0.0
 10
202.75957512247
 20
80.56440398153421
 30
0.0
 10
205.0
 20
78.32397910400422
 30
0.0
 10
205.0
 20
75.56440398153424
 30
0.0
 10
205.0
 20
72.80482885906426
 30
0.0
 10
202.75957512247
 20
70.56440398153427
 30
0.0
 10
200.0
 20
70.56440398153427
 30
0.0
 10
197.24042487753
 20
70.56440398153427
 30
0.0
 10
195.0
 20
72.80482885906426
 30
0.0
 10
195.0
 20
75.56440398153424
 30
0.0
 10
195.0
 20
78.32397910400422
 30
0.0
 10
197.24042487753
 20
80.56440398153421
 30
0.0
 10
200.0
 20
80.56440398153421
 30
0.0
  0
SPLINE
  5
69
330
1F
100
AcDbEntity
  8
0
  6
Continuous
 62
    18
420
        0
370
    35
100
AcDbSpline
210
0.0
220
0.0
230
1.0
 70
    11
 71
     3
 72
    17
 73
    13
 74
     0
 42
0.000000001
 43
0.0
 40
0.0
 40
0.0
 40
0.0
 40
0.0
 40
1.0
 40
1.0
 40
1.0
 40
2.0
 40
2.0
 40
2.0
 40
3.0
 40
3.0
 40
3.0
 40
4.0
 40
4.0
 40
4.0
 40
4.0
 10
200.0
 20
163.175
 30
0.0
 10
202.75957512247
 20
163.175
 30
0.0
 10
205.0
 20
160.93457512247
 30
0.0
 10
205.0
 20
158.175
 30
0.0
 10
205.0
 20
155.41542487753
 30
0.0
 10
202.75957512247
 20
153.175
 30
0.0
 10
200.0
 20
153.175
 30
0.0
 10
197.24042487753
 20
153.175
 30
0.0
 10
195.0
 20
155.41542487753
 30
0.0
 10
195.0
 20
158.175
 30
0.0
 10
195.0
 20
160.93457512247
 30
0.0
 10
197.24042487753
 20
163.175
 30
0.0
 10
200.0
 20
163.175
 30
0.0
  0
VIEWPORT
  5
6E
330
6A
100
AcDbEntity
 67
     1
  8
0
100
AcDbViewport
 10
128.5
 20
97.5
 30
0.0
 40
314.226
 41
222.18
 68
     1
 69
     1
 12
150.0
 22
200.0
 13
0.0
 23
0.0
 14
10.0
 24
10.0
 15
10.0
 25
10.0
 16
0.0
 26
0.0
 36
1.0
 17
0.0
 27
0.0
 37
0.0
 42
50.0
 43
0.0
 44
0.0
 45
222.18
 50
0.0
 51
0.0
 72
   100
 90
   557152
  1

281
     0
 71
     1
 74
     0
110
0.0
120
0.0
130
0.0
111
1.0
121
0.0
131
0.0
112
0.0
122
1.0
132
0.0
 79
     0
146
0.0
170
     0
 61
     5
348
2F
292
     1
282
     1
141
0.0
142
0.0
 63
   256
361
6F
  0
VIEWPORT
  5
70
330
6A
100
AcDbEntity
 67
     1
  8
0
100
AcDbViewport
 10
200.0
 20
150.0
 30
0.0
 40
400.0
 41
300.0
 68
     2
 69
     2
 12
200.0
 22
150.0
 13
0.0
 23
0.0
 14
10.0
 24
10.0
 15
10.0
 25
10.0
 16
0.0
 26
0.0
 36
1.0
 17
0.0
 27
0.0
 37
0.0
 42
50.0
 43
0.0
 44
0.0
 45
300.0
 50
0.0
 51
0.0
 72
   100
 90
   557152
  1

281
     0
 71
     1
 74
     0
110
0.0
120
0.0
130
0.0
111
1.0
121
0.0
131
0.0
112
0.0
122
1.0
132
0.0
 79
     0
146
0.0
170
     0
 61
     5
348
2F
292
     1
282
     1
141
0.0
142
0.0
 63
   256
361
71
  0
ENDSEC
  0
SECTION
  2
OBJECTS
  0
DICTIONARY
  5
C
330
0
100
AcDbDictionary
281
     1
  3
ACAD_DETAILVIEWSTYLE
350
79
  3
ACAD_GROUP
350
D
  3
ACAD_LAYOUT
350
1A
  3
ACAD_MATERIAL
350
43
  3
ACAD_MLEADERSTYLE
350
5B
  3
ACAD_MLINESTYLE
350
17
  3
ACAD_PLOTSETTINGS
350
19
  3
ACAD_PLOTSTYLENAME
350
E
  3
ACAD_SCALELIST
350
47
  3
ACAD_SECTIONVIEWSTYLE
350
7A
  3
ACAD_TABLESTYLE
350
59
  3
ACAD_VISUALSTYLE
350
2A
  3
ACDB_RECOMPOSE_DATA
350
76
  3
AcDbVariableDictionary
350
72
  0
SUN
  5
5D
330
29
100
AcDbSun
 90
        1
290
     0
 63
     7
421
 16777215
 40
1.0
291
     1
 91
  2455826
 92
 54000000
292
     0
 70
     2
 71
   256
280
     1
  0
SUN
  5
6F
330
6E
100
AcDbSun
 90
        1
290
     0
 63
     7
421
 16777215
 40
1.0
291
     1
 91
  2455826
 92
 54000000
292
     0
 70
     2
 71
   256
280
     1
  0
SUN
  5
71
330
70
100
AcDbSun
 90
        1
290
     0
 63
     7
421
 16777215
 40
1.0
291
     1
 91
  2455826
 92
 54000000
292
     0
 70
     2
 71
   256
280
     1
  0
DICTIONARY
  5
79
102
{ACAD_REACTORS
330
C
102
}
330
C
100
AcDbDictionary
281
     1
  0
DICTIONARY
  5
D
102
{ACAD_REACTORS
330
C
102
}
330
C
100
AcDbDictionary
281
     1
  0
DICTIONARY
  5
1A
102
{ACAD_REACTORS
330
C
102
}
330
C
100
AcDbDictionary
281
     1
  3
Layout1
350
6B
  3
Model
350
22
  0
DICTIONARY
  5
43
102
{ACAD_REACTORS
330
C
102
}
330
C
100
AcDbDictionary
281
     1
  3
ByBlock
350
45
  3
ByLayer
350
44
  3
Global
350
46
  0
DICTIONARY
  5
5B
102
{ACAD_REACTORS
330
C
102
}
330
C
100
AcDbDictionary
281
     1
  3
Standard
350
5C
  0
DICTIONARY
  5
17
102
{ACAD_REACTORS
330
C
102
}
330
C
100
AcDbDictionary
281
     1
  3
Standard
350
18
  0
DICTIONARY
  5
19
102
{ACAD_REACTORS
330
C
102
}
330
C
100
AcDbDictionary
281
     1
  0
ACDBDICTIONARYWDFLT
  5
E
102
{ACAD_REACTORS
330
C
102
}
330
C
100
AcDbDictionary
281
     1
  3
Normal
350
F
100
AcDbDictionaryWithDefault
340
F
  0
DICTIONARY
  5
47
102
{ACAD_REACTORS
330
C
102
}
330
C
100
AcDbDictionary
281
     1
  3
A0
350
48
  3
A1
350
49
  3
A2
350
4A
  3
A3
350
4B
  3
A4
350
4C
  3
A5
350
4D
  3
A6
350
4E
  3
A7
350
4F
  3
A8
350
50
  3
A9
350
51
  3
B0
350
52
  3
B1
350
53
  3
B2
350
54
  3
B3
350
55
  3
B4
350
56
  3
B5
350
57
  3
B6
350
58
  0
DICTIONARY
  5
7A
102
{ACAD_REACTORS
330
C
102
}
330
C
100
AcDbDictionary
281
     1
  0
DICTIONARY
  5
59
102
{ACAD_REACTORS
330
C
102
}
330
C
100
AcDbDictionary
281
     1
  3
Standard
350
5A
  0
DICTIONARY
  5
2A
102
{ACAD_REACTORS
330
C
102
}
330
C
100
AcDbDictionary
281
     1
  3
2dWireframe
350
2F
  3
Basic
350
32
  3
Brighten
350
36
  3
ColorChange
350
3A
  3
Conceptual
350
34
  3
Dim
350
35
  3
EdgeColorOff
350
3D
  3
Facepattern
350
39
  3
Flat
350
2B
  3
FlatWithEdges
350
2C
  3
Gouraud
350
2D
  3
GouraudWithEdges
350
2E
  3
Hidden
350
31
  3
JitterOff
350
3B
  3
Linepattern
350
38
  3
OverhangOff
350
3C
  3
Realistic
350
33
  3
Shaded
350
42
  3
Shaded with edges
350
41
  3
Shades of Gray
350
3E
  3
Sketchy
350
3F
  3
Thicken
350
37
  3
Wireframe
350
30
  3
X-Ray
350
40
  0
XRECORD
  5
76
102
{ACAD_REACTORS
330
C
102
}
330
C
100
AcDbXrecord
280
     1
 90
        1
330
5A
  0
DICTIONARY
  5
72
102
{ACAD_REACTORS
330
C
102
}
330
C
100
AcDbDictionary
281
     1
  3
CANNOSCALE
350
73
  3
CENTEREXE
350
7B
  3
CENTERLTYPEFILE
350
7C
  3
CMLEADERSTYLE
350
78
  3
CTABLESTYLE
350
77
  0
LAYOUT
  5
6B
102
{ACAD_REACTORS
330
1A
102
}
330
1A
100
AcDbPlotSettings
  1

  2
none_device
  4
ISO_A4_(210.00_x_297.00_MM)
  6

 40
0.0
 41
0.0
 42
0.0
 43
0.0
 44
300.0
 45
400.0
 46
0.0
 47
0.0
 48
0.0
 49
0.0
140
0.0
141
0.0
142
1.0
143
1.0
 70
   688
 72
     1
 73
     3
 74
     5
  7

 75
    16
 76
     0
 77
     2
 78
   300
147
1.0
148
0.0
149
0.0
100
AcDbLayout
  1
Layout1
 70
     1
 71
     1
 10
-20.0
 20
-7.5
 11
277.0
 21
202.5
 12
0.0
 22
0.0
 32
0.0
 14
300.0
 24
400.0
 34
0.0
 15
0.0
 25
0.0
 35
0.0
146
0.0
 13
0.0
 23
0.0
 33
0.0
 16
1.0
 26
0.0
 36
0.0
 17
0.0
 27
1.0
 37
0.0
 76
     0
330
6A
331
6E
  0
LAYOUT
  5
22
102
{ACAD_REACTORS
330
1A
102
}
330
1A
100
AcDbPlotSettings
  1

  2
none_device
  4
Letter_(8.50_x_11.00_Inches)
  6

 40
6.35
 41
6.35
 42
6.35000508
 43
6.35000508
 44
215.9
 45
279.4
 46
0.0
 47
0.0
 48
0.0
 49
0.0
140
0.0
141
0.0
142
1.0
143
1.0
 70
  1712
 72
     1
 73
     0
 74
     0
  7

 75
     0
 76
     0
 77
     2
 78
   300
147
1.0
148
0.0
149
0.0
100
AcDbLayout
  1
Model
 70
     1
 71
     0
 10
0.0
 20
0.0
 11
420.0
 21
297.0
 12
0.0
 22
0.0
 32
0.0
 14
1.000000000000000E+20
 24
1.000000000000000E+20
 34
1.000000000000000E+20
 15
-1.000000000000000E+20
 25
-1.000000000000000E+20
 35
-1.000000000000000E+20
146
0.0
 13
0.0
 23
0.0
 33
0.0
 16
1.0
 26
0.0
 36
0.0
 17
0.0
 27
1.0
 37
0.0
 76
     0
330
1F
331
29
  0
MATERIAL
  5
45
102
{ACAD_REACTORS
330
43
102
}
330
43
100
AcDbMaterial
  1
ByBlock
 72
     1
 94
      127
  0
MATERIAL
  5
44
102
{ACAD_REACTORS
330
43
102
}
330
43
100
AcDbMaterial
  1
ByLayer
 72
     1
 94
      127
  0
MATERIAL
  5
46
102
{ACAD_REACTORS
330
43
102
}
330
43
100
AcDbMaterial
  1
Global
 72
     1
 94
      127
  0
MLEADERSTYLE
  5
5C
102
{ACAD_REACTORS
330
5B
102
}
330
5B
100
AcDbMLeaderStyle
179
     2
170
     2
171
     1
172
     0
 90
        2
 40
0.0
 41
0.0
173
     1
 91
-1056964608
340
14
 92
       -2
290
     1
 42
2.0
291
     1
 43
8.0
  3
Standard
341
0
 44
4.0
300

342
11
174
     1
178
     6
175
     1
176
     0
 93
-1056964608
 45
4.0
292
     0
297
     0
 46
4.0
343
0
 94
-1056964608
 47
1.0
 49
1.0
140
1.0
293
     1
141
0.0
294
     1
177
     0
142
1.0
295
     0
296
     0
143
3.75
271
     0
272
     9
273
     9
298
     0
  0
MLINESTYLE
  5
18
102
{ACAD_REACTORS
330
17
102
}
330
17
100
AcDbMlineStyle
  2
Standard
 70
     0
  3

 62
   256
 51
90.0
 52
90.0
 71
     2
 49
0.5
 62
   256
  6
BYLAYER
 49
-0.5
 62
   256
  6
BYLAYER
  0
ACDBPLACEHOLDER
  5
F
102
{ACAD_REACTORS
330
E
102
}
330
E
  0
SCALE
  5
48
102
{ACAD_REACTORS
330
47
102
}
330
47
100
AcDbScale
 70
     0
300
1:1
140
1.0
141
1.0
290
     1
  0
SCALE
  5
49
102
{ACAD_REACTORS
330
47
102
}
330
47
100
AcDbScale
 70
     0
300
1:2
140
1.0
141
2.0
290
     0
  0
SCALE
  5
4A
102
{ACAD_REACTORS
330
47
102
}
330
47
100
AcDbScale
 70
     0
300
1:4
140
1.0
141
4.0
290
     0
  0
SCALE
  5
4B
102
{ACAD_REACTORS
330
47
102
}
330
47
100
AcDbScale
 70
     0
300
1:5
140
1.0
141
5.0
290
     0
  0
SCALE
  5
4C
102
{ACAD_REACTORS
330
47
102
}
330
47
100
AcDbScale
 70
     0
300
1:8
140
1.0
141
8.0
290
     0
  0
SCALE
  5
4D
102
{ACAD_REACTORS
330
47
102
}
330
47
100
AcDbScale
 70
     0
300
1:10
140
1.0
141
10.0
290
     0
  0
SCALE
  5
4E
102
{ACAD_REACTORS
330
47
102
}
330
47
100
AcDbScale
 70
     0
300
1:16
140
1.0
141
16.0
290
     0
  0
SCALE
  5
4F
102
{ACAD_REACTORS
330
47
102
}
330
47
100
AcDbScale
 70
     0
300
1:20
140
1.0
141
20.0
290
     0
  0
SCALE
  5
50
102
{ACAD_REACTORS
330
47
102
}
330
47
100
AcDbScale
 70
     0
300
1:30
140
1.0
141
30.0
290
     0
  0
SCALE
  5
51
102
{ACAD_REACTORS
330
47
102
}
330
47
100
AcDbScale
 70
     0
300
1:40
140
1.0
141
40.0
290
     0
  0
SCALE
  5
52
102
{ACAD_REACTORS
330
47
102
}
330
47
100
AcDbScale
 70
     0
300
1:50
140
1.0
141
50.0
290
     0
  0
SCALE
  5
53
102
{ACAD_REACTORS
330
47
102
}
330
47
100
AcDbScale
 70
     0
300
1:100
140
1.0
141
100.0
290
     0
  0
SCALE
  5
54
102
{ACAD_REACTORS
330
47
102
}
330
47
100
AcDbScale
 70
     0
300
2:1
140
2.0
141
1.0
290
     0
  0
SCALE
  5
55
102
{ACAD_REACTORS
330
47
102
}
330
47
100
AcDbScale
 70
     0
300
4:1
140
4.0
141
1.0
290
     0
  0
SCALE
  5
56
102
{ACAD_REACTORS
330
47
102
}
330
47
100
AcDbScale
 70
     0
300
8:1
140
8.0
141
1.0
290
     0
  0
SCALE
  5
57
102
{ACAD_REACTORS
330
47
102
}
330
47
100
AcDbScale
 70
     0
300
10:1
140
10.0
141
1.0
290
     0
  0
SCALE
  5
58
102
{ACAD_REACTORS
330
47
102
}
330
47
100
AcDbScale
 70
     0
300
100:1
140
100.0
141
1.0
290
     0
  0
TABLESTYLE
  5
5A
102
{ACAD_REACTORS
330
59
102
}
102
{ACAD_XDICTIONARY
360
74
102
}
330
59
100
AcDbTableStyle
  3
Standard
 70
     0
 71
     0
 40
0.06
 41
0.06
280
     0
281
     0
  7
Standard
140
4.5
170
     2
 62
     0
 63
   257
283
     0
 90
        4
 91
        0
  1

274
    -2
284
     1
 64
     0
275
    -2
285
     1
 65
     0
276
    -2
286
     1
 66
     0
277
    -2
287
     1
 67
     0
278
    -2
288
     1
 68
     0
279
    -2
289
     1
 69
     0
  7
Standard
140
6.0
170
     5
 62
     0
 63
   257
283
     0
 90
        4
 91
        0
  1

274
    -2
284
     1
 64
     0
275
    -2
285
     1
 65
     0
276
    -2
286
     1
 66
     0
277
    -2
287
     1
 67
     0
278
    -2
288
     1
 68
     0
279
    -2
289
     1
 69
     0
  7
Standard
140
4.5
170
     5
 62
     0
 63
   257
283
     0
 90
        4
 91
        0
  1

274
    -2
284
     1
 64
     0
275
    -2
285
     1
 65
     0
276
    -2
286
     1
 66
     0
277
    -2
287
     1
 67
     0
278
    -2
288
     1
 68
     0
279
    -2
289
     1
 69
     0
  0
VISUALSTYLE
  5
2F
102
{ACAD_REACTORS
330
2A
102
}
330
2A
100
AcDbVisualStyle
  2
2dWireframe
 70
     4
177
     3
291
     0
 70
    58
 90
        0
176
     1
 90
        2
176
     1
 90
        0
176
     1
 90
        0
176
     1
 40
0.6
176
     1
 40
30.0
176
     1
 62
     7
420
 16777215
176
     1
 90
        1
176
     1
 90
        4
176
     1
 62
     7
176
     1
 62
   257
176
     1
 90
        1
176
     1
 90
        1
176
     1
 40
1.0
176
     1
 90
        0
176
     1
 62
   257
176
     1
 40
1.0
176
     1
 90
        1
176
     1
 90
        6
176
     1
 90
        2
176
     1
 62
     7
176
     1
 90
        5
176
     1
 90
        0
176
     1
 90
        0
176
     1
290
     0
176
     1
 90
        1
176
     1
 40
0.0
176
     1
 90
        0
176
     1
290
     1
176
     1
290
     1
176
     1
290
     0
176
     1
290
     0
176
     1
290
     0
176
     1
290
     0
176
     1
290
     0
176
     1
290
     0
176
     1
290
     0
176
     1
 90
       50
176
     1
 40
0.0
176
     1
 40
1.0
176
     1
 90
        0
176
     1
 62
    18
420
        0
176
     1
 90
       50
176
     1
 90
        3
176
     1
 62
     5
420
      255
176
     1
290
     0
176
     1
 90
       50
176
     1
 90
       50
176
     1
 90
       50
176
     1
290
     0
176
     1
 90
       50
176
     1
 62
   256
176
     0
 40
1.0
176
     0
 90
        2
176
     1
  1
strokes_ogs.tif
176
     1
290
     0
176
     1
 40
1.0
176
     1
 40
1.0
176
     1
  0
VISUALSTYLE
  5
32
102
{ACAD_REACTORS
330
2A
102
}
330
2A
100
AcDbVisualStyle
  2
Basic
 70
     7
177
     3
291
     1
 70
    58
 90
        1
176
     1
 90
        0
176
     1
 90
        1
176
     1
 90
        0
176
     1
 40
0.6
176
     1
 40
30.0
176
     1
 62
     7
420
 16777215
176
     1
 90
        0
176
     1
 90
        4
176
     1
 62
     7
176
     1
 62
   257
176
     1
 90
        1
176
     1
 90
        1
176
     1
 40
1.0
176
     1
 90
        8
176
     1
 62
     7
176
     1
 40
1.0
176
     1
 90
        1
176
     1
 90
        6
176
     1
 90
        2
176
     1
 62
     7
176
     1
 90
        5
176
     1
 90
        0
176
     1
 90
        0
176
     1
290
     0
176
     1
 90
        1
176
     1
 40
0.0
176
     1
 90
        0
176
     1
290
     0
176
     1
290
     1
176
     1
290
     1
176
     1
290
     0
176
     1
290
     0
176
     1
290
     0
176
     1
290
     0
176
     1
290
     0
176
     1
290
     0
176
     1
 90
       50
176
     1
 40
0.0
176
     1
 40
1.0
176
     1
 90
        0
176
     1
 62
    18
420
        0
176
     1
 90
       50
176
     1
 90
        3
176
     1
 62
     5
420
      255
176
     1
290
     0
176
     1
 90
       50
176
     1
 90
       50
176
     1
 90
       50
176
     1
290
     0
176
     1
 90
       50
176
     1
 62
   256
176
     0
 40
1.0
176
     0
 90
        2
176
     1
  1
strokes_ogs.tif
176
     1
290
     0
176
     1
 40
1.0
176
     1
 40
1.0
176
     1
  0
VISUALSTYLE
  5
36
102
{ACAD_REACTORS
330
2A
102
}
330
2A
100
AcDbVisualStyle
  2
Brighten
 70
    12
177
     3
291
     1
 70
    58
 90
        2
176
     1
 90
        2
176
     1
 90
        0
176
     1
 90
        0
176
     1
 40
0.6
176
     1
 40
30.0
176
     1
 62
     7
420
 16777215
176
     1
 90
        1
176
     1
 90
        4
176
     1
 62
     7
176
     1
 62
   257
176
     1
 90
        1
176
     1
 90
        1
176
     1
 40
1.0
176
     1
 90
        8
176
     1
 62
     7
176
     1
 40
1.0
176
     1
 90
        1
176
     1
 90
        6
176
     1
 90
        2
176
     1
 62
     7
176
     1
 90
        5
176
     1
 90
        0
176
     1
 90
        0
176
     1
290
     0
176
     1
 90
        1
176
     1
 40
50.0
176
     1
 90
        0
176
     1
290
     0
176
     1
290
     1
176
     1
290
     1
176
     1
290
     0
176
     1
290
     0
176
     1
290
     0
176
     1
290
     0
176
     1
290
     0
176
     1
290
     0
176
     1
 90
       50
176
     1
 40
0.0
176
     1
 40
1.0
176
     1
 90
        0
176
     1
 62
    18
420
        0
176
     1
 90
       50
176
     1
 90
        3
176
     1
 62
     5
420
      255
176
     1
290
     0
176
     1
 90
       50
176
     1
 90
       50
176
     1
 90
       50
176
     1
290
     0
176
     1
 90
       50
176
     1
 62
   256
176
     0
 40
1.0
176
     0
 90
        2
176
     1
  1
strokes_ogs.tif
176
     1
290
     0
176
     1
 40
1.0
176
     1
 40
1.0
176
     1
  0
VISUALSTYLE
  5
3A
102
{ACAD_REACTORS
330
2A
102
}
330
2A
100
AcDbVisualStyle
  2
ColorChange
 70
    16
177
     3
291
     1
 70
    58
 90
        2
176
     1
 90
        2
176
     1
 90
        3
176
     1
 90
        0
176
     1
 40
0.6
176
     1
 40
30.0
176
     1
 62
     8
420
  8421504
176
     1
 90
        1
176
     1
 90
        4
176
     1
 62
     7
176
     1
 62
   257
176
     1
 90
        1
176
     1
 90
        1
176
     1
 40
1.0
176
     1
 90
        8
176
     1
 62
     8
420
  8421504
176
     1
 40
1.0
176
     1
 90
        1
176
     1
 90
        6
176
     1
 90
        2
176
     1
 62
     7
176
     1
 90
        5
176
     1
 90
        0
176
     1
 90
        0
176
     1
290
     0
176
     1
 90
        1
176
     1
 40
0.0
176
     1
 90
        0
176
     1
290
     0
176
     1
290
     1
176
     1
290
     1
176
     1
290
     0
176
     1
290
     0
176
     1
290
     0
176
     1
290
     0
176
     1
290
     0
176
     1
290
     0
176
     1
 90
       50
176
     1
 40
0.0
176
     1
 40
1.0
176
     1
 90
        0
176
     1
 62
    18
420
        0
176
     1
 90
       50
176
     1
 90
        3
176
     1
 62
     5
420
      255
176
     1
290
     0
176
     1
 90
       50
176
     1
 90
       50
176
     1
 90
       50
176
     1
290
     0
176
     1
 90
       50
176
     1
 62
   256
176
     0
 40
1.0
176
     0
 90
        2
176
     1
  1
strokes_ogs.tif
176
     1
290
     0
176
     1
 40
1.0
176
     1
 40
1.0
176
     1
  0
VISUALSTYLE
  5
34
102
{ACAD_REACTORS
330
2A
102
}
330
2A
100
AcDbVisualStyle
  2
Conceptual
 70
     9
177
     3
291
     0
 70
    58
 90
        3
176
     1
 90
        2
176
     1
 90
        0
176
     1
 90
        0
176
     1
 40
0.6
176
     1
 40
30.0
176
     1
 62
     7
420
 16777215
176
     1
 90
        2
176
     1
 90
        2
176
     1
 62
     7
176
     1
 62
   257
176
     1
 90
        1
176
     1
 90
        1
176
     1
 40
179.0
176
     1
 90
        8
176
     1
 62
     7
176
     1
 40
1.0
176
     1
 90
        1
176
     1
 90
        6
176
     1
 90
        2
176
     1
 62
     7
176
     1
 90
        3
176
     1
 90
        0
176
     1
 90
        0
176
     1
290
     0
176
     1
 90
        1
176
     1
 40
0.0
176
     1
 90
        0
176
     1
290
     0
176
     1
290
     1
176
     1
290
     1
176
     1
290
     0
176
     1
290
     0
176
     1
290
     0
176
     1
290
     0
176
     1
290
     0
176
     1
290
     0
176
     1
 90
       50
176
     1
 40
0.0
176
     1
 40
1.0
176
     1
 90
        0
176
     1
 62
    18
420
        0
176
     1
 90
       50
176
     1
 90
        3
176
     1
 62
     5
420
      255
176
     1
290
     0
176
     1
 90
       50
176
     1
 90
       50
176
     1
 90
       50
176
     1
290
     0
176
     1
 90
       50
176
     1
 62
   256
176
     0
 40
1.0
176
     0
 90
        2
176
     1
  1
strokes_ogs.tif
176
     1
290
     0
176
     1
 40
1.0
176
     1
 40
1.0
176
     1
  0
VISUALSTYLE
  5
35
102
{ACAD_REACTORS
330
2A
102
}
330
2A
100
AcDbVisualStyle
  2
Dim
 70
    11
177
     3
291
     1
 70
    58
 90
        2
176
     1
 90
        2
176
     1
 90
        0
176
     1
 90
        0
176
     1
 40
0.6
176
     1
 40
30.0
176
     1
 62
     7
420
 16777215
176
     1
 90
        1
176
     1
 90
        4
176
     1
 62
     7
176
     1
 62
   257
176
     1
 90
        1
176
     1
 90
        1
176
     1
 40
1.0
176
     1
 90
        8
176
     1
 62
     7
176
     1
 40
1.0
176
     1
 90
        1
176
     1
 90
        6
176
     1
 90
        2
176
     1
 62
     7
176
     1
 90
        5
176
     1
 90
        0
176
     1
 90
        0
176
     1
290
     0
176
     1
 90
        1
176
     1
 40
-50.0
176
     1
 90
        0
176
     1
290
     0
176
     1
290
     1
176
     1
290
     1
176
     1
290
     0
176
     1
290
     0
176
     1
290
     0
176
     1
290
     0
176
     1
290
     0
176
     1
290
     0
176
     1
 90
       50
176
     1
 40
0.0
176
     1
 40
1.0
176
     1
 90
        0
176
     1
 62
    18
420
        0
176
     1
 90
       50
176
     1
 90
        3
176
     1
 62
     5
420
      255
176
     1
290
     0
176
     1
 90
       50
176
     1
 90
       50
176
     1
 90
       50
176
     1
290
     0
176
     1
 90
       50
176
     1
 62
   256
176
     0
 40
1.0
176
     0
 90
        2
176
     1
  1
strokes_ogs.tif
176
     1
290
     0
176
     1
 40
1.0
176
     1
 40
1.0
176
     1
  0
VISUALSTYLE
  5
3D
102
{ACAD_REACTORS
330
2A
102
}
330
2A
100
AcDbVisualStyle
  2
EdgeColorOff
 70
    22
177
     3
291
     1
 70
    58
 90
        2
176
     0
 90
        2
176
     0
 90
        0
176
     0
 90
        0
176
     0
 40
0.6
176
     0
 40
30.0
176
     0
 62
     7
420
 16777215
176
     0
 90
        1
176
     0
 90
        4
176
     0
 62
     7
176
     0
 62
   257
176
     0
 90
        1
176
     0
 90
        1
176
     0
 40
1.0
176
     0
 90
        8
176
     2
 62
     7
176
     0
 40
1.0
176
     0
 90
        1
176
     0
 90
        6
176
     0
 90
        2
176
     0
 62
     7
176
     0
 90
        5
176
     0
 90
        0
176
     0
 90
        0
176
     0
290
     0
176
     0
 90
        1
176
     0
 40
0.0
176
     0
 90
        0
176
     0
290
     0
176
     0
290
     1
176
     0
290
     1
176
     0
290
     0
176
     0
290
     0
176
     0
290
     0
176
     0
290
     0
176
     0
290
     0
176
     0
290
     0
176
     0
 90
       50
176
     0
 40
0.0
176
     0
 40
1.0
176
     0
 90
        0
176
     0
 62
    18
420
        0
176
     0
 90
       50
176
     0
 90
        3
176
     0
 62
     5
420
      255
176
     0
290
     0
176
     0
 90
       50
176
     0
 90
       50
176
     0
 90
       50
176
     0
290
     0
176
     0
 90
       50
176
     0
 62
   256
176
     0
 40
1.0
176
     0
 90
        2
176
     0
  1
strokes_ogs.tif
176
     0
290
     0
176
     0
 40
1.0
176
     0
 40
1.0
176
     0
  0
VISUALSTYLE
  5
39
102
{ACAD_REACTORS
330
2A
102
}
330
2A
100
AcDbVisualStyle
  2
Facepattern
 70
    15
177
     3
291
     1
 70
    58
 90
        2
176
     1
 90
        2
176
     1
 90
        0
176
     1
 90
        0
176
     1
 40
0.6
176
     1
 40
30.0
176
     1
 62
     7
420
 16777215
176
     1
 90
        1
176
     1
 90
        4
176
     1
 62
     7
176
     1
 62
   257
176
     1
 90
        1
176
     1
 90
        1
176
     1
 40
1.0
176
     1
 90
        8
176
     1
 62
     7
176
     1
 40
1.0
176
     1
 90
        1
176
     1
 90
        6
176
     1
 90
        2
176
     1
 62
     7
176
     1
 90
        5
176
     1
 90
        0
176
     1
 90
        0
176
     1
290
     0
176
     1
 90
        1
176
     1
 40
0.0
176
     1
 90
        0
176
     1
290
     0
176
     1
290
     1
176
     1
290
     1
176
     1
290
     0
176
     1
290
     0
176
     1
290
     0
176
     1
290
     0
176
     1
290
     0
176
     1
290
     0
176
     1
 90
       50
176
     1
 40
0.0
176
     1
 40
1.0
176
     1
 90
        0
176
     1
 62
    18
420
        0
176
     1
 90
       50
176
     1
 90
        3
176
     1
 62
     5
420
      255
176
     1
290
     0
176
     1
 90
       50
176
     1
 90
       50
176
     1
 90
       50
176
     1
290
     0
176
     1
 90
       50
176
     1
 62
   256
176
     0
 40
1.0
176
     0
 90
        2
176
     1
  1
strokes_ogs.tif
176
     1
290
     0
176
     1
 40
1.0
176
     1
 40
1.0
176
     1
  0
VISUALSTYLE
  5
2B
102
{ACAD_REACTORS
330
2A
102
}
330
2A
100
AcDbVisualStyle
  2
Flat
 70
     0
177
     3
291
     1
 70
    58
 90
        2
176
     1
 90
        1
176
     1
 90
        1
176
     1
 90
        2
176
     1
 40
0.6
176
     1
 40
30.0
176
     1
 62
     7
420
 16777215
176
     1
 90
        0
176
     1
 90
        0
176
     1
 62
     7
176
     1
 62
   257
176
     1
 90
        1
176
     1
 90
        1
176
     1
 40
1.0
176
     1
 90
        8
176
     1
 62
     7
176
     1
 40
1.0
176
     1
 90
        1
176
     1
 90
        6
176
     1
 90
        2
176
     1
 62
     7
176
     1
 90
        5
176
     1
 90
        0
176
     1
 90
        0
176
     1
290
     0
176
     1
 90
       13
176
     1
 40
0.0
176
     1
 90
        0
176
     1
290
     0
176
     1
290
     1
176
     1
290
     1
176
     1
290
     0
176
     1
290
     0
176
     1
290
     0
176
     1
290
     0
176
     1
290
     0
176
     1
290
     0
176
     1
 90
       50
176
     1
 40
0.0
176
     1
 40
1.0
176
     1
 90
        0
176
     1
 62
    18
420
        0
176
     1
 90
       50
176
     1
 90
        3
176
     1
 62
     5
420
      255
176
     1
290
     0
176
     1
 90
       50
176
     1
 90
       50
176
     1
 90
       50
176
     1
290
     0
176
     1
 90
       50
176
     1
 62
   256
176
     0
 40
1.0
176
     0
 90
        2
176
     1
  1
strokes_ogs.tif
176
     1
290
     0
176
     1
 40
1.0
176
     1
 40
1.0
176
     1
  0
VISUALSTYLE
  5
2C
102
{ACAD_REACTORS
330
2A
102
}
330
2A
100
AcDbVisualStyle
  2
FlatWithEdges
 70
     1
177
     3
291
     1
 70
    58
 90
        2
176
     1
 90
        1
176
     1
 90
        1
176
     1
 90
        2
176
     1
 40
0.6
176
     1
 40
30.0
176
     1
 62
     7
420
 16777215
176
     1
 90
        1
176
     1
 90
        0
176
     1
 62
     7
176
     1
 62
   257
176
     1
 90
        1
176
     1
 90
        1
176
     1
 40
1.0
176
     1
 90
        0
176
     1
 62
   257
176
     1
 40
1.0
176
     1
 90
        1
176
     1
 90
        6
176
     1
 90
        2
176
     1
 62
     7
176
     1
 90
        5
176
     1
 90
        0
176
     1
 90
        0
176
     1
290
     0
176
     1
 90
       13
176
     1
 40
0.0
176
     1
 90
        0
176
     1
290
     0
176
     1
290
     1
176
     1
290
     1
176
     1
290
     0
176
     1
290
     0
176
     1
290
     0
176
     1
290
     0
176
     1
290
     0
176
     1
290
     0
176
     1
 90
       50
176
     1
 40
0.0
176
     1
 40
1.0
176
     1
 90
        0
176
     1
 62
    18
420
        0
176
     1
 90
       50
176
     1
 90
        3
176
     1
 62
     5
420
      255
176
     1
290
     0
176
     1
 90
       50
176
     1
 90
       50
176
     1
 90
       50
176
     1
290
     0
176
     1
 90
       50
176
     1
 62
   256
176
     0
 40
1.0
176
     0
 90
        2
176
     1
  1
strokes_ogs.tif
176
     1
290
     0
176
     1
 40
1.0
176
     1
 40
1.0
176
     1
  0
VISUALSTYLE
  5
2D
102
{ACAD_REACTORS
330
2A
102
}
330
2A
100
AcDbVisualStyle
  2
Gouraud
 70
     2
177
     3
291
     1
 70
    58
 90
        2
176
     1
 90
        2
176
     1
 90
        1
176
     1
 90
        2
176
     1
 40
0.6
176
     1
 40
30.0
176
     1
 62
     7
420
 16777215
176
     1
 90
        0
176
     1
 90
        0
176
     1
 62
     7
176
     1
 62
   257
176
     1
 90
        1
176
     1
 90
        1
176
     1
 40
1.0
176
     1
 90
        0
176
     1
 62
     7
176
     1
 40
1.0
176
     1
 90
        1
176
     1
 90
        6
176
     1
 90
        2
176
     1
 62
     7
176
     1
 90
        5
176
     1
 90
        0
176
     1
 90
        0
176
     1
290
     0
176
     1
 90
       13
176
     1
 40
0.0
176
     1
 90
        0
176
     1
290
     0
176
     1
290
     1
176
     1
290
     1
176
     1
290
     0
176
     1
290
     0
176
     1
290
     0
176
     1
290
     0
176
     1
290
     0
176
     1
290
     0
176
     1
 90
       50
176
     1
 40
0.0
176
     1
 40
1.0
176
     1
 90
        0
176
     1
 62
    18
420
        0
176
     1
 90
       50
176
     1
 90
        3
176
     1
 62
     5
420
      255
176
     1
290
     0
176
     1
 90
       50
176
     1
 90
       50
176
     1
 90
       50
176
     1
290
     0
176
     1
 90
       50
176
     1
 62
   256
176
     0
 40
1.0
176
     0
 90
        2
176
     1
  1
strokes_ogs.tif
176
     1
290
     0
176
     1
 40
1.0
176
     1
 40
1.0
176
     1
  0
VISUALSTYLE
  5
2E
102
{ACAD_REACTORS
330
2A
102
}
330
2A
100
AcDbVisualStyle
  2
GouraudWithEdges
 70
     3
177
     3
291
     1
 70
    58
 90
        2
176
     1
 90
        2
176
     1
 90
        1
176
     1
 90
        2
176
     1
 40
0.6
176
     1
 40
30.0
176
     1
 62
     7
420
 16777215
176
     1
 90
        1
176
     1
 90
        0
176
     1
 62
     7
176
     1
 62
   257
176
     1
 90
        1
176
     1
 90
        1
176
     1
 40
1.0
176
     1
 90
        0
176
     1
 62
   257
176
     1
 40
1.0
176
     1
 90
        1
176
     1
 90
        6
176
     1
 90
        2
176
     1
 62
     7
176
     1
 90
        5
176
     1
 90
        0
176
     1
 90
        0
176
     1
290
     0
176
     1
 90
       13
176
     1
 40
0.0
176
     1
 90
        0
176
     1
290
     0
176
     1
290
     1
176
     1
290
     1
176
     1
290
     0
176
     1
290
     0
176
     1
290
     0
176
     1
290
     0
176
     1
290
     0
176
     1
290
     0
176
     1
 90
       50
176
     1
 40
0.0
176
     1
 40
1.0
176
     1
 90
        0
176
     1
 62
    18
420
        0
176
     1
 90
       50
176
     1
 90
        3
176
     1
 62
     5
420
      255
176
     1
290
     0
176
     1
 90
       50
176
     1
 90
       50
176
     1
 90
       50
176
     1
290
     0
176
     1
 90
       50
176
     1
 62
   256
176
     0
 40
1.0
176
     0
 90
        2
176
     1
  1
strokes_ogs.tif
176
     1
290
     0
176
     1
 40
1.0
176
     1
 40
1.0
176
     1
  0
VISUALSTYLE
  5
31
102
{ACAD_REACTORS
330
2A
102
}
330
2A
100
AcDbVisualStyle
  2
Hidden
 70
     6
177
     3
291
     0
 70
    58
 90
        1
176
     1
 90
        2
176
     1
 90
        2
176
     1
 90
        0
176
     1
 40
0.6
176
     1
 40
30.0
176
     1
 62
     7
420
 16777215
176
     1
 90
        2
176
     1
 90
        2
176
     1
 62
     7
176
     1
 62
   257
176
     1
 90
        2
176
     1
 90
        1
176
     1
 40
40.0
176
     1
 90
        0
176
     1
 62
   257
176
     1
 40
1.0
176
     1
 90
        1
176
     1
 90
        6
176
     1
 90
        2
176
     1
 62
     7
176
     1
 90
        3
176
     1
 90
        0
176
     1
 90
        0
176
     1
290
     0
176
     1
 90
        1
176
     1
 40
0.0
176
     1
 90
        0
176
     1
290
     0
176
     1
290
     1
176
     1
290
     1
176
     1
290
     0
176
     1
290
     0
176
     1
290
     0
176
     1
290
     0
176
     1
290
     0
176
     1
290
     0
176
     1
 90
       50
176
     1
 40
0.0
176
     1
 40
1.0
176
     1
 90
        0
176
     1
 62
    18
420
        0
176
     1
 90
       50
176
     1
 90
        3
176
     1
 62
     5
420
      255
176
     1
290
     0
176
     1
 90
       50
176
     1
 90
       50
176
     1
 90
       50
176
     1
290
     0
176
     1
 90
       50
176
     1
 62
   256
176
     0
 40
1.0
176
     0
 90
        2
176
     1
  1
strokes_ogs.tif
176
     1
290
     0
176
     1
 40
1.0
176
     1
 40
1.0
176
     1
  0
VISUALSTYLE
  5
3B
102
{ACAD_REACTORS
330
2A
102
}
330
2A
100
AcDbVisualStyle
  2
JitterOff
 70
    20
177
     3
291
     1
 70
    58
 90
        2
176
     0
 90
        2
176
     0
 90
        0
176
     0
 90
        0
176
     0
 40
0.6
176
     0
 40
30.0
176
     0
 62
     7
420
 16777215
176
     0
 90
        1
176
     0
 90
        4
176
     0
 62
     7
176
     0
 62
   257
176
     0
 90
        1
176
     0
 90
        1
176
     0
 40
1.0
176
     0
 90
       10
176
     2
 62
     7
176
     0
 40
1.0
176
     0
 90
        1
176
     0
 90
        6
176
     0
 90
        2
176
     0
 62
     7
176
     0
 90
        5
176
     0
 90
        0
176
     0
 90
        0
176
     0
290
     0
176
     0
 90
        1
176
     0
 40
0.0
176
     0
 90
        0
176
     0
290
     0
176
     0
290
     1
176
     0
290
     1
176
     0
290
     0
176
     0
290
     0
176
     0
290
     0
176
     0
290
     0
176
     0
290
     0
176
     0
290
     0
176
     0
 90
       50
176
     0
 40
0.0
176
     0
 40
1.0
176
     0
 90
        0
176
     0
 62
    18
420
        0
176
     0
 90
       50
176
     0
 90
        3
176
     0
 62
     5
420
      255
176
     0
290
     0
176
     0
 90
       50
176
     0
 90
       50
176
     0
 90
       50
176
     0
290
     0
176
     0
 90
       50
176
     0
 62
   256
176
     0
 40
1.0
176
     0
 90
        2
176
     0
  1
strokes_ogs.tif
176
     0
290
     0
176
     0
 40
1.0
176
     0
 40
1.0
176
     0
  0
VISUALSTYLE
  5
38
102
{ACAD_REACTORS
330
2A
102
}
330
2A
100
AcDbVisualStyle
  2
Linepattern
 70
    14
177
     3
291
     1
 70
    58
 90
        2
176
     1
 90
        2
176
     1
 90
        0
176
     1
 90
        0
176
     1
 40
0.6
176
     1
 40
30.0
176
     1
 62
     7
420
 16777215
176
     1
 90
        1
176
     1
 90
        4
176
     1
 62
     7
176
     1
 62
   257
176
     1
 90
        7
176
     1
 90
        7
176
     1
 40
1.0
176
     1
 90
        8
176
     1
 62
     7
176
     1
 40
1.0
176
     1
 90
        1
176
     1
 90
        6
176
     1
 90
        2
176
     1
 62
     7
176
     1
 90
        5
176
     1
 90
        0
176
     1
 90
        0
176
     1
290
     0
176
     1
 90
        1
176
     1
 40
0.0
176
     1
 90
        0
176
     1
290
     0
176
     1
290
     1
176
     1
290
     1
176
     1
290
     0
176
     1
290
     0
176
     1
290
     0
176
     1
290
     0
176
     1
290
     0
176
     1
290
     0
176
     1
 90
       50
176
     1
 40
0.0
176
     1
 40
1.0
176
     1
 90
        0
176
     1
 62
    18
420
        0
176
     1
 90
       50
176
     1
 90
        3
176
     1
 62
     5
420
      255
176
     1
290
     0
176
     1
 90
       50
176
     1
 90
       50
176
     1
 90
       50
176
     1
290
     0
176
     1
 90
       50
176
     1
 62
   256
176
     0
 40
1.0
176
     0
 90
        2
176
     1
  1
strokes_ogs.tif
176
     1
290
     0
176
     1
 40
1.0
176
     1
 40
1.0
176
     1
  0
VISUALSTYLE
  5
3C
102
{ACAD_REACTORS
330
2A
102
}
330
2A
100
AcDbVisualStyle
  2
OverhangOff
 70
    21
177
     3
291
     1
 70
    58
 90
        2
176
     0
 90
        2
176
     0
 90
        0
176
     0
 90
        0
176
     0
 40
0.6
176
     0
 40
30.0
176
     0
 62
     7
420
 16777215
176
     0
 90
        1
176
     0
 90
        4
176
     0
 62
     7
176
     0
 62
   257
176
     0
 90
        1
176
     0
 90
        1
176
     0
 40
1.0
176
     0
 90
        9
176
     2
 62
     7
176
     0
 40
1.0
176
     0
 90
        1
176
     0
 90
        6
176
     0
 90
        2
176
     0
 62
     7
176
     0
 90
        5
176
     0
 90
        0
176
     0
 90
        0
176
     0
290
     0
176
     0
 90
        1
176
     0
 40
0.0
176
     0
 90
        0
176
     0
290
     0
176
     0
290
     1
176
     0
290
     1
176
     0
290
     0
176
     0
290
     0
176
     0
290
     0
176
     0
290
     0
176
     0
290
     0
176
     0
290
     0
176
     0
 90
       50
176
     0
 40
0.0
176
     0
 40
1.0
176
     0
 90
        0
176
     0
 62
    18
420
        0
176
     0
 90
       50
176
     0
 90
        3
176
     0
 62
     5
420
      255
176
     0
290
     0
176
     0
 90
       50
176
     0
 90
       50
176
     0
 90
       50
176
     0
290
     0
176
     0
 90
       50
176
     0
 62
   256
176
     0
 40
1.0
176
     0
 90
        2
176
     0
  1
strokes_ogs.tif
176
     0
290
     0
176
     0
 40
1.0
176
     0
 40
1.0
176
     0
  0
VISUALSTYLE
  5
33
102
{ACAD_REACTORS
330
2A
102
}
330
2A
100
AcDbVisualStyle
  2
Realistic
 70
     8
177
     3
291
     0
 70
    58
 90
        2
176
     1
 90
        3
176
     1
 90
        0
176
     1
 90
        2
176
     1
 40
0.6
176
     1
 40
30.0
176
     1
 62
     7
420
 16777215
176
     1
 90
        0
176
     1
 90
        0
176
     1
 62
     7
176
     1
 62
   257
176
     1
 90
        1
176
     1
 90
        1
176
     1
 40
1.0
176
     1
 90
        8
176
     1
 62
   257
176
     1
 40
1.0
176
     1
 90
        1
176
     1
 90
        6
176
     1
 90
        2
176
     1
 62
     7
176
     1
 90
        3
176
     1
 90
        0
176
     1
 90
        0
176
     1
290
     0
176
     1
 90
       13
176
     1
 40
0.0
176
     1
 90
        0
176
     1
290
     0
176
     1
290
     1
176
     1
290
     1
176
     1
290
     0
176
     1
290
     0
176
     1
290
     0
176
     1
290
     0
176
     1
290
     0
176
     1
290
     0
176
     1
 90
       50
176
     1
 40
0.0
176
     1
 40
1.0
176
     1
 90
        0
176
     1
 62
    18
420
        0
176
     1
 90
       50
176
     1
 90
        3
176
     1
 62
     5
420
      255
176
     1
290
     0
176
     1
 90
       50
176
     1
 90
       50
176
     1
 90
       50
176
     1
290
     0
176
     1
 90
       50
176
     1
 62
   256
176
     0
 40
1.0
176
     0
 90
        2
176
     1
  1
strokes_ogs.tif
176
     1
290
     0
176
     1
 40
1.0
176
     1
 40
1.0
176
     1
  0
VISUALSTYLE
  5
42
102
{ACAD_REACTORS
330
2A
102
}
330
2A
100
AcDbVisualStyle
  2
Shaded
 70
    27
177
     3
291
     0
 70
    58
 90
        2
176
     1
 90
        2
176
     1
 90
        1
176
     1
 90
        2
176
     1
 40
0.6
176
     1
 40
30.0
176
     1
 62
     7
420
 16777215
176
     1
 90
        0
176
     1
 90
        4
176
     1
 62
     7
176
     1
 62
   257
176
     1
 90
        1
176
     1
 90
        1
176
     1
 40
1.0
176
     1
 90
        8
176
     1
 62
   257
176
     1
 40
1.0
176
     1
 90
        1
176
     1
 90
        6
176
     1
 90
        2
176
     1
 62
     8
420
  7895160
176
     1
 90
        3
176
     1
 90
        0
176
     1
 90
        0
176
     1
290
     0
176
     1
 90
        5
176
     1
 40
0.0
176
     1
 90
        0
176
     1
290
     0
176
     1
290
     1
176
     1
290
     1
176
     1
290
     0
176
     1
290
     0
176
     1
290
     0
176
     1
290
     0
176
     1
290
     0
176
     1
290
     0
176
     1
 90
       50
176
     1
 40
0.0
176
     1
 40
1.0
176
     1
 90
        0
176
     1
 62
    18
420
        0
176
     1
 90
       50
176
     1
 90
        3
176
     1
 62
     5
420
      255
176
     1
290
     0
176
     1
 90
       50
176
     1
 90
       50
176
     1
 90
       50
176
     1
290
     0
176
     1
 90
       50
176
     1
 62
   256
176
     0
 40
1.0
176
     0
 90
        2
176
     1
  1
strokes_ogs.tif
176
     1
290
     0
176
     1
 40
1.0
176
     1
 40
1.0
176
     1
  0
VISUALSTYLE
  5
41
102
{ACAD_REACTORS
330
2A
102
}
330
2A
100
AcDbVisualStyle
  2
Shaded with edges
 70
    26
177
     3
291
     0
 70
    58
 90
        2
176
     1
 90
        2
176
     1
 90
        1
176
     1
 90
        2
176
     1
 40
0.6
176
     1
 40
30.0
176
     1
 62
     7
420
 16777215
176
     1
 90
        1
176
     1
 90
       10
176
     1
 62
     7
176
     1
 62
   257
176
     1
 90
        2
176
     1
 90
        1
176
     1
 40
1.0
176
     1
 90
        8
176
     1
 62
   257
176
     1
 40
1.0
176
     1
 90
        1
176
     1
 90
        6
176
     1
 90
        2
176
     1
 62
     7
176
     1
 90
        3
176
     1
 90
        0
176
     1
 90
        0
176
     1
290
     0
176
     1
 90
        5
176
     1
 40
0.0
176
     1
 90
        0
176
     1
290
     0
176
     1
290
     1
176
     1
290
     1
176
     1
290
     0
176
     1
290
     0
176
     1
290
     0
176
     1
290
     0
176
     1
290
     0
176
     1
290
     0
176
     1
 90
       50
176
     1
 40
0.0
176
     1
 40
1.0
176
     1
 90
        0
176
     1
 62
    18
420
        0
176
     1
 90
       50
176
     1
 90
        3
176
     1
 62
     5
420
      255
176
     1
290
     0
176
     1
 90
       50
176
     1
 90
       50
176
     1
 90
       50
176
     1
290
     0
176
     1
 90
       50
176
     1
 62
   256
176
     0
 40
1.0
176
     0
 90
        2
176
     1
  1
strokes_ogs.tif
176
     1
290
     0
176
     1
 40
1.0
176
     1
 40
1.0
176
     1
  0
VISUALSTYLE
  5
3E
102
{ACAD_REACTORS
330
2A
102
}
330
2A
100
AcDbVisualStyle
  2
Shades of Gray
 70
    23
177
     3
291
     0
 70
    58
 90
        2
176
     1
 90
        2
176
     1
 90
        3
176
     1
 90
        0
176
     1
 40
0.6
176
     1
 40
30.0
176
     1
 62
     7
420
 16777215
176
     1
 90
        2
176
     1
 90
        2
176
     1
 62
     7
176
     1
 62
     7
176
     1
 90
        1
176
     1
 90
        1
176
     1
 40
40.0
176
     1
 90
        8
176
     1
 62
     7
176
     1
 40
1.0
176
     1
 90
        1
176
     1
 90
        6
176
     1
 90
        2
176
     1
 62
     7
176
     1
 90
        3
176
     1
 90
        0
176
     1
 90
        0
176
     1
290
     0
176
     1
 90
        1
176
     1
 40
0.0
176
     1
 90
        0
176
     1
290
     0
176
     1
290
     1
176
     1
290
     1
176
     1
290
     0
176
     1
290
     0
176
     1
290
     0
176
     1
290
     0
176
     1
290
     0
176
     1
290
     0
176
     1
 90
       50
176
     1
 40
0.0
176
     1
 40
1.0
176
     1
 90
        0
176
     1
 62
    18
420
        0
176
     1
 90
       50
176
     1
 90
        3
176
     1
 62
     5
420
      255
176
     1
290
     0
176
     1
 90
       50
176
     1
 90
       50
176
     1
 90
       50
176
     1
290
     0
176
     1
 90
       50
176
     1
 62
   256
176
     0
 40
1.0
176
     0
 90
        2
176
     1
  1
strokes_ogs.tif
176
     1
290
     0
176
     1
 40
1.0
176
     1
 40
1.0
176
     1
  0
VISUALSTYLE
  5
3F
102
{ACAD_REACTORS
330
2A
102
}
330
2A
100
AcDbVisualStyle
  2
Sketchy
 70
    24
177
     3
291
     0
 70
    58
 90
        1
176
     1
 90
        2
176
     1
 90
        2
176
     1
 90
        0
176
     1
 40
0.6
176
     1
 40
30.0
176
     1
 62
     7
420
 16777215
176
     1
 90
        2
176
     1
 90
        2
176
     1
 62
     7
176
     1
 62
     7
176
     1
 90
        1
176
     1
 90
        1
176
     1
 40
40.0
176
     1
 90
       11
176
     1
 62
     7
176
     1
 40
1.0
176
     1
 90
        1
176
     1
 90
        6
176
     1
 90
        2
176
     1
 62
     7
176
     1
 90
        6
176
     1
 90
        0
176
     1
 90
        0
176
     1
290
     0
176
     1
 90
        1
176
     1
 40
0.0
176
     1
 90
        0
176
     1
290
     0
176
     1
290
     1
176
     1
290
     1
176
     1
290
     0
176
     1
290
     0
176
     1
290
     0
176
     1
290
     0
176
     1
290
     0
176
     1
290
     0
176
     1
 90
       50
176
     1
 40
0.0
176
     1
 40
1.0
176
     1
 90
        0
176
     1
 62
    18
420
        0
176
     1
 90
       50
176
     1
 90
        3
176
     1
 62
     5
420
      255
176
     1
290
     0
176
     1
 90
       50
176
     1
 90
       50
176
     1
 90
       50
176
     1
290
     0
176
     1
 90
       50
176
     1
 62
   256
176
     0
 40
1.0
176
     0
 90
        2
176
     1
  1
strokes_ogs.tif
176
     1
290
     0
176
     1
 40
1.0
176
     1
 40
1.0
176
     1
  0
VISUALSTYLE
  5
37
102
{ACAD_REACTORS
330
2A
102
}
330
2A
100
AcDbVisualStyle
  2
Thicken
 70
    13
177
     3
291
     1
 70
    58
 90
        2
176
     1
 90
        2
176
     1
 90
        0
176
     1
 90
        0
176
     1
 40
0.6
176
     1
 40
30.0
176
     1
 62
     7
420
 16777215
176
     1
 90
        1
176
     1
 90
        4
176
     1
 62
     7
176
     1
 62
   257
176
     1
 90
        1
176
     1
 90
        1
176
     1
 40
1.0
176
     1
 90
       12
176
     1
 62
     7
176
     1
 40
1.0
176
     1
 90
        1
176
     1
 90
        6
176
     1
 90
        2
176
     1
 62
     7
176
     1
 90
        5
176
     1
 90
        0
176
     1
 90
        0
176
     1
290
     0
176
     1
 90
        1
176
     1
 40
0.0
176
     1
 90
        0
176
     1
290
     0
176
     1
290
     1
176
     1
290
     1
176
     1
290
     0
176
     1
290
     0
176
     1
290
     0
176
     1
290
     0
176
     1
290
     0
176
     1
290
     0
176
     1
 90
       50
176
     1
 40
0.0
176
     1
 40
1.0
176
     1
 90
        0
176
     1
 62
    18
420
        0
176
     1
 90
       50
176
     1
 90
        3
176
     1
 62
     5
420
      255
176
     1
290
     0
176
     1
 90
       50
176
     1
 90
       50
176
     1
 90
       50
176
     1
290
     0
176
     1
 90
       50
176
     1
 62
   256
176
     0
 40
1.0
176
     0
 90
        2
176
     1
  1
strokes_ogs.tif
176
     1
290
     0
176
     1
 40
1.0
176
     1
 40
1.0
176
     1
  0
VISUALSTYLE
  5
30
102
{ACAD_REACTORS
330
2A
102
}
330
2A
100
AcDbVisualStyle
  2
Wireframe
 70
     5
177
     3
291
     0
 70
    58
 90
        0
176
     1
 90
        2
176
     1
 90
        0
176
     1
 90
        0
176
     1
 40
0.6
176
     1
 40
30.0
176
     1
 62
     7
420
 16777215
176
     1
 90
        1
176
     1
 90
        4
176
     1
 62
     7
176
     1
 62
   257
176
     1
 90
        1
176
     1
 90
        1
176
     1
 40
1.0
176
     1
 90
        0
176
     1
 62
   257
176
     1
 40
1.0
176
     1
 90
        1
176
     1
 90
        6
176
     1
 90
        2
176
     1
 62
     7
176
     1
 90
        3
176
     1
 90
        0
176
     1
 90
        0
176
     1
290
     0
176
     1
 90
        1
176
     1
 40
0.0
176
     1
 90
        0
176
     1
290
     0
176
     1
290
     1
176
     1
290
     1
176
     1
290
     0
176
     1
290
     0
176
     1
290
     0
176
     1
290
     0
176
     1
290
     0
176
     1
290
     0
176
     1
 90
       50
176
     1
 40
0.0
176
     1
 40
1.0
176
     1
 90
        0
176
     1
 62
    18
420
        0
176
     1
 90
       50
176
     1
 90
        3
176
     1
 62
     5
420
      255
176
     1
290
     0
176
     1
 90
       50
176
     1
 90
       50
176
     1
 90
       50
176
     1
290
     0
176
     1
 90
       50
176
     1
 62
   256
176
     0
 40
1.0
176
     0
 90
        2
176
     1
  1
strokes_ogs.tif
176
     1
290
     0
176
     1
 40
1.0
176
     1
 40
1.0
176
     1
  0
VISUALSTYLE
  5
40
102
{ACAD_REACTORS
330
2A
102
}
330
2A
100
AcDbVisualStyle
  2
X-Ray
 70
    25
177
     3
291
     0
 70
    58
 90
        2
176
     1
 90
        2
176
     1
 90
        1
176
     1
 90
        1
176
     1
 40
0.5
176
     1
 40
30.0
176
     1
 62
     7
420
 16777215
176
     1
 90
        1
176
     1
 90
        0
176
     1
 62
     7
176
     1
 62
   257
176
     1
 90
        1
176
     1
 90
        1
176
     1
 40
1.0
176
     1
 90
        8
176
     1
 62
     7
176
     1
 40
1.0
176
     1
 90
        1
176
     1
 90
        6
176
     1
 90
        2
176
     1
 62
     7
176
     1
 90
        3
176
     1
 90
        0
176
     1
 90
        0
176
     1
290
     0
176
     1
 90
       13
176
     1
 40
0.0
176
     1
 90
        0
176
     1
290
     0
176
     1
290
     1
176
     1
290
     1
176
     1
290
     0
176
     1
290
     0
176
     1
290
     0
176
     1
290
     0
176
     1
290
     0
176
     1
290
     0
176
     1
 90
       50
176
     1
 40
0.0
176
     1
 40
1.0
176
     1
 90
        0
176
     1
 62
    18
420
        0
176
     1
 90
       50
176
     1
 90
        3
176
     1
 62
     5
420
      255
176
     1
290
     0
176
     1
 90
       50
176
     1
 90
       50
176
     1
 90
       50
176
     1
290
     0
176
     1
 90
       50
176
     1
 62
   256
176
     0
 40
1.0
176
     0
 90
        2
176
     1
  1
strokes_ogs.tif
176
     1
290
     0
176
     1
 40
1.0
176
     1
 40
1.0
176
     1
  0
DICTIONARYVAR
  5
73
102
{ACAD_REACTORS
330
72
102
}
330
72
100
DictionaryVariables
280
     0
  1
1:1
  0
DICTIONARYVAR
  5
7B
102
{ACAD_REACTORS
330
72
102
}
330
72
100
DictionaryVariables
280
     0
  1
3.500000
  0
DICTIONARYVAR
  5
7C
102
{ACAD_REACTORS
330
72
102
}
330
72
100
DictionaryVariables
280
     0
  1
acadiso.lin
  0
DICTIONARYVAR
  5
78
102
{ACAD_REACTORS
330
72
102
}
330
72
100
DictionaryVariables
280
     0
  1
Standard
  0
DICTIONARYVAR
  5
77
102
{ACAD_REACTORS
330
72
102
}
330
72
100
DictionaryVariables
280
     0
  1
Standard
  0
DICTIONARY
  5
74
330
5A
100
AcDbDictionary
280
     1
281
     1
  3
ACAD_ROUNDTRIP_2008_TABLESTYLE_CELLSTYLEMAP
360
75
  0
CELLSTYLEMAP
  5
75
102
{ACAD_REACTORS
330
74
102
}
330
74
100
AcDbCellStyleMap
 90
        3
300
CELLSTYLE
  1
TABLEFORMAT_BEGIN
 90
        5
170
     1
 91
        0
 92
    32768
 62
   257
 93
        1
300
CONTENTFORMAT
  1
CONTENTFORMAT_BEGIN
 90
        0
 91
        0
 92
        4
 93
        0
300

 40
0.0
140
1.0
 94
        5
 62
     0
340
11
144
6.0
309
CONTENTFORMAT_END
171
     1
301
MARGIN
  1
CELLMARGIN_BEGIN
 40
1.5
 40
1.5
 40
1.5
 40
1.5
 40
1.5
 40
1.5
309
CELLMARGIN_END
 94
        6
 95
        1
302
GRIDFORMAT
  1
GRIDFORMAT_BEGIN
 90
        0
 91
        1
 62
     0
 92
       -2
340
14
 93
        0
 40
0.045
309
GRIDFORMAT_END
 95
        2
302
GRIDFORMAT
  1
GRIDFORMAT_BEGIN
 90
        0
 91
        1
 62
     0
 92
       -2
340
14
 93
        0
 40
0.045
309
GRIDFORMAT_END
 95
        4
302
GRIDFORMAT
  1
GRIDFORMAT_BEGIN
 90
        0
 91
        1
 62
     0
 92
       -2
340
14
 93
        0
 40
0.045
309
GRIDFORMAT_END
 95
        8
302
GRIDFORMAT
  1
GRIDFORMAT_BEGIN
 90
        0
 91
        1
 62
     0
 92
       -2
340
14
 93
        0
 40
0.045
309
GRIDFORMAT_END
 95
       16
302
GRIDFORMAT
  1
GRIDFORMAT_BEGIN
 90
        0
 91
        1
 62
     0
 92
       -2
340
14
 93
        0
 40
0.045
309
GRIDFORMAT_END
 95
       32
302
GRIDFORMAT
  1
GRIDFORMAT_BEGIN
 90
        0
 91
        1
 62
     0
 92
       -2
340
14
 93
        0
 40
0.045
309
GRIDFORMAT_END
309
TABLEFORMAT_END
  1
CELLSTYLE_BEGIN
 90
        1
 91
        1
300
_TITLE
309
CELLSTYLE_END
300
CELLSTYLE
  1
TABLEFORMAT_BEGIN
 90
        5
170
     1
 91
        0
 92
        0
 62
   257
 93
        1
300
CONTENTFORMAT
  1
CONTENTFORMAT_BEGIN
 90
        0
 91
        0
 92
        4
 93
        0
300

 40
0.0
140
1.0
 94
        5
 62
     0
340
11
144
4.5
309
CONTENTFORMAT_END
171
     1
301
MARGIN
  1
CELLMARGIN_BEGIN
 40
1.5
 40
1.5
 40
1.5
 40
1.5
 40
1.5
 40
1.5
309
CELLMARGIN_END
 94
        6
 95
        1
302
GRIDFORMAT
  1
GRIDFORMAT_BEGIN
 90
        0
 91
        1
 62
     0
 92
       -2
340
14
 93
        0
 40
0.045
309
GRIDFORMAT_END
 95
        2
302
GRIDFORMAT
  1
GRIDFORMAT_BEGIN
 90
        0
 91
        1
 62
     0
 92
       -2
340
14
 93
        0
 40
0.045
309
GRIDFORMAT_END
 95
        4
302
GRIDFORMAT
  1
GRIDFORMAT_BEGIN
 90
        0
 91
        1
 62
     0
 92
       -2
340
14
 93
        0
 40
0.045
309
GRIDFORMAT_END
 95
        8
302
GRIDFORMAT
  1
GRIDFORMAT_BEGIN
 90
        0
 91
        1
 62
     0
 92
       -2
340
14
 93
        0
 40
0.045
309
GRIDFORMAT_END
 95
       16
302
GRIDFORMAT
  1
GRIDFORMAT_BEGIN
 90
        0
 91
        1
 62
     0
 92
       -2
340
14
 93
        0
 40
0.045
309
GRIDFORMAT_END
 95
       32
302
GRIDFORMAT
  1
GRIDFORMAT_BEGIN
 90
        0
 91
        1
 62
     0
 92
       -2
340
14
 93
        0
 40
0.045
309
GRIDFORMAT_END
309
TABLEFORMAT_END
  1
CELLSTYLE_BEGIN
 90
        2
 91
        1
300
_HEADER
309
CELLSTYLE_END
300
CELLSTYLE
  1
TABLEFORMAT_BEGIN
 90
        5
170
     1
 91
        0
 92
        0
 62
   257
 93
        1
300
CONTENTFORMAT
  1
CONTENTFORMAT_BEGIN
 90
        0
 91
        0
 92
        4
 93
        0
300

 40
0.0
140
1.0
 94
        2
 62
     0
340
11
144
4.5
309
CONTENTFORMAT_END
171
     1
301
MARGIN
  1
CELLMARGIN_BEGIN
 40
1.5
 40
1.5
 40
1.5
 40
1.5
 40
1.5
 40
1.5
309
CELLMARGIN_END
 94
        6
 95
        1
302
GRIDFORMAT
  1
GRIDFORMAT_BEGIN
 90
        0
 91
        1
 62
     0
 92
       -2
340
14
 93
        0
 40
0.045
309
GRIDFORMAT_END
 95
        2
302
GRIDFORMAT
  1
GRIDFORMAT_BEGIN
 90
        0
 91
        1
 62
     0
 92
       -2
340
14
 93
        0
 40
0.045
309
GRIDFORMAT_END
 95
        4
302
GRIDFORMAT
  1
GRIDFORMAT_BEGIN
 90
        0
 91
        1
 62
     0
 92
       -2
340
14
 93
        0
 40
0.045
309
GRIDFORMAT_END
 95
        8
302
GRIDFORMAT
  1
GRIDFORMAT_BEGIN
 90
        0
 91
        1
 62
     0
 92
       -2
340
14
 93
        0
 40
0.045
309
GRIDFORMAT_END
 95
       16
302
GRIDFORMAT
  1
GRIDFORMAT_BEGIN
 90
        0
 91
        1
 62
     0
 92
       -2
340
14
 93
        0
 40
0.045
309
GRIDFORMAT_END
 95
       32
302
GRIDFORMAT
  1
GRIDFORMAT_BEGIN
 90
        0
 91
        1
 62
     0
 92
       -2
340
14
 93
        0
 40
0.045
309
GRIDFORMAT_END
309
TABLEFORMAT_END
  1
CELLSTYLE_BEGIN
 90
        3
 91
        2
300
_DATA
309
CELLSTYLE_END
  0
ENDSEC
  0
EOF
