  0
SECTION
  2
HEADER
  9
$ACADVER
  1
AC1032
  9
$ACADMAINTVER
 90
       55
  9
$DWGCODEPAGE
  3
ISO8859-1
  9
$LASTSAVEDBY
  1
Matteo
  9
$REQUIREDVERSIONS
160
                 0
  9
$INSBASE
 10
0.0
 20
0.0
 30
0.0
  9
$EXTMIN
 10
1.000000000000000E+20
 20
1.000000000000000E+20
 30
1.000000000000000E+20
  9
$EXTMAX
 10
-1.000000000000000E+20
 20
-1.000000000000000E+20
 30
-1.000000000000000E+20
  9
$LIMMIN
 10
0.0
 20
0.0
  9
$LIMMAX
 10
420.0
 20
297.0
  9
$ORTHOMODE
 70
     0
  9
$REGENMODE
 70
     1
  9
$FILLMODE
 70
     1
  9
$QTEXTMODE
 70
     0
  9
$MIRRTEXT
 70
     1
  9
$LTSCALE
 40
1.0
  9
$ATTMODE
 70
     1
  9
$TEXTSIZE
 40
2.5
  9
$TRACEWID
 40
1.0
  9
$TEXTSTYLE
  7
Standard
  9
$CLAYER
  8
0
  9
$CELTYPE
  6
ByLayer
  9
$CECOLOR
 62
   256
  9
$CELTSCALE
 40
1.0
  9
$DISPSILH
 70
     0
  9
$DIMSCALE
 40
1.0
  9
$DIMASZ
 40
2.5
  9
$DIMEXO
 40
0.625
  9
$DIMDLI
 40
3.75
  9
$DIMRND
 40
0.0
  9
$DIMDLE
 40
0.0
  9
$DIMEXE
 40
1.25
  9
$DIMTP
 40
0.0
  9
$DIMTM
 40
0.0
  9
$DIMTXT
 40
2.5
  9
$DIMCEN
 40
2.5
  9
$DIMTSZ
 40
0.0
  9
$DIMTOL
 70
     0
  9
$DIMLIM
 70
     0
  9
$DIMTIH
 70
     0
  9
$DIMTOH
 70
     0
  9
$DIMSE1
 70
     0
  9
$DIMSE2
 70
     0
  9
$DIMTAD
 70
     1
  9
$DIMZIN
 70
     8
  9
$DIMBLK
  1

  9
$DIMASO
 70
     1
  9
$DIMSHO
 70
     1
  9
$DIMPOST
  1

  9
$DIMAPOST
  1

  9
$DIMALT
 70
     0
  9
$DIMALTD
 70
     3
  9
$DIMALTF
 40
0.03937007874016
  9
$DIMLFAC
 40
1.0
  9
$DIMTOFL
 70
     1
  9
$DIMTVP
 40
0.0
  9
$DIMTIX
 70
     0
  9
$DIMSOXD
 70
     0
  9
$DIMSAH
 70
     0
  9
$DIMBLK1
  1

  9
$DIMBLK2
  1

  9
$DIMSTYLE
  2
ISO-25
  9
$DIMCLRD
 70
     0
  9
$DIMCLRE
 70
     0
  9
$DIMCLRT
 70
     0
  9
$DIMTFAC
 40
1.0
  9
$DIMGAP
 40
0.625
  9
$DIMJUST
 70
     0
  9
$DIMSD1
 70
     0
  9
$DIMSD2
 70
     0
  9
$DIMTOLJ
 70
     0
  9
$DIMTZIN
 70
     8
  9
$DIMALTZ
 70
     0
  9
$DIMALTTZ
 70
     0
  9
$DIMUPT
 70
     0
  9
$DIMDEC
 70
     2
  9
$DIMTDEC
 70
     2
  9
$DIMALTU
 70
     2
  9
$DIMALTTD
 70
     3
  9
$DIMTXSTY
  7
Standard
  9
$DIMAUNIT
 70
     0
  9
$DIMADEC
 70
     0
  9
$DIMALTRND
 40
0.0
  9
$DIMAZIN
 70
     0
  9
$DIMDSEP
 70
    44
  9
$DIMATFIT
 70
     3
  9
$DIMFRAC
 70
     0
  9
$DIMLDRBLK
  1

  9
$DIMLUNIT
 70
     2
  9
$DIMLWD
 70
    -2
  9
$DIMLWE
 70
    -2
  9
$DIMTMOVE
 70
     0
  9
$DIMFXL
 40
1.0
  9
$DIMFXLON
 70
     0
  9
$DIMJOGANG
 40
0.7853981633974483
  9
$DIMTFILL
 70
     0
  9
$DIMTFILLCLR
 70
     0
  9
$DIMARCSYM
 70
     0
  9
$DIMLTYPE
  6

  9
$DIMLTEX1
  6

  9
$DIMLTEX2
  6

  9
$DIMTXTDIRECTION
 70
     0
  9
$LUNITS
 70
     2
  9
$LUPREC
 70
     4
  9
$SKETCHINC
 40
1.0
  9
$FILLETRAD
 40
0.0
  9
$AUNITS
 70
     0
  9
$AUPREC
 70
     0
  9
$MENU
  1
.
  9
$ELEVATION
 40
0.0
  9
$PELEVATION
 40
0.0
  9
$THICKNESS
 40
0.0
  9
$LIMCHECK
 70
     0
  9
$CHAMFERA
 40
0.0
  9
$CHAMFERB
 40
0.0
  9
$CHAMFERC
 40
0.0
  9
$CHAMFERD
 40
0.0
  9
$SKPOLY
 70
     0
  9
$TDCREATE
 40
2460697.968901146
  9
$TDUCREATE
 40
2460697.635567813
  9
$TDUPDATE
 40
2460697.968901169
  9
$TDUUPDATE
 40
2460697.635567836
  9
$TDINDWG
 40
0.0000000116
  9
$TDUSRTIMER
 40
0.0000000116
  9
$USRTIMER
 70
     1
  9
$ANGBASE
 50
0.0
  9
$ANGDIR
 70
     0
  9
$PDMODE
 70
     0
  9
$PDSIZE
 40
0.0
  9
$PLINEWID
 40
0.0
  9
$SPLFRAME
 70
     0
  9
$SPLINETYPE
 70
     6
  9
$SPLINESEGS
 70
     8
  9
$HANDSEED
  5
C1
  9
$SURFTAB1
 70
     6
  9
$SURFTAB2
 70
     6
  9
$SURFTYPE
 70
     6
  9
$SURFU
 70
     6
  9
$SURFV
 70
     6
  9
$UCSBASE
  2

  9
$UCSNAME
  2

  9
$UCSORG
 10
0.0
 20
0.0
 30
0.0
  9
$UCSXDIR
 10
1.0
 20
0.0
 30
0.0
  9
$UCSYDIR
 10
0.0
 20
1.0
 30
0.0
  9
$UCSORTHOREF
  2

  9
$UCSORTHOVIEW
 70
     0
  9
$UCSORGTOP
 10
0.0
 20
0.0
 30
0.0
  9
$UCSORGBOTTOM
 10
0.0
 20
0.0
 30
0.0
  9
$UCSORGLEFT
 10
0.0
 20
0.0
 30
0.0
  9
$UCSORGRIGHT
 10
0.0
 20
0.0
 30
0.0
  9
$UCSORGFRONT
 10
0.0
 20
0.0
 30
0.0
  9
$UCSORGBACK
 10
0.0
 20
0.0
 30
0.0
  9
$PUCSBASE
  2

  9
$PUCSNAME
  2

  9
$PUCSORG
 10
0.0
 20
0.0
 30
0.0
  9
$PUCSXDIR
 10
1.0
 20
0.0
 30
0.0
  9
$PUCSYDIR
 10
0.0
 20
1.0
 30
0.0
  9
$PUCSORTHOREF
  2

  9
$PUCSORTHOVIEW
 70
     0
  9
$PUCSORGTOP
 10
0.0
 20
0.0
 30
0.0
  9
$PUCSORGBOTTOM
 10
0.0
 20
0.0
 30
0.0
  9
$PUCSORGLEFT
 10
0.0
 20
0.0
 30
0.0
  9
$PUCSORGRIGHT
 10
0.0
 20
0.0
 30
0.0
  9
$PUCSORGFRONT
 10
0.0
 20
0.0
 30
0.0
  9
$PUCSORGBACK
 10
0.0
 20
0.0
 30
0.0
  9
$USERI1
 70
     0
  9
$USERI2
 70
     0
  9
$USERI3
 70
     0
  9
$USERI4
 70
     0
  9
$USERI5
 70
     0
  9
$USERR1
 40
0.0
  9
$USERR2
 40
0.0
  9
$USERR3
 40
0.0
  9
$USERR4
 40
0.0
  9
$USERR5
 40
0.0
  9
$WORLDVIEW
 70
     1
  9
$SHADEDGE
 70
     3
  9
$SHADEDIF
 70
    70
  9
$TILEMODE
 70
     1
  9
$MAXACTVP
 70
    64
  9
$PINSBASE
 10
0.0
 20
0.0
 30
0.0
  9
$PLIMCHECK
 70
     0
  9
$PEXTMIN
 10
300.0
 20
400.0
 30
0.0
  9
$PEXTMAX
 10
0.0
 20
0.0
 30
0.0
  9
$PLIMMIN
 10
-20.0
 20
-7.5
  9
$PLIMMAX
 10
277.0
 20
202.5
  9
$UNITMODE
 70
     0
  9
$VISRETAIN
 70
     1
  9
$PLINEGEN
 70
     0
  9
$PSLTSCALE
 70
     1
  9
$TREEDEPTH
 70
  3020
  9
$CMLSTYLE
  2
Standard
  9
$CMLJUST
 70
     0
  9
$CMLSCALE
 40
20.0
  9
$PROXYGRAPHICS
 70
     1
  9
$MEASUREMENT
 70
     1
  9
$CELWEIGHT
370
    -1
  9
$ENDCAPS
280
     0
  9
$JOINSTYLE
280
     0
  9
$LWDISPLAY
290
     0
  9
$INSUNITS
 70
     4
  9
$HYPERLINKBASE
  1

  9
$STYLESHEET
  1

  9
$XEDIT
290
     1
  9
$CEPSNTYPE
380
     0
  9
$PSTYLEMODE
290
     1
  9
$FINGERPRINTGUID
  2
{2c2da50b-aca1-4deb-925c-cc043453b544}
  9
$VERSIONGUID
  2
{FAEB1C32-E019-11D5-929B-00C0DF256EC4}
  9
$EXTNAMES
290
     1
  9
$PSVPSCALE
 40
0.0
  9
$OLESTARTUP
290
     0
  9
$SORTENTS
280
   127
  9
$INDEXCTL
280
     0
  9
$HIDETEXT
280
     1
  9
$XCLIPFRAME
280
     2
  9
$HALOGAP
280
     0
  9
$OBSCOLOR
 70
   257
  9
$OBSLTYPE
280
     0
  9
$INTERSECTIONDISPLAY
280
     0
  9
$INTERSECTIONCOLOR
 70
   257
  9
$DIMASSOC
280
     2
  9
$PROJECTNAME
  1

  9
$CAMERADISPLAY
290
     0
  9
$LENSLENGTH
 40
50.0
  9
$CAMERAHEIGHT
 40
0.0
  9
$STEPSPERSEC
 40
2.0
  9
$STEPSIZE
 40
6.0
  9
$3DDWFPREC
 40
2.0
  9
$PSOLWIDTH
 40
5.0
  9
$PSOLHEIGHT
 40
80.0
  9
$LOFTANG1
 40
1.570796326794897
  9
$LOFTANG2
 40
1.570796326794897
  9
$LOFTMAG1
 40
0.0
  9
$LOFTMAG2
 40
0.0
  9
$LOFTPARAM
 70
     7
  9
$LOFTNORMALS
280
     1
  9
$LATITUDE
 40
37.795
  9
$LONGITUDE
 40
-122.394
  9
$NORTHDIRECTION
 40
0.0
  9
$TIMEZONE
 70
 -8000
  9
$LIGHTGLYPHDISPLAY
280
     1
  9
$TILEMODELIGHTSYNCH
280
     1
  9
$CMATERIAL
347
44
  9
$SOLIDHIST
280
     0
  9
$SHOWHIST
280
     1
  9
$DWFFRAME
280
     2
  9
$DGNFRAME
280
     2
  9
$REALWORLDSCALE
290
     1
  9
$INTERFERECOLOR
 62
   256
  9
$CSHADOW
280
     0
  9
$SHADOWPLANELOCATION
 40
0.0
  0
ENDSEC
  0
SECTION
  2
CLASSES
  0
CLASS
  1
ACDBDICTIONARYWDFLT
  2
AcDbDictionaryWithDefault
  3
ObjectDBX Classes
 90
        0
 91
        3
280
     0
281
     0
  0
CLASS
  1
VISUALSTYLE
  2
AcDbVisualStyle
  3
ObjectDBX Classes
 90
     4095
 91
        3
280
     0
281
     0
  0
CLASS
  1
MATERIAL
  2
AcDbMaterial
  3
ObjectDBX Classes
 90
     1153
 91
        3
280
     0
281
     0
  0
CLASS
  1
SCALE
  2
AcDbScale
  3
ObjectDBX Classes
 90
     1153
 91
        3
280
     0
281
     0
  0
CLASS
  1
TABLESTYLE
  2
AcDbTableStyle
  3
ObjectDBX Classes
 90
     4095
 91
        3
280
     0
281
     0
  0
CLASS
  1
MLEADERSTYLE
  2
AcDbMLeaderStyle
  3
ACDB_MLEADERSTYLE_CLASS
 90
     4095
 91
        3
280
     0
281
     0
  0
CLASS
  1
SUN
  2
AcDbSun
  3
SCENEOE
 90
     1153
 91
        3
280
     0
281
     0
  0
CLASS
  1
DICTIONARYVAR
  2
AcDbDictionaryVar
  3
ObjectDBX Classes
 90
        0
 91
        3
280
     0
281
     0
  0
CLASS
  1
CELLSTYLEMAP
  2
AcDbCellStyleMap
  3
ObjectDBX Classes
 90
     1152
 91
        3
280
     0
281
     0
  0
ENDSEC
  0
SECTION
  2
TABLES
  0
TABLE
  2
VPORT
  5
8
330
0
100
AcDbSymbolTable
 70
     1
  0
VPORT
  5
29
330
8
100
AcDbSymbolTableRecord
100
AcDbViewportTableRecord
  2
*Active
 70
     0
 10
0.0
 20
0.0
 11
1.0
 21
1.0
 12
200.0
 22
150.0
 13
0.0
 23
0.0
 14
10.0
 24
10.0
 15
10.0
 25
10.0
 16
0.0
 26
0.0
 36
1.0
 17
0.0
 27
0.0
 37
0.0
 40
300.0
 41
1.972972972850329
 42
50.0
 43
0.0
 44
0.0
 50
0.0
 51
0.0
 71
     0
 72
   100
 73
     1
 74
     3
 75
     0
 76
     0
 77
     0
 78
     0
281
     0
 65
     1
110
0.0
120
0.0
130
0.0
111
1.0
121
0.0
131
0.0
112
0.0
122
1.0
132
0.0
 79
     0
146
0.0
348
2F
 60
     3
 61
     5
292
     1
282
     1
141
0.0
142
0.0
 63
   250
361
5D
  0
ENDTAB
  0
TABLE
  2
LTYPE
  5
5
330
0
100
AcDbSymbolTable
 70
     1
  0
LTYPE
  5
14
330
5
100
AcDbSymbolTableRecord
100
AcDbLinetypeTableRecord
  2
ByBlock
 70
     0
  3

 72
    65
 73
     0
 40
0.0
  0
LTYPE
  5
15
330
5
100
AcDbSymbolTableRecord
100
AcDbLinetypeTableRecord
  2
ByLayer
 70
     0
  3

 72
    65
 73
     0
 40
0.0
  0
LTYPE
  5
16
330
5
100
AcDbSymbolTableRecord
100
AcDbLinetypeTableRecord
  2
Continuous
 70
     0
  3
Solid line
 72
    65
 73
     0
 40
0.0
  0
ENDTAB
  0
TABLE
  2
LAYER
  5
2
330
0
100
AcDbSymbolTable
 70
     1
  0
LAYER
  5
10
330
2
100
AcDbSymbolTableRecord
100
AcDbLayerTableRecord
  2
0
 70
     0
 62
     7
  6
Continuous
370
    -3
390
F
347
46
348
0
  0
ENDTAB
  0
TABLE
  2
STYLE
  5
3
330
0
100
AcDbSymbolTable
 70
     1
  0
STYLE
  5
11
330
3
100
AcDbSymbolTableRecord
100
AcDbTextStyleTableRecord
  2
Standard
 70
     0
 40
0.0
 41
1.0
 50
0.0
 71
     0
 42
2.5
  3
txt
  4

  0
ENDTAB
  0
TABLE
  2
VIEW
  5
6
330
0
100
AcDbSymbolTable
 70
     0
  0
ENDTAB
  0
TABLE
  2
UCS
  5
7
330
0
100
AcDbSymbolTable
 70
     0
  0
ENDTAB
  0
TABLE
  2
APPID
  5
9
330
0
100
AcDbSymbolTable
 70
     1
  0
APPID
  5
12
330
9
100
AcDbSymbolTableRecord
100
AcDbRegAppTableRecord
  2
ACAD
 70
     0
  0
ENDTAB
  0
TABLE
  2
DIMSTYLE
  5
A
330
0
100
AcDbSymbolTable
 70
     1
100
AcDbDimStyleTable
  0
DIMSTYLE
105
27
330
A
100
AcDbSymbolTableRecord
100
AcDbDimStyleTableRecord
  2
ISO-25
 70
     0
 41
2.5
 42
0.625
 43
3.75
 44
1.25
 73
     0
 74
     0
 77
     1
 78
     8
140
2.5
141
2.5
143
0.03937007874016
147
0.625
171
     3
172
     1
178
     0
271
     2
272
     2
274
     3
278
    44
283
     0
284
     8
340
11
  0
ENDTAB
  0
TABLE
  2
BLOCK_RECORD
  5
1
330
0
100
AcDbSymbolTable
 70
     0
  0
BLOCK_RECORD
  5
1F
330
1
100
AcDbSymbolTableRecord
100
AcDbBlockTableRecord
  2
*Model_Space
340
22
 70
     0
280
     1
281
     0
  0
BLOCK_RECORD
  5
AE
330
1
100
AcDbSymbolTableRecord
100
AcDbBlockTableRecord
  2
*Paper_Space
340
AF
 70
     0
280
     1
281
     0
  0
ENDTAB
  0
ENDSEC
  0
SECTION
  2
BLOCKS
  0
BLOCK
  5
20
330
1F
100
AcDbEntity
  8
0
100
AcDbBlockBegin
  2
*Model_Space
 70
     0
 10
0.0
 20
0.0
 30
0.0
  3
*Model_Space
  1

  0
ENDBLK
  5
21
330
1F
100
AcDbEntity
  8
0
100
AcDbBlockEnd
  0
BLOCK
  5
B0
330
AE
100
AcDbEntity
 67
     1
  8
0
100
AcDbBlockBegin
  2
*Paper_Space
 70
     0
 10
0.0
 20
0.0
 30
0.0
  3
*Paper_Space
  1

  0
ENDBLK
  5
B1
330
AE
100
AcDbEntity
 67
     1
  8
0
100
AcDbBlockEnd
  0
ENDSEC
  0
SECTION
  2
ENTITIES
  0
LWPOLYLINE
  5
5E
330
1F
100
AcDbEntity
  8
0
  6
Continuous
 62
    18
420
        0
370
     9
100
AcDbPolyline
 90
       21
 70
     1
 43
0.0
 10
183.6594966371986
 20
90.12286367821767
 10
183.8624555809557
 20
89.34887616724026
 10
178.2522518231426
 20
87.87709398368872
 10
178.0492928793855
 20
88.6510814946661
 10
175.0504529833799
 20
87.86451663521353
 10
175.2534119271371
 20
87.09052912423616
 10
174.28616867777
 20
86.83676447627724
 10
177.8388737491944
 20
73.29535898513734
 10
178.8061169985615
 20
73.5491236330962
 10
179.0090759423186
 20
72.7751361221188
 10
182.0079158383242
 20
73.56170098157136
 10
181.804956894567
 20
74.33568849254877
 10
187.41542452543
 20
75.80843523351876
 10
187.6181195961372
 20
75.0334831651229
 10
190.6162588077743
 20
75.82127645504391
 10
190.4130359909671
 20
76.59429940860281
 10
191.3802792403343
 20
76.84806405656173
 10
187.8275741689099
 20
90.38946954770168
 10
186.8603309195427
 20
90.13570489974276
 10
186.6573719757856
 20
90.9096924107202
 10
183.6594966371986
 20
90.12286367821767
  0
LWPOLYLINE
  5
5F
330
1F
100
AcDbEntity
  8
0
  6
Continuous
 62
    18
420
        0
370
     9
100
AcDbPolyline
 90
       21
 70
     1
 43
0.0
 10
176.2132939498294
 20
110.7528975497026
 10
175.8164427242127
 20
111.4472246374117
 10
173.1237231374292
 20
109.9113245016763
 10
173.5205743630458
 20
109.2169974139672
 10
168.4827810120424
 20
106.3434908187798
 10
168.0859297864257
 20
107.0378179064888
 10
165.3932101996421
 20
105.5019177707535
 10
165.7900614252588
 20
104.8075906830444
 10
164.9212972110336
 20
104.3112422771017
 10
171.8573717747402
 20
92.15100907018083
 10
172.7258721159153
 20
92.64639291870498
 10
173.1224594684821
 20
91.95110127357745
 10
175.8151790552656
 20
93.48700140931282
 10
175.418591702699
 20
94.18229305444038
 10
180.4563850537023
 20
97.05579964962777
 10
180.8532362793191
 20
96.36147256191873
 10
183.5459558661026
 20
97.89737269765413
 10
183.1500691979044
 20
98.59143591231322
 10
184.0185695390796
 20
99.08681976083733
 10
177.0817942910046
 20
111.2482813982268
 10
176.2132939498294
 20
110.7528975497026
  0
LWPOLYLINE
  5
60
330
1F
100
AcDbEntity
  8
0
  6
Continuous
 62
    18
420
        0
370
     9
100
AcDbPolyline
 90
       21
 70
     1
 43
0.0
 10
155.5240214145185
 20
126.7719972422456
 10
154.8330402513934
 20
127.1756344954896
 10
153.269429290194
 20
124.4993757706991
 10
153.9594458959006
 20
124.0960023905051
 10
151.0331645118394
 20
119.0876606228841
 10
150.3421833487144
 20
119.4912978761281
 10
148.7785723875149
 20
116.8150391513376
 10
149.4695535506399
 20
116.4114018980936
 10
148.9648318129928
 20
115.5479825518045
 10
161.0522658497231
 20
108.4840712126316
 10
161.5569875873702
 20
109.3474905589209
 10
162.2479687504952
 20
108.9438533056768
 10
163.8118435847447
 20
111.6210765878857
 10
163.1208624216196
 20
112.0247138411297
 10
166.0468799326308
 20
117.0320910513323
 10
166.7378610957559
 20
116.6284537980883
 10
168.3014720569554
 20
119.3047125228787
 10
167.6114554512488
 20
119.7080859030728
 10
168.1152126314774
 20
120.5717691224119
 10
156.0277785947472
 20
127.6356804615847
 10
155.5240214145185
 20
126.7719972422456
  0
LWPOLYLINE
  5
61
330
1F
100
AcDbEntity
  8
0
  6
Continuous
 62
    18
420
        0
370
     9
100
AcDbPolyline
 90
       21
 70
     1
 43
0.0
 10
134.0708549724454
 20
134.4241207128065
 10
133.80698192248
 20
133.4595632943487
 10
133.0353359877138
 20
133.670661734321
 10
132.2173295328211
 20
130.6805337371019
 10
132.9889754675874
 20
130.4694352971295
 10
131.4585117777882
 20
124.8750022700743
 10
130.686865843022
 20
125.0861007100466
 10
129.8688593881293
 20
122.0959727128275
 10
130.6405053228956
 20
121.8848742728551
 10
130.3766322729302
 20
120.9203168543973
 10
143.8804361313394
 20
117.2260941548821
 10
144.1443091813047
 20
118.1906515733399
 10
144.915955116071
 20
117.9795531333676
 10
145.7339615709636
 20
120.9696811305868
 10
144.9623156361974
 20
121.1807795705591
 10
146.4927793259966
 20
126.7752125976143
 10
147.2644252607628
 20
126.5641141576421
 10
148.0824317156554
 20
129.5542421548612
 10
147.3107857808892
 20
129.7653405948335
 10
147.5746588308546
 20
130.7298980132913
 10
134.0708549724454
 20
134.4241207128065
  0
LWPOLYLINE
  5
62
330
1F
100
AcDbEntity
  8
0
  6
Continuous
 62
    18
420
        0
370
     9
100
AcDbPolyline
 90
       21
 70
     1
 43
0.0
 10
88.76208965036031
 20
149.2876859307554
 10
88.49821660039494
 20
148.3231285122976
 10
87.7265706656287
 20
148.5342269522699
 10
86.90856421073607
 20
145.5440989550507
 10
87.6802101455023
 20
145.3330005150784
 10
86.14974645570314
 20
139.7385674880232
 10
85.37810052093688
 20
139.9496659279955
 10
84.56009406604424
 20
136.9595379307763
 10
85.33174000081047
 20
136.748439490804
 10
85.0678669508451
 20
135.7838820723462
 10
98.57167080925429
 20
132.089659372831
 10
98.83554385921965
 20
133.0542167912888
 10
99.6071897939859
 20
132.8431183513165
 10
100.4251962488785
 20
135.8332463485357
 10
99.65355031411231
 20
136.044344788508
 10
101.1840140039115
 20
141.6387778155632
 10
101.9556599386777
 20
141.4276793755909
 10
102.7736663935704
 20
144.4178073728101
 10
102.0020204588041
 20
144.6289058127824
 10
102.2658935087695
 20
145.5934632312402
 10
88.76208965036031
 20
149.2876859307554
  0
LWPOLYLINE
  5
63
330
1F
100
AcDbEntity
  8
0
  6
Continuous
 62
    18
420
        0
370
     9
100
AcDbPolyline
 90
       21
 70
     1
 43
0.0
 10
107.7651902039489
 20
146.5575155422631
 10
107.5013171539836
 20
145.5929581238053
 10
106.7296712192173
 20
145.8040565637776
 10
105.9119286373746
 20
142.8148931239769
 10
106.6835745721409
 20
142.6037946840046
 10
105.1528470092917
 20
137.0083970995309
 10
104.3812010745255
 20
137.2194955395032
 10
103.5631946196329
 20
134.229367542284
 10
104.3348405543991
 20
134.0182691023117
 10
104.0709675044337
 20
133.0537116838539
 10
117.5747713628429
 20
129.3594889843387
 10
117.8386444128083
 20
130.3240464027965
 10
118.6102903475745
 20
130.1129479628242
 10
119.4282968024672
 20
133.1030759600434
 10
118.6566508677009
 20
133.3141744000156
 10
120.18737843055
 20
138.9095719844893
 10
120.9590243653163
 20
138.698473544517
 10
121.776766947159
 20
141.6876369843178
 10
121.0051210123927
 20
141.89873542429
 10
121.2689940623581
 20
142.8632928427479
 10
107.7651902039489
 20
146.5575155422631
  0
LWPOLYLINE
  5
64
330
1F
100
AcDbEntity
  8
0
  6
Continuous
 62
    18
420
        0
370
     9
100
AcDbPolyline
 90
       21
 70
     1
 43
0.0
 10
55.78267014502346
 20
173.1228455293611
 10
55.51879709505808
 20
172.1582881109034
 10
54.74715116029185
 20
172.3693865508757
 10
53.9291447053992
 20
169.3792585536565
 10
54.70079064016544
 20
169.1681601136842
 10
53.17032695036627
 20
163.5737270866289
 10
52.39868101560003
 20
163.7848255266013
 10
51.58067456070738
 20
160.7946975293821
 10
52.35232049547361
 20
160.5835990894097
 10
52.08844744550824
 20
159.619041670952
 10
65.59225130391741
 20
155.9248189714367
 10
65.85612435388278
 20
156.8893763898945
 10
66.62777028864902
 20
156.6782779499222
 10
67.44577674354169
 20
159.6684059471414
 10
66.67413080877544
 20
159.8795043871137
 10
68.20459449857461
 20
165.473937414169
 10
68.97624043334083
 20
165.2628389741967
 10
69.7942468882335
 20
168.2529669714158
 10
69.02260095346726
 20
168.4640654113881
 10
69.28647400343263
 20
169.4286228298459
 10
55.78267014502346
 20
173.1228455293611
  0
LWPOLYLINE
  5
65
330
1F
100
AcDbEntity
  8
0
  6
Continuous
 62
    18
420
        0
370
     9
100
AcDbPolyline
 90
       21
 70
     1
 43
0.0
 10
74.15748896664451
 20
168.0960639275208
 10
73.89361591667914
 20
167.131506509063
 10
73.1219699819129
 20
167.3426049490353
 10
72.30396352702024
 20
164.3524769518161
 10
73.07560946178648
 20
164.1413785118438
 10
71.54514577198732
 20
158.5469454847886
 10
70.77349983722108
 20
158.7580439247609
 10
69.95549338232843
 20
155.7679159275417
 10
70.72713931709465
 20
155.5568174875694
 10
70.46326626712928
 20
154.5922600691116
 10
83.96707012553847
 20
150.8980373695964
 10
84.23094317550385
 20
151.8625947880542
 10
85.00258911027008
 20
151.6514963480819
 10
85.82059556516275
 20
154.6416243453011
 10
85.04894963039649
 20
154.8527227852734
 10
86.57941332019567
 20
160.4471558123286
 10
87.35105925496191
 20
160.2360573723563
 10
88.16906570985455
 20
163.2261853695755
 10
87.39741977508832
 20
163.4372838095478
 10
87.66129282505369
 20
164.4018412280055
 10
74.15748896664451
 20
168.0960639275208
  0
LWPOLYLINE
  5
66
330
1F
100
AcDbEntity
  8
0
  6
Continuous
 62
    18
420
        0
370
     9
100
AcDbPolyline
 90
       21
 70
     1
 43
0.0
 10
148.2850459850963
 20
150.2855487335074
 10
148.0211729351309
 20
149.3209913150496
 10
147.2495270003647
 20
149.5320897550219
 10
146.431520545472
 20
146.5419617578027
 10
147.2031664802383
 20
146.3308633178304
 10
145.6727027904391
 20
140.7364302907752
 10
144.9010568556729
 20
140.9475287307475
 10
144.0830504007802
 20
137.9574007335283
 10
144.8546963355464
 20
137.746302293556
 10
144.5908232855811
 20
136.7817448750982
 10
158.0946271439902
 20
133.087522175583
 10
158.3585001939556
 20
134.0520795940408
 10
159.1301461287219
 20
133.8409811540685
 10
159.9481525836145
 20
136.8311091512876
 10
159.1765066488483
 20
137.04220759126
 10
160.7069703386474
 20
142.6366406183152
 10
161.4786162734137
 20
142.4255421783429
 10
162.2966227283063
 20
145.4156701755621
 10
161.5249767935401
 20
145.6267686155344
 10
161.7888498435055
 20
146.5913260339921
 10
148.2850459850963
 20
150.2855487335074
  0
LWPOLYLINE
  5
67
330
1F
100
AcDbEntity
  8
0
  6
Continuous
 62
    18
420
        0
370
     9
100
AcDbPolyline
 90
       21
 70
     1
 43
0.0
 10
93.78887125220068
 20
167.6625047523765
 10
93.52499820223531
 20
166.6979473339186
 10
92.75335226746907
 20
166.909045773891
 10
91.93534581257641
 20
163.9189177766718
 10
92.70699174734264
 20
163.7078193366995
 10
91.17652805754348
 20
158.1133863096443
 10
90.40488212277724
 20
158.3244847496166
 10
89.58687566788458
 20
155.3343567523974
 10
90.35852160265082
 20
155.1232583124251
 10
90.09464855268544
 20
154.1587008939673
 10
103.5984524110946
 20
150.4644781944521
 10
103.86232546106
 20
151.4290356129099
 10
104.6339713958263
 20
151.2179371729376
 10
105.4519778507189
 20
154.2080651701567
 10
104.6803319159526
 20
154.419163610129
 10
106.2107956057518
 20
160.0135966371843
 10
106.9824415405181
 20
159.802498197212
 10
107.8004479954107
 20
162.7926261944312
 10
107.0288020606445
 20
163.0037246344035
 10
107.2926751106098
 20
163.9682820528613
 10
93.78887125220068
 20
167.6625047523765
  0
LWPOLYLINE
  5
68
330
1F
100
AcDbEntity
  8
0
  6
Continuous
 62
    18
420
        0
370
     9
100
AcDbPolyline
 90
       21
 70
     1
 43
0.0
 10
130.5385088954428
 20
157.6089415486958
 10
130.2746358454774
 20
156.644384130238
 10
129.5029899107112
 20
156.8554825702103
 10
128.6849834558185
 20
153.8653545729911
 10
129.4566293905848
 20
153.6542561330188
 10
127.9261657007856
 20
148.0598231059635
 10
127.1545197660193
 20
148.2709215459358
 10
126.3365133111267
 20
145.2807935487167
 10
127.1081592458929
 20
145.0696951087444
 10
126.8442861959276
 20
144.1051376902866
 10
140.3480900543368
 20
140.4109149907714
 10
140.6119631043021
 20
141.3754724092292
 10
141.3836090390683
 20
141.1643739692569
 10
142.201615493961
 20
144.154501966476
 10
141.4299695591947
 20
144.3656004064484
 10
142.960433248994
 20
149.9600334335036
 10
143.7320791837602
 20
149.7489349935313
 10
144.5500856386528
 20
152.7390629907504
 10
143.7784397038866
 20
152.9501614307227
 10
144.0423127538519
 20
153.9147188491805
 10
130.5385088954428
 20
157.6089415486958
  0
LWPOLYLINE
  5
69
330
1F
100
AcDbEntity
  8
0
  6
Continuous
 62
    18
420
        0
370
     9
100
AcDbPolyline
 90
       21
 70
     1
 43
0.0
 10
112.7919718057893
 20
164.9323343638841
 10
112.5280987558239
 20
163.9677769454263
 10
111.7564528210577
 20
164.1788753853986
 10
110.938446366165
 20
161.1887473881795
 10
111.7100923009313
 20
160.9776489482071
 10
110.1796286111321
 20
155.3832159211519
 10
109.4079826763659
 20
155.5943143611242
 10
108.5899762214732
 20
152.6041863639051
 10
109.3616221562394
 20
152.3930879239327
 10
109.0977491062741
 20
151.428530505475
 10
122.6015529646832
 20
147.7343078059598
 10
122.8654260146486
 20
148.6988652244175
 10
123.6370719494148
 20
148.4877667844452
 10
124.4550784043075
 20
151.4778947816644
 10
123.6834324695413
 20
151.6889932216367
 10
125.2138961593404
 20
157.2834262486919
 10
125.9855420941067
 20
157.0723278087196
 10
126.8035485489993
 20
160.0624558059388
 10
126.0319026142331
 20
160.2735542459111
 10
126.2957756641985
 20
161.2381116643689
 10
112.7919718057893
 20
164.9323343638841
  0
LWPOLYLINE
  5
6A
330
1F
100
AcDbEntity
  8
0
  6
Continuous
 62
    18
420
        0
370
     9
100
AcDbPolyline
 90
       21
 70
     1
 43
0.0
 10
60.80945174686381
 20
191.4976643509822
 10
60.54557869689844
 20
190.5331069325244
 10
59.7739327621322
 20
190.7442053724967
 10
58.95592630723955
 20
187.7540773752775
 10
59.72757224200579
 20
187.5429789353052
 10
58.19710855220662
 20
181.94854590825
 10
57.42546261744038
 20
182.1596443482223
 10
56.60745616254772
 20
179.1695163510031
 10
57.37910209731397
 20
178.9584179110308
 10
57.11522904734859
 20
177.993860492573
 10
70.61903290575778
 20
174.2996377930578
 10
70.88290595572313
 20
175.2641952115156
 10
71.65455189048937
 20
175.0530967715433
 10
72.47255834538204
 20
178.0432247687625
 10
71.7009124106158
 20
178.2543232087348
 10
73.23137610041496
 20
183.84875623579
 10
74.00302203518119
 20
183.6376577958177
 10
74.82102849007384
 20
186.6277857930369
 10
74.04938255530762
 20
186.8388842330092
 10
74.31325560527299
 20
187.803441651467
 10
60.80945174686381
 20
191.4976643509822
  0
LWPOLYLINE
  5
6B
330
1F
100
AcDbEntity
  8
0
  6
Continuous
 62
    18
420
        0
370
     9
100
AcDbPolyline
 90
       21
 70
     1
 43
0.0
 10
79.18427056848488
 20
186.4708827491418
 10
78.9203975185195
 20
185.506325330684
 10
78.14875158375325
 20
185.7174237706564
 10
77.3307451288606
 20
182.7272957734372
 10
78.10239106362684
 20
182.5161973334649
 10
76.57192737382768
 20
176.9217643064096
 10
75.80028143906144
 20
177.1328627463819
 10
74.98227498416878
 20
174.1427347491627
 10
75.75392091893502
 20
173.9316363091905
 10
75.49004786896964
 20
172.9670788907326
 10
88.99385172737882
 20
169.2728561912174
 10
89.2577247773442
 20
170.2374136096753
 10
90.02937071211043
 20
170.0263151697029
 10
90.84737716700309
 20
173.0164431669221
 10
90.07573123223686
 20
173.2275416068944
 10
91.60619492203602
 20
178.8219746339497
 10
92.37784085680227
 20
178.6108761939773
 10
93.1958473116949
 20
181.6010041911965
 10
92.42420137692868
 20
181.8121026311688
 10
92.68807442689406
 20
182.7766600496266
 10
79.18427056848488
 20
186.4708827491418
  0
LWPOLYLINE
  5
6C
330
1F
100
AcDbEntity
  8
0
  6
Continuous
 62
    18
420
        0
370
     9
100
AcDbPolyline
 90
       21
 70
     1
 43
0.0
 10
153.3118275869367
 20
168.6603675551284
 10
153.0479545369713
 20
167.6958101366706
 10
152.276308602205
 20
167.906908576643
 10
151.4583021473124
 20
164.9167805794238
 10
152.2299480820786
 20
164.7056821394515
 10
150.6994843922795
 20
159.1112491123962
 10
149.9278384575132
 20
159.3223475523685
 10
149.1098320026205
 20
156.3322195551494
 10
149.8814779373868
 20
156.1211211151771
 10
149.6176048874214
 20
155.1565636967192
 10
163.1214087458306
 20
151.4623409972041
 10
163.385281795796
 20
152.4268984156619
 10
164.1569277305622
 20
152.2157999756895
 10
164.9749341854549
 20
155.2059279729087
 10
164.2032882506886
 20
155.417026412881
 10
165.7337519404878
 20
161.0114594399363
 10
166.505397875254
 20
160.8003609999639
 10
167.3234043301467
 20
163.7904889971831
 10
166.5517583953804
 20
164.0015874371554
 10
166.8156314453458
 20
164.9661448556132
 10
153.3118275869367
 20
168.6603675551284
  0
LWPOLYLINE
  5
6D
330
1F
100
AcDbEntity
  8
0
  6
Continuous
 62
    18
420
        0
370
     9
100
AcDbPolyline
 90
       21
 70
     1
 43
0.0
 10
98.81565285404105
 20
186.0373235739975
 10
98.55177980407565
 20
185.0727661555397
 10
97.78013386930942
 20
185.283864595512
 10
96.96212741441676
 20
182.2937365982929
 10
97.73377334918301
 20
182.0826381583205
 10
96.20330965938385
 20
176.4882051312653
 10
95.4316637246176
 20
176.6993035712376
 10
94.61365726972495
 20
173.7091755740184
 10
95.38530320449118
 20
173.4980771340461
 10
95.12143015452581
 20
172.5335197155883
 10
108.625234012935
 20
168.8392970160731
 10
108.8891070629004
 20
169.8038544345309
 10
109.6607529976666
 20
169.5927559945586
 10
110.4787594525593
 20
172.5828839917778
 10
109.707113517793
 20
172.7939824317501
 10
111.2375772075922
 20
178.3884154588053
 10
112.0092231423584
 20
178.177317018833
 10
112.8272295972511
 20
181.1674450160522
 10
112.0555836624848
 20
181.3785434560245
 10
112.3194567124502
 20
182.3431008744823
 10
98.81565285404105
 20
186.0373235739975
  0
LWPOLYLINE
  5
6E
330
1F
100
AcDbEntity
  8
0
  6
Continuous
 62
    18
420
        0
370
     9
100
AcDbPolyline
 90
       21
 70
     1
 43
0.0
 10
135.5652904972831
 20
175.9837603703168
 10
135.3014174473178
 20
175.019202951859
 10
134.5297715125515
 20
175.2303013918313
 10
133.7117650576589
 20
172.2401733946121
 10
134.4834109924251
 20
172.0290749546398
 10
132.9529473026259
 20
166.4346419275846
 10
132.1813013678597
 20
166.6457403675569
 10
131.3632949129671
 20
163.6556123703377
 10
132.1349408477333
 20
163.4445139303654
 10
131.8710677977679
 20
162.4799565119076
 10
145.3748716561771
 20
158.7857338123924
 10
145.6387447061425
 20
159.7502912308502
 10
146.4103906409087
 20
159.5391927908779
 10
147.2283970958014
 20
162.5293207880971
 10
146.4567511610351
 20
162.7404192280694
 10
147.9872148508343
 20
168.3348522551246
 10
148.7588607856005
 20
168.1237538151523
 10
149.5768672404932
 20
171.1138818123715
 10
148.8052213057269
 20
171.3249802523438
 10
149.0690943556923
 20
172.2895376708016
 10
135.5652904972831
 20
175.9837603703168
  0
LWPOLYLINE
  5
6F
330
1F
100
AcDbEntity
  8
0
  6
Continuous
 62
    18
420
        0
370
     9
100
AcDbPolyline
 90
       21
 70
     1
 43
0.0
 10
117.8187534076296
 20
183.3071531855052
 10
117.5548803576643
 20
182.3425957670474
 10
116.783234422898
 20
182.5536942070197
 10
115.9652279680054
 20
179.5635662098005
 10
116.7368739027716
 20
179.3524677698282
 10
115.2064102129724
 20
173.758034742773
 10
114.4347642782062
 20
173.9691331827453
 10
113.6167578233136
 20
170.9790051855261
 10
114.3884037580798
 20
170.7679067455538
 10
114.1245307081144
 20
169.803349327096
 10
127.6283345665236
 20
166.1091266275808
 10
127.892207616489
 20
167.0736840460386
 10
128.6638535512552
 20
166.8625856060663
 10
129.4818600061479
 20
169.8527136032855
 10
128.7102140713816
 20
170.0638120432577
 10
130.2406777611808
 20
175.658245070313
 10
131.012323695947
 20
175.4471466303407
 10
131.8303301508397
 20
178.4372746275599
 10
131.0586842160735
 20
178.6483730675322
 10
131.3225572660388
 20
179.61293048599
 10
117.8187534076296
 20
183.3071531855052
  0
LWPOLYLINE
  5
70
330
1F
100
AcDbEntity
  8
0
  6
Continuous
 62
    18
420
        0
370
     9
100
AcDbPolyline
 90
       21
 70
     1
 43
0.0
 10
65.83623334870417
 20
209.8724831726033
 10
65.5723602987388
 20
208.9079257541454
 10
64.80071436397256
 20
209.1190241941177
 10
63.9827079090799
 20
206.1288961968986
 10
64.75435384384615
 20
205.9177977569263
 10
63.22389015404698
 20
200.323364729871
 10
62.45224421928074
 20
200.5344631698434
 10
61.63423776438808
 20
197.5443351726242
 10
62.40588369915432
 20
197.3332367326519
 10
62.14201064918895
 20
196.3686793141941
 10
75.64581450759812
 20
192.6744566146788
 10
75.90968755756349
 20
193.6390140331367
 10
76.68133349232973
 20
193.4279155931644
 10
77.4993399472224
 20
196.4180435903835
 10
76.72769401245615
 20
196.6291420303558
 10
78.25815770225532
 20
202.223575057411
 10
79.02980363702154
 20
202.0124766174388
 10
79.84781009191421
 20
205.0026046146579
 10
79.07616415714797
 20
205.2137030546302
 10
79.34003720711334
 20
206.178260473088
 10
65.83623334870417
 20
209.8724831726033
  0
LWPOLYLINE
  5
71
330
1F
100
AcDbEntity
  8
0
  6
Continuous
 62
    18
420
        0
370
     9
100
AcDbPolyline
 90
       21
 70
     1
 43
0.0
 10
84.21105217032523
 20
204.8457015707629
 10
83.94717912035985
 20
203.8811441523051
 10
83.17553318559361
 20
204.0922425922774
 10
82.35752673070095
 20
201.1021145950582
 10
83.1291726654672
 20
200.8910161550859
 10
81.59870897566803
 20
195.2965831280307
 10
80.82706304090179
 20
195.507681568003
 10
80.00905658600914
 20
192.5175535707838
 10
80.78070252077538
 20
192.3064551308115
 10
80.51682947081
 20
191.3418977123537
 10
94.0206333292192
 20
187.6476750128385
 10
94.28450637918456
 20
188.6122324312963
 10
95.0561523139508
 20
188.401133991324
 10
95.87415876884343
 20
191.3912619885432
 10
95.1025128340772
 20
191.6023604285155
 10
96.63297652387637
 20
197.1967934555707
 10
97.40462245864262
 20
196.9856950155984
 10
98.22262891353526
 20
199.9758230128176
 10
97.45098297876902
 20
200.1869214527899
 10
97.7148560287344
 20
201.1514788712477
 10
84.21105217032523
 20
204.8457015707629
  0
LWPOLYLINE
  5
72
330
1F
100
AcDbEntity
  8
0
  6
Continuous
 62
    18
420
        0
370
     9
100
AcDbPolyline
 90
       21
 70
     1
 43
0.0
 10
158.338609188777
 20
187.0351863767495
 10
158.0747361388116
 20
186.0706289582917
 10
157.3030902040454
 20
186.281727398264
 10
156.4850837491527
 20
183.2915994010448
 10
157.256729683919
 20
183.0805009610725
 10
155.7262659941198
 20
177.4860679340173
 10
154.9546200593535
 20
177.6971663739896
 10
154.1366136044609
 20
174.7070383767704
 10
154.9082595392271
 20
174.4959399367981
 10
154.6443864892618
 20
173.5313825183403
 10
168.1481903476709
 20
169.8371598188251
 10
168.4120633976363
 20
170.8017172372829
 10
169.1837093324026
 20
170.5906187973106
 10
170.0017157872952
 20
173.5807467945298
 10
169.230069852529
 20
173.7918452345021
 10
170.7605335423281
 20
179.3862782615573
 10
171.5321794770944
 20
179.175179821585
 10
172.3501859319871
 20
182.1653078188042
 10
171.5785399972208
 20
182.3764062587765
 10
171.8424130471862
 20
183.3409636772343
 10
158.338609188777
 20
187.0351863767495
  0
LWPOLYLINE
  5
73
330
1F
100
AcDbEntity
  8
0
  6
Continuous
 62
    18
420
        0
370
     9
100
AcDbPolyline
 90
       21
 70
     1
 43
0.0
 10
103.8424344558814
 20
204.4121423956186
 10
103.578561405916
 20
203.4475849771608
 10
102.8069154711498
 20
203.6586834171331
 10
101.9889090162571
 20
200.6685554199139
 10
102.7605549510234
 20
200.4574569799416
 10
101.2300912612242
 20
194.8630239528864
 10
100.458445326458
 20
195.0741223928587
 10
99.6404388715653
 20
192.0839943956395
 10
100.4120848063315
 20
191.8728959556672
 10
100.1482117563662
 20
190.9083385372094
 10
113.6520156147753
 20
187.2141158376942
 10
113.9158886647407
 20
188.178673256152
 10
114.687534599507
 20
187.9675748161797
 10
115.5055410543996
 20
190.9577028133988
 10
114.7338951196334
 20
191.1688012533712
 10
116.2643588094325
 20
196.7632342804264
 10
117.0360047441988
 20
196.5521358404541
 10
117.8540111990914
 20
199.5422638376733
 10
117.0823652643252
 20
199.7533622776456
 10
117.3462383142906
 20
200.7179196961034
 10
103.8424344558814
 20
204.4121423956186
  0
LWPOLYLINE
  5
74
330
1F
100
AcDbEntity
  8
0
  6
Continuous
 62
    18
420
        0
370
     9
100
AcDbPolyline
 90
       21
 70
     1
 43
0.0
 10
140.5920720991235
 20
194.3585791919378
 10
140.3281990491581
 20
193.3940217734801
 10
139.5565531143919
 20
193.6051202134524
 10
138.7385466594992
 20
190.6149922162332
 10
139.5101925942655
 20
190.4038937762609
 10
137.9797289044663
 20
184.8094607492057
 10
137.2080829697001
 20
185.020559189178
 10
136.3900765148074
 20
182.0304311919588
 10
137.1617224495737
 20
181.8193327519865
 10
136.8978493996083
 20
180.8547753335287
 10
150.4016532580175
 20
177.1605526340135
 10
150.6655263079828
 20
178.1251100524713
 10
151.4371722427491
 20
177.914011612499
 10
152.2551786976417
 20
180.9041396097181
 10
151.4835327628755
 20
181.1152380496904
 10
153.0139964526747
 20
186.7096710767457
 10
153.7856423874409
 20
186.4985726367734
 10
154.6036488423335
 20
189.4887006339926
 10
153.8320029075673
 20
189.6997990739648
 10
154.0958759575327
 20
190.6643564924227
 10
140.5920720991235
 20
194.3585791919378
  0
LWPOLYLINE
  5
75
330
1F
100
AcDbEntity
  8
0
  6
Continuous
 62
    18
420
        0
370
     9
100
AcDbPolyline
 90
       21
 70
     1
 43
0.0
 10
122.84553500947
 20
201.6819720071262
 10
122.5816619595046
 20
200.7174145886684
 10
121.8100160247384
 20
200.9285130286407
 10
120.9920095698457
 20
197.9383850314216
 10
121.763655504612
 20
197.7272865914493
 10
120.2331918148128
 20
192.1328535643941
 10
119.4615458800466
 20
192.3439520043663
 10
118.6435394251539
 20
189.3538240071472
 10
119.4151853599201
 20
189.1427255671749
 10
119.1513123099548
 20
188.1781681487171
 10
132.6551161683639
 20
184.4839454492018
 10
132.9189892183293
 20
185.4485028676596
 10
133.6906351530956
 20
185.2374044276874
 10
134.5086416079882
 20
188.2275324249065
 10
133.736995673222
 20
188.4386308648788
 10
135.2674593630211
 20
194.033063891934
 10
136.0391052977874
 20
193.8219654519618
 10
136.85711175268
 20
196.8120934491809
 10
136.0854658179138
 20
197.0231918891532
 10
136.3493388678792
 20
197.987749307611
 10
122.84553500947
 20
201.6819720071262
  0
LWPOLYLINE
  5
76
330
1F
100
AcDbEntity
  8
0
  6
Continuous
 62
    18
420
        0
370
     9
100
AcDbPolyline
 90
       21
 70
     1
 43
0.0
 10
70.86301495054452
 20
228.2473019942243
 10
70.59914190057916
 20
227.2827445757665
 10
69.82749596581291
 20
227.4938430157388
 10
69.00948951092026
 20
224.5037150185196
 10
69.7811354456865
 20
224.2926165785473
 10
68.25067175588732
 20
218.6981835514921
 10
67.4790258211211
 20
218.9092819914644
 10
66.66101936622844
 20
215.9191539942452
 10
67.43266530099467
 20
215.7080555542729
 10
67.1687922510293
 20
214.7434981358151
 10
80.67259610943849
 20
211.0492754362999
 10
80.93646915940384
 20
212.0138328547577
 10
81.70811509417008
 20
211.8027344147854
 10
82.52612154906275
 20
214.7928624120046
 10
81.75447561429651
 20
215.0039608519769
 10
83.28493930409567
 20
220.5983938790321
 10
84.0565852388619
 20
220.3872954390598
 10
84.87459169375455
 20
223.377423436279
 10
84.10294575898833
 20
223.5885218762513
 10
84.3668188089537
 20
224.5530792947091
 10
70.86301495054452
 20
228.2473019942243
  0
LWPOLYLINE
  5
77
330
1F
100
AcDbEntity
  8
0
  6
Continuous
 62
    18
420
        0
370
     9
100
AcDbPolyline
 90
       21
 70
     1
 43
0.0
 10
89.23783377216559
 20
223.2205203923839
 10
88.97396072220022
 20
222.2559629739262
 10
88.20231478743396
 20
222.4670614138984
 10
87.38430833254131
 20
219.4769334166793
 10
88.15595426730755
 20
219.265834976707
 10
86.62549057750839
 20
213.6714019496517
 10
85.85384464274215
 20
213.8825003896241
 10
85.03583818784949
 20
210.8923723924049
 10
85.80748412261573
 20
210.6812739524326
 10
85.54361107265035
 20
209.7167165339748
 10
99.04741493105954
 20
206.0224938344595
 10
99.3112879810249
 20
206.9870512529174
 10
100.0829339157911
 20
206.775952812945
 10
100.9009403706838
 20
209.7660808101642
 10
100.1292944359176
 20
209.9771792501365
 10
101.6597581257167
 20
215.5716122771918
 10
102.431404060483
 20
215.3605138372195
 10
103.2494105153756
 20
218.3506418344386
 10
102.4777645806094
 20
218.5617402744109
 10
102.7416376305748
 20
219.5262976928687
 10
89.23783377216559
 20
223.2205203923839
  0
LWPOLYLINE
  5
78
330
1F
100
AcDbEntity
  8
0
  6
Continuous
 62
    18
420
        0
370
     9
100
AcDbPolyline
 90
       21
 70
     1
 43
0.0
 10
163.3653907906174
 20
205.4100051983706
 10
163.101517740652
 20
204.4454477799127
 10
162.3298718058857
 20
204.6565462198851
 10
161.5118653509931
 20
201.6664182226659
 10
162.2835112857593
 20
201.4553197826936
 10
160.7530475959602
 20
195.8608867556383
 10
159.9814016611939
 20
196.0719851956106
 10
159.1633952063013
 20
193.0818571983914
 10
159.9350411410675
 20
192.8707587584192
 10
159.6711680911021
 20
191.9062013399614
 10
173.1749719495113
 20
188.2119786404461
 10
173.4388449994767
 20
189.176536058904
 10
174.2104909342429
 20
188.9654376189316
 10
175.0284973891356
 20
191.9555656161508
 10
174.2568514543693
 20
192.1666640561231
 10
175.7873151441685
 20
197.7610970831784
 10
176.5589610789347
 20
197.549998643206
 10
177.3769675338274
 20
200.5401266404252
 10
176.6053215990611
 20
200.7512250803975
 10
176.8691946490266
 20
201.7157824988553
 10
163.3653907906174
 20
205.4100051983706
  0
LWPOLYLINE
  5
79
330
1F
100
AcDbEntity
  8
0
  6
Continuous
 62
    18
420
        0
370
     9
100
AcDbPolyline
 90
       21
 70
     1
 43
0.0
 10
108.8692160577217
 20
222.7869612172397
 10
108.6053430077564
 20
221.8224037987818
 10
107.8336970729901
 20
222.0335022387541
 10
107.0156906180975
 20
219.0433742415349
 10
107.7873365528637
 20
218.8322758015627
 10
106.2568728630645
 20
213.2378427745074
 10
105.4852269282983
 20
213.4489412144797
 10
104.6672204734057
 20
210.4588132172605
 10
105.4388664081719
 20
210.2477147772883
 10
105.1749933582065
 20
209.2831573588305
 10
118.6787972166157
 20
205.5889346593152
 10
118.9426702665811
 20
206.553492077773
 10
119.7143162013473
 20
206.3423936378007
 10
120.53232265624
 20
209.3325216350199
 10
119.7606767214737
 20
209.5436200749922
 10
121.2911404112729
 20
215.1380531020474
 10
122.0627863460391
 20
214.9269546620751
 10
122.8807928009318
 20
217.9170826592943
 10
122.1091468661655
 20
218.1281810992666
 10
122.3730199161309
 20
219.0927385177244
 10
108.8692160577217
 20
222.7869612172397
  0
LWPOLYLINE
  5
7A
330
1F
100
AcDbEntity
  8
0
  6
Continuous
 62
    18
420
        0
370
     9
100
AcDbPolyline
 90
       21
 70
     1
 43
0.0
 10
145.6188537009639
 20
212.7333980135589
 10
145.3549806509985
 20
211.7688405951011
 10
144.5833347162322
 20
211.9799390350734
 10
143.7653282613396
 20
208.9898110378542
 10
144.5369741961058
 20
208.778712597882
 10
143.0065105063067
 20
203.1842795708267
 10
142.2348645715404
 20
203.395378010799
 10
141.4168581166478
 20
200.4052500135798
 10
142.188504051414
 20
200.1941515736075
 10
141.9246310014486
 20
199.2295941551498
 10
155.4284348598578
 20
195.5353714556345
 10
155.6923079098232
 20
196.4999288740923
 10
156.4639538445894
 20
196.28883043412
 10
157.2819602994821
 20
199.2789584313392
 10
156.5103143647158
 20
199.4900568713115
 10
158.040778054515
 20
205.0844898983667
 10
158.8124239892812
 20
204.8733914583944
 10
159.6304304441739
 20
207.8635194556136
 10
158.8587845094077
 20
208.0746178955859
 10
159.122657559373
 20
209.0391753140437
 10
145.6188537009639
 20
212.7333980135589
  0
LWPOLYLINE
  5
7B
330
1F
100
AcDbEntity
  8
0
  6
Continuous
 62
    18
420
        0
370
     9
100
AcDbPolyline
 90
       21
 70
     1
 43
0.0
 10
127.8723166113104
 20
220.0567908287473
 10
127.608443561345
 20
219.0922334102895
 10
126.8367976265787
 20
219.3033318502618
 10
126.0187911716861
 20
216.3132038530426
 10
126.7904371064523
 20
216.1021054130703
 10
125.2599734166532
 20
210.5076723860151
 10
124.4883274818869
 20
210.7187708259874
 10
123.6703210269943
 20
207.7286428287682
 10
124.4419669617605
 20
207.5175443887959
 10
124.1780939117951
 20
206.5529869703381
 10
137.6818977702043
 20
202.8587642708229
 10
137.9457708201697
 20
203.8233216892807
 10
138.7174167549359
 20
203.6122232493084
 10
139.5354232098286
 20
206.6023512465276
 10
138.7637772750624
 20
206.8134496864999
 10
140.2942409648615
 20
212.4078827135551
 10
141.0658868996277
 20
212.1967842735828
 10
141.8838933545204
 20
215.186912270802
 10
141.1122474197542
 20
215.3980107107743
 10
141.3761204697195
 20
216.3625681292321
 10
127.8723166113104
 20
220.0567908287473
  0
LWPOLYLINE
  5
7C
330
1F
100
AcDbEntity
  8
0
  6
Continuous
 62
    18
420
        0
370
     9
100
AcDbPolyline
 90
       21
 70
     1
 43
0.0
 10
214.719573211193
 20
90.12286367821767
 10
214.5166142674359
 20
89.34887616724026
 10
220.126818025249
 20
87.87709398368872
 10
220.3297769690061
 20
88.6510814946661
 10
223.3286168650116
 20
87.86451663521353
 10
223.1256579212545
 20
87.09052912423616
 10
224.0929011706216
 20
86.83676447627724
 10
220.5401960991972
 20
73.29535898513734
 10
219.5729528498301
 20
73.5491236330962
 10
219.369993906073
 20
72.7751361221188
 10
216.3711540100674
 20
73.56170098157136
 10
216.5741129538246
 20
74.33568849254877
 10
210.9636453229615
 20
75.80843523351876
 10
210.7609502522544
 20
75.0334831651229
 10
207.7628110406173
 20
75.82127645504391
 10
207.9660338574244
 20
76.59429940860281
 10
206.9987906080573
 20
76.84806405656173
 10
210.5514956794817
 20
90.38946954770168
 10
211.5187389288488
 20
90.13570489974276
 10
211.7216978726059
 20
90.9096924107202
 10
214.719573211193
 20
90.12286367821767
  0
LWPOLYLINE
  5
7D
330
1F
100
AcDbEntity
  8
0
  6
Continuous
 62
    18
420
        0
370
     9
100
AcDbPolyline
 90
       21
 70
     1
 43
0.0
 10
222.1657758985622
 20
110.7528975497026
 10
222.5626271241788
 20
111.4472246374117
 10
225.2553467109624
 20
109.9113245016763
 10
224.8584954853458
 20
109.2169974139672
 10
229.8962888363492
 20
106.3434908187798
 10
230.2931400619659
 20
107.0378179064888
 10
232.9858596487495
 20
105.5019177707535
 10
232.5890084231328
 20
104.8075906830444
 10
233.4577726373579
 20
104.3112422771017
 10
226.5216980736514
 20
92.15100907018083
 10
225.6531977324763
 20
92.64639291870498
 10
225.2566103799095
 20
91.95110127357745
 10
222.5638907931259
 20
93.48700140931282
 10
222.9604781456926
 20
94.18229305444038
 10
217.9226847946892
 20
97.05579964962777
 10
217.5258335690725
 20
96.36147256191873
 10
214.833113982289
 20
97.89737269765413
 10
215.2290006504872
 20
98.59143591231322
 10
214.360500309312
 20
99.08681976083733
 10
221.297275557387
 20
111.2482813982268
 10
222.1657758985622
 20
110.7528975497026
  0
LWPOLYLINE
  5
7E
330
1F
100
AcDbEntity
  8
0
  6
Continuous
 62
    18
420
        0
370
     9
100
AcDbPolyline
 90
       21
 70
     1
 43
0.0
 10
242.8550484338731
 20
126.7719972422456
 10
243.5460295969982
 20
127.1756344954896
 10
245.1096405581976
 20
124.4993757706991
 10
244.419623952491
 20
124.0960023905051
 10
247.3459053365522
 20
119.0876606228841
 10
248.0368864996772
 20
119.4912978761281
 10
249.6004974608767
 20
116.8150391513376
 10
248.9095162977517
 20
116.4114018980936
 10
249.4142380353988
 20
115.5479825518045
 10
237.3268039986685
 20
108.4840712126316
 10
236.8220822610214
 20
109.3474905589209
 10
236.1311010978964
 20
108.9438533056768
 10
234.5672262636469
 20
111.6210765878857
 10
235.2582074267719
 20
112.0247138411297
 10
232.3321899157608
 20
117.0320910513323
 10
231.6412087526357
 20
116.6284537980883
 10
230.0775977914362
 20
119.3047125228787
 10
230.7676143971428
 20
119.7080859030728
 10
230.2638572169141
 20
120.5717691224119
 10
242.3512912536445
 20
127.6356804615847
 10
242.8550484338731
 20
126.7719972422456
  0
LWPOLYLINE
  5
7F
330
1F
100
AcDbEntity
  8
0
  6
Continuous
 62
    18
420
        0
370
     9
100
AcDbPolyline
 90
       21
 70
     1
 43
0.0
 10
264.3082148759462
 20
134.4241207128065
 10
264.5720879259115
 20
133.4595632943487
 10
265.3437338606778
 20
133.670661734321
 10
266.1617403155705
 20
130.6805337371019
 10
265.3900943808042
 20
130.4694352971295
 10
266.9205580706034
 20
124.8750022700743
 10
267.6922040053696
 20
125.0861007100466
 10
268.5102104602623
 20
122.0959727128275
 10
267.738564525496
 20
121.8848742728551
 10
268.0024375754614
 20
120.9203168543973
 10
254.4986337170522
 20
117.2260941548821
 10
254.2347606670868
 20
118.1906515733399
 10
253.4631147323206
 20
117.9795531333676
 10
252.645108277428
 20
120.9696811305868
 10
253.4167542121941
 20
121.1807795705591
 10
251.886290522395
 20
126.7752125976143
 10
251.1146445876288
 20
126.5641141576421
 10
250.2966381327361
 20
129.5542421548612
 10
251.0682840675023
 20
129.7653405948335
 10
250.804411017537
 20
130.7298980132913
 10
264.3082148759462
 20
134.4241207128065
  0
LWPOLYLINE
  5
80
330
1F
100
AcDbEntity
  8
0
  6
Continuous
 62
    18
420
        0
370
     9
100
AcDbPolyline
 90
       21
 70
     1
 43
0.0
 10
309.6169801980312
 20
149.2876859307554
 10
309.8808532479966
 20
148.3231285122976
 10
310.6524991827629
 20
148.5342269522699
 10
311.4705056376555
 20
145.5440989550507
 10
310.6988597028893
 20
145.3330005150784
 10
312.2293233926885
 20
139.7385674880232
 10
313.0009693274547
 20
139.9496659279955
 10
313.8189757823474
 20
136.9595379307763
 10
313.0473298475811
 20
136.748439490804
 10
313.3112028975465
 20
135.7838820723462
 10
299.8073990391373
 20
132.089659372831
 10
299.5435259891719
 20
133.0542167912888
 10
298.7718800544057
 20
132.8431183513165
 10
297.953873599513
 20
135.8332463485357
 10
298.7255195342793
 20
136.044344788508
 10
297.1950558444801
 20
141.6387778155632
 10
296.4234099097138
 20
141.4276793755909
 10
295.6054034548212
 20
144.4178073728101
 10
296.3770493895875
 20
144.6289058127824
 10
296.1131763396221
 20
145.5934632312402
 10
309.6169801980312
 20
149.2876859307554
  0
LWPOLYLINE
  5
81
330
1F
100
AcDbEntity
  8
0
  6
Continuous
 62
    18
420
        0
370
     9
100
AcDbPolyline
 90
       21
 70
     1
 43
0.0
 10
290.6138796444426
 20
146.5575155422631
 10
290.877752694408
 20
145.5929581238053
 10
291.6493986291742
 20
145.8040565637776
 10
292.467141211017
 20
142.8148931239769
 10
291.6954952762507
 20
142.6037946840046
 10
293.2262228390999
 20
137.0083970995309
 10
293.9978687738661
 20
137.2194955395032
 10
294.8158752287587
 20
134.229367542284
 10
294.0442292939925
 20
134.0182691023117
 10
294.3081023439579
 20
133.0537116838539
 10
280.8042984855487
 20
129.3594889843387
 10
280.5404254355833
 20
130.3240464027965
 10
279.7687795008171
 20
130.1129479628242
 10
278.9507730459244
 20
133.1030759600434
 10
279.7224189806907
 20
133.3141744000156
 10
278.1916914178415
 20
138.9095719844893
 10
277.4200454830753
 20
138.698473544517
 10
276.6023029012326
 20
141.6876369843178
 10
277.3739488359988
 20
141.89873542429
 10
277.1100757860335
 20
142.8632928427479
 10
290.6138796444426
 20
146.5575155422631
  0
LWPOLYLINE
  5
82
330
1F
100
AcDbEntity
  8
0
  6
Continuous
 62
    18
420
        0
370
     9
100
AcDbPolyline
 90
       21
 70
     1
 43
0.0
 10
342.5963997033681
 20
173.1228455293611
 10
342.8602727533335
 20
172.1582881109034
 10
343.6319186880997
 20
172.3693865508757
 10
344.4499251429924
 20
169.3792585536565
 10
343.6782792082262
 20
169.1681601136842
 10
345.2087428980253
 20
163.5737270866289
 10
345.9803888327915
 20
163.7848255266013
 10
346.7983952876842
 20
160.7946975293821
 10
346.026749352918
 20
160.5835990894097
 10
346.2906224028833
 20
159.619041670952
 10
332.7868185444742
 20
155.9248189714367
 10
332.5229454945088
 20
156.8893763898945
 10
331.7512995597426
 20
156.6782779499222
 10
330.9332931048499
 20
159.6684059471414
 10
331.7049390396161
 20
159.8795043871137
 10
330.174475349817
 20
165.473937414169
 10
329.4028294150507
 20
165.2628389741967
 10
328.5848229601581
 20
168.2529669714158
 10
329.3564688949243
 20
168.4640654113881
 10
329.092595844959
 20
169.4286228298459
 10
342.5963997033681
 20
173.1228455293611
  0
LWPOLYLINE
  5
83
330
1F
100
AcDbEntity
  8
0
  6
Continuous
 62
    18
420
        0
370
     9
100
AcDbPolyline
 90
       21
 70
     1
 43
0.0
 10
324.2215808817471
 20
168.0960639275208
 10
324.4854539317124
 20
167.131506509063
 10
325.2570998664787
 20
167.3426049490353
 10
326.0751063213713
 20
164.3524769518161
 10
325.3034603866051
 20
164.1413785118438
 10
326.8339240764043
 20
158.5469454847886
 10
327.6055700111705
 20
158.7580439247609
 10
328.4235764660632
 20
155.7679159275417
 10
327.6519305312969
 20
155.5568174875694
 10
327.9158035812623
 20
154.5922600691116
 10
314.4119997228531
 20
150.8980373695964
 10
314.1481266728878
 20
151.8625947880542
 10
313.3764807381215
 20
151.6514963480819
 10
312.5584742832289
 20
154.6416243453011
 10
313.3301202179951
 20
154.8527227852734
 10
311.7996565281959
 20
160.4471558123286
 10
311.0280105934297
 20
160.2360573723563
 10
310.210004138537
 20
163.2261853695755
 10
310.9816500733033
 20
163.4372838095478
 10
310.7177770233379
 20
164.4018412280055
 10
324.2215808817471
 20
168.0960639275208
  0
LWPOLYLINE
  5
84
330
1F
100
AcDbEntity
  8
0
  6
Continuous
 62
    18
420
        0
370
     9
100
AcDbPolyline
 90
       21
 70
     1
 43
0.0
 10
250.0940238632953
 20
150.2855487335074
 10
250.3578969132606
 20
149.3209913150496
 10
251.1295428480269
 20
149.5320897550219
 10
251.9475493029196
 20
146.5419617578027
 10
251.1759033681533
 20
146.3308633178304
 10
252.7063670579525
 20
140.7364302907752
 10
253.4780129927187
 20
140.9475287307475
 10
254.2960194476114
 20
137.9574007335283
 10
253.5243735128451
 20
137.746302293556
 10
253.7882465628105
 20
136.7817448750982
 10
240.2844427044013
 20
133.087522175583
 10
240.020569654436
 20
134.0520795940408
 10
239.2489237196697
 20
133.8409811540685
 10
238.430917264777
 20
136.8311091512876
 10
239.2025631995433
 20
137.04220759126
 10
237.6720995097441
 20
142.6366406183152
 10
236.9004535749779
 20
142.4255421783429
 10
236.0824471200852
 20
145.4156701755621
 10
236.8540930548515
 20
145.6267686155344
 10
236.5902200048861
 20
146.5913260339921
 10
250.0940238632953
 20
150.2855487335074
  0
LWPOLYLINE
  5
85
330
1F
100
AcDbEntity
  8
0
  6
Continuous
 62
    18
420
        0
370
     9
100
AcDbPolyline
 90
       21
 70
     1
 43
0.0
 10
304.5901985961909
 20
167.6625047523765
 10
304.8540716461563
 20
166.6979473339186
 10
305.6257175809225
 20
166.909045773891
 10
306.4437240358152
 20
163.9189177766718
 10
305.6720781010489
 20
163.7078193366995
 10
307.2025417908481
 20
158.1133863096443
 10
307.9741877256143
 20
158.3244847496166
 10
308.792194180507
 20
155.3343567523974
 10
308.0205482457408
 20
155.1232583124251
 10
308.2844212957061
 20
154.1587008939673
 10
294.7806174372969
 20
150.4644781944521
 10
294.5167443873316
 20
151.4290356129099
 10
293.7450984525653
 20
151.2179371729376
 10
292.9270919976727
 20
154.2080651701567
 10
293.6987379324389
 20
154.419163610129
 10
292.1682742426398
 20
160.0135966371843
 10
291.3966283078735
 20
159.802498197212
 10
290.5786218529809
 20
162.7926261944312
 10
291.3502677877471
 20
163.0037246344035
 10
291.0863947377817
 20
163.9682820528613
 10
304.5901985961909
 20
167.6625047523765
  0
LWPOLYLINE
  5
86
330
1F
100
AcDbEntity
  8
0
  6
Continuous
 62
    18
420
        0
370
     9
100
AcDbPolyline
 90
       21
 70
     1
 43
0.0
 10
267.8405609529488
 20
157.6089415486958
 10
268.1044340029142
 20
156.644384130238
 10
268.8760799376804
 20
156.8554825702103
 10
269.694086392573
 20
153.8653545729911
 10
268.9224404578068
 20
153.6542561330188
 10
270.452904147606
 20
148.0598231059635
 10
271.2245500823722
 20
148.2709215459358
 10
272.0425565372649
 20
145.2807935487167
 10
271.2709106024986
 20
145.0696951087444
 10
271.534783652464
 20
144.1051376902866
 10
258.0309797940549
 20
140.4109149907714
 10
257.7671067440895
 20
141.3754724092292
 10
256.9954608093232
 20
141.1643739692569
 10
256.1774543544306
 20
144.154501966476
 10
256.9491002891968
 20
144.3656004064484
 10
255.4186365993976
 20
149.9600334335036
 10
254.6469906646314
 20
149.7489349935313
 10
253.8289842097388
 20
152.7390629907504
 10
254.600630144505
 20
152.9501614307227
 10
254.3367570945396
 20
153.9147188491805
 10
267.8405609529488
 20
157.6089415486958
  0
LWPOLYLINE
  5
87
330
1F
100
AcDbEntity
  8
0
  6
Continuous
 62
    18
420
        0
370
     9
100
AcDbPolyline
 90
       21
 70
     1
 43
0.0
 10
285.5870980426023
 20
164.9323343638841
 10
285.8509710925676
 20
163.9677769454263
 10
286.6226170273339
 20
164.1788753853986
 10
287.4406234822266
 20
161.1887473881795
 10
286.6689775474603
 20
160.9776489482071
 10
288.1994412372595
 20
155.3832159211519
 10
288.9710871720257
 20
155.5943143611242
 10
289.7890936269184
 20
152.6041863639051
 10
289.0174476921521
 20
152.3930879239327
 10
289.2813207421175
 20
151.428530505475
 10
275.7775168837084
 20
147.7343078059598
 10
275.5136438337429
 20
148.6988652244175
 10
274.7419978989767
 20
148.4877667844452
 10
273.923991444084
 20
151.4778947816644
 10
274.6956373788503
 20
151.6889932216367
 10
273.1651736890511
 20
157.2834262486919
 10
272.3935277542849
 20
157.0723278087196
 10
271.5755212993922
 20
160.0624558059388
 10
272.3471672341585
 20
160.2735542459111
 10
272.0832941841931
 20
161.2381116643689
 10
285.5870980426023
 20
164.9323343638841
  0
LWPOLYLINE
  5
88
330
1F
100
AcDbEntity
  8
0
  6
Continuous
 62
    18
420
        0
370
     9
100
AcDbPolyline
 90
       21
 70
     1
 43
0.0
 10
337.5696181015277
 20
191.4976643509822
 10
337.8334911514931
 20
190.5331069325244
 10
338.6051370862594
 20
190.7442053724967
 10
339.4231435411521
 20
187.7540773752775
 10
338.6514976063858
 20
187.5429789353052
 10
340.181961296185
 20
181.94854590825
 10
340.9536072309512
 20
182.1596443482223
 10
341.7716136858439
 20
179.1695163510031
 10
340.9999677510776
 20
178.9584179110308
 10
341.263840801043
 20
177.993860492573
 10
327.7600369426338
 20
174.2996377930578
 10
327.4961638926684
 20
175.2641952115156
 10
326.7245179579022
 20
175.0530967715433
 10
325.9065115030095
 20
178.0432247687625
 10
326.6781574377758
 20
178.2543232087348
 10
325.1476937479766
 20
183.84875623579
 10
324.3760478132104
 20
183.6376577958177
 10
323.5580413583177
 20
186.6277857930369
 10
324.329687293084
 20
186.8388842330092
 10
324.0658142431186
 20
187.803441651467
 10
337.5696181015277
 20
191.4976643509822
  0
LWPOLYLINE
  5
89
330
1F
100
AcDbEntity
  8
0
  6
Continuous
 62
    18
420
        0
370
     9
100
AcDbPolyline
 90
       21
 70
     1
 43
0.0
 10
319.1947992799067
 20
186.4708827491418
 10
319.4586723298721
 20
185.506325330684
 10
320.2303182646384
 20
185.7174237706564
 10
321.048324719531
 20
182.7272957734372
 10
320.2766787847647
 20
182.5161973334649
 10
321.8071424745639
 20
176.9217643064096
 10
322.5787884093302
 20
177.1328627463819
 10
323.3967948642228
 20
174.1427347491627
 10
322.6251489294565
 20
173.9316363091905
 10
322.889021979422
 20
172.9670788907326
 10
309.3852181210128
 20
169.2728561912174
 10
309.1213450710474
 20
170.2374136096753
 10
308.3496991362811
 20
170.0263151697029
 10
307.5316926813884
 20
173.0164431669221
 10
308.3033386161547
 20
173.2275416068944
 10
306.7728749263555
 20
178.8219746339497
 10
306.0012289915893
 20
178.6108761939773
 10
305.1832225366966
 20
181.6010041911965
 10
305.9548684714629
 20
181.8121026311688
 10
305.6909954214975
 20
182.7766600496266
 10
319.1947992799067
 20
186.4708827491418
  0
LWPOLYLINE
  5
8A
330
1F
100
AcDbEntity
  8
0
  6
Continuous
 62
    18
420
        0
370
     9
100
AcDbPolyline
 90
       21
 70
     1
 43
0.0
 10
245.0672422614549
 20
168.6603675551284
 10
245.3311153114203
 20
167.6958101366706
 10
246.1027612461866
 20
167.906908576643
 10
246.9207677010792
 20
164.9167805794238
 10
246.149121766313
 20
164.7056821394515
 10
247.6795854561121
 20
159.1112491123962
 10
248.4512313908784
 20
159.3223475523685
 10
249.269237845771
 20
156.3322195551494
 10
248.4975919110048
 20
156.1211211151771
 10
248.7614649609701
 20
155.1565636967192
 10
235.257661102561
 20
151.4623409972041
 10
234.9937880525956
 20
152.4268984156619
 10
234.2221421178294
 20
152.2157999756895
 10
233.4041356629367
 20
155.2059279729087
 10
234.175781597703
 20
155.417026412881
 10
232.6453179079038
 20
161.0114594399363
 10
231.8736719731376
 20
160.8003609999639
 10
231.0556655182449
 20
163.7904889971831
 10
231.8273114530112
 20
164.0015874371554
 10
231.5634384030457
 20
164.9661448556132
 10
245.0672422614549
 20
168.6603675551284
  0
LWPOLYLINE
  5
8B
330
1F
100
AcDbEntity
  8
0
  6
Continuous
 62
    18
420
        0
370
     9
100
AcDbPolyline
 90
       21
 70
     1
 43
0.0
 10
299.5634169943506
 20
186.0373235739975
 10
299.8272900443159
 20
185.0727661555397
 10
300.5989359790822
 20
185.283864595512
 10
301.4169424339748
 20
182.2937365982929
 10
300.6452964992086
 20
182.0826381583205
 10
302.1757601890077
 20
176.4882051312653
 10
302.947406123774
 20
176.6993035712376
 10
303.7654125786667
 20
173.7091755740184
 10
302.9937666439004
 20
173.4980771340461
 10
303.2576396938658
 20
172.5335197155883
 10
289.7538358354566
 20
168.8392970160731
 10
289.4899627854912
 20
169.8038544345309
 10
288.718316850725
 20
169.5927559945586
 10
287.9003103958323
 20
172.5828839917778
 10
288.6719563305986
 20
172.7939824317501
 10
287.1414926407994
 20
178.3884154588053
 10
286.3698467060332
 20
178.177317018833
 10
285.5518402511405
 20
181.1674450160522
 10
286.3234861859067
 20
181.3785434560245
 10
286.0596131359414
 20
182.3431008744823
 10
299.5634169943506
 20
186.0373235739975
  0
LWPOLYLINE
  5
8C
330
1F
100
AcDbEntity
  8
0
  6
Continuous
 62
    18
420
        0
370
     9
100
AcDbPolyline
 90
       21
 70
     1
 43
0.0
 10
262.8137793511084
 20
175.9837603703168
 10
263.0776524010738
 20
175.019202951859
 10
263.84929833584
 20
175.2303013918313
 10
264.6673047907327
 20
172.2401733946121
 10
263.8956588559665
 20
172.0290749546398
 10
265.4261225457656
 20
166.4346419275846
 10
266.1977684805319
 20
166.6457403675569
 10
267.0157749354245
 20
163.6556123703377
 10
266.2441290006583
 20
163.4445139303654
 10
266.5080020506236
 20
162.4799565119076
 10
253.0041981922145
 20
158.7857338123924
 10
252.7403251422491
 20
159.7502912308502
 10
251.9686792074829
 20
159.5391927908779
 10
251.1506727525902
 20
162.5293207880971
 10
251.9223186873565
 20
162.7404192280694
 10
250.3918549975573
 20
168.3348522551246
 10
249.620209062791
 20
168.1237538151523
 10
248.8022026078984
 20
171.1138818123715
 10
249.5738485426646
 20
171.3249802523438
 10
249.3099754926993
 20
172.2895376708016
 10
262.8137793511084
 20
175.9837603703168
  0
LWPOLYLINE
  5
8D
330
1F
100
AcDbEntity
  8
0
  6
Continuous
 62
    18
420
        0
370
     9
100
AcDbPolyline
 90
       21
 70
     1
 43
0.0
 10
280.5603164407619
 20
183.3071531855052
 10
280.8241894907273
 20
182.3425957670474
 10
281.5958354254935
 20
182.5536942070197
 10
282.4138418803862
 20
179.5635662098005
 10
281.64219594562
 20
179.3524677698282
 10
283.1726596354191
 20
173.758034742773
 10
283.9443055701853
 20
173.9691331827453
 10
284.762312025078
 20
170.9790051855261
 10
283.9906660903118
 20
170.7679067455538
 10
284.2545391402771
 20
169.803349327096
 10
270.7507352818679
 20
166.1091266275808
 10
270.4868622319026
 20
167.0736840460386
 10
269.7152162971364
 20
166.8625856060663
 10
268.8972098422437
 20
169.8527136032855
 10
269.6688557770099
 20
170.0638120432577
 10
268.1383920872108
 20
175.658245070313
 10
267.3667461524445
 20
175.4471466303407
 10
266.5487396975519
 20
178.4372746275599
 10
267.3203856323181
 20
178.6483730675322
 10
267.0565125823528
 20
179.61293048599
 10
280.5603164407619
 20
183.3071531855052
  0
LWPOLYLINE
  5
8E
330
1F
100
AcDbEntity
  8
0
  6
Continuous
 62
    18
420
        0
370
     9
100
AcDbPolyline
 90
       21
 70
     1
 43
0.0
 10
332.5428364996874
 20
209.8724831726033
 10
332.8067095496527
 20
208.9079257541454
 10
333.578355484419
 20
209.1190241941177
 10
334.3963619393116
 20
206.1288961968986
 10
333.6247160045455
 20
205.9177977569263
 10
335.1551796943446
 20
200.323364729871
 10
335.9268256291109
 20
200.5344631698434
 10
336.7448320840035
 20
197.5443351726242
 10
335.9731861492372
 20
197.3332367326519
 10
336.2370591992026
 20
196.3686793141941
 10
322.7332553407934
 20
192.6744566146788
 10
322.4693822908281
 20
193.6390140331367
 10
321.6977363560619
 20
193.4279155931644
 10
320.8797299011692
 20
196.4180435903835
 10
321.6513758359354
 20
196.6291420303558
 10
320.1209121461362
 20
202.223575057411
 10
319.34926621137
 20
202.0124766174388
 10
318.5312597564774
 20
205.0026046146579
 10
319.3029056912436
 20
205.2137030546302
 10
319.0390326412783
 20
206.178260473088
 10
332.5428364996874
 20
209.8724831726033
  0
LWPOLYLINE
  5
8F
330
1F
100
AcDbEntity
  8
0
  6
Continuous
 62
    18
420
        0
370
     9
100
AcDbPolyline
 90
       21
 70
     1
 43
0.0
 10
314.1680176780663
 20
204.8457015707629
 10
314.4318907280317
 20
203.8811441523051
 10
315.2035366627979
 20
204.0922425922774
 10
316.0215431176906
 20
201.1021145950582
 10
315.2498971829244
 20
200.8910161550859
 10
316.7803608727235
 20
195.2965831280307
 10
317.5520068074898
 20
195.507681568003
 10
318.3700132623824
 20
192.5175535707838
 10
317.5983673276162
 20
192.3064551308115
 10
317.8622403775815
 20
191.3418977123537
 10
304.3584365191724
 20
187.6476750128385
 10
304.094563469207
 20
188.6122324312963
 10
303.3229175344408
 20
188.401133991324
 10
302.5049110795482
 20
191.3912619885432
 10
303.2765570143144
 20
191.6023604285155
 10
301.7460933245152
 20
197.1967934555707
 10
300.974447389749
 20
196.9856950155984
 10
300.1564409348563
 20
199.9758230128176
 10
300.9280868696225
 20
200.1869214527899
 10
300.6642138196572
 20
201.1514788712477
 10
314.1680176780663
 20
204.8457015707629
  0
LWPOLYLINE
  5
90
330
1F
100
AcDbEntity
  8
0
  6
Continuous
 62
    18
420
        0
370
     9
100
AcDbPolyline
 90
       21
 70
     1
 43
0.0
 10
240.0404606596146
 20
187.0351863767495
 10
240.30433370958
 20
186.0706289582917
 10
241.0759796443462
 20
186.281727398264
 10
241.8939860992389
 20
183.2915994010448
 10
241.1223401644726
 20
183.0805009610725
 10
242.6528038542718
 20
177.4860679340173
 10
243.4244497890381
 20
177.6971663739896
 10
244.2424562439307
 20
174.7070383767704
 10
243.4708103091644
 20
174.4959399367981
 10
243.7346833591298
 20
173.5313825183403
 10
230.2308795007206
 20
169.8371598188251
 10
229.9670064507553
 20
170.8017172372829
 10
229.195360515989
 20
170.5906187973106
 10
228.3773540610964
 20
173.5807467945298
 10
229.1489999958626
 20
173.7918452345021
 10
227.6185363060634
 20
179.3862782615573
 10
226.8468903712972
 20
179.175179821585
 10
226.0288839164045
 20
182.1653078188042
 10
226.8005298511708
 20
182.3764062587765
 10
226.5366568012054
 20
183.3409636772343
 10
240.0404606596146
 20
187.0351863767495
  0
LWPOLYLINE
  5
91
330
1F
100
AcDbEntity
  8
0
  6
Continuous
 62
    18
420
        0
370
     9
100
AcDbPolyline
 90
       21
 70
     1
 43
0.0
 10
294.5366353925102
 20
204.4121423956186
 10
294.8005084424756
 20
203.4475849771608
 10
295.5721543772418
 20
203.6586834171331
 10
296.3901608321345
 20
200.6685554199139
 10
295.6185148973682
 20
200.4574569799416
 10
297.1489785871674
 20
194.8630239528864
 10
297.9206245219336
 20
195.0741223928587
 10
298.7386309768262
 20
192.0839943956395
 10
297.9669850420601
 20
191.8728959556672
 10
298.2308580920254
 20
190.9083385372094
 10
284.7270542336162
 20
187.2141158376942
 10
284.4631811836509
 20
188.178673256152
 10
283.6915352488846
 20
187.9675748161797
 10
282.873528793992
 20
190.9577028133988
 10
283.6451747287582
 20
191.1688012533712
 10
282.1147110389591
 20
196.7632342804264
 10
281.3430651041928
 20
196.5521358404541
 10
280.5250586493001
 20
199.5422638376733
 10
281.2967045840664
 20
199.7533622776456
 10
281.032831534101
 20
200.7179196961034
 10
294.5366353925102
 20
204.4121423956186
  0
LWPOLYLINE
  5
92
330
1F
100
AcDbEntity
  8
0
  6
Continuous
 62
    18
420
        0
370
     9
100
AcDbPolyline
 90
       21
 70
     1
 43
0.0
 10
257.786997749268
 20
194.3585791919378
 10
258.0508707992335
 20
193.3940217734801
 10
258.8225167339997
 20
193.6051202134524
 10
259.6405231888924
 20
190.6149922162332
 10
258.8688772541261
 20
190.4038937762609
 10
260.3993409439253
 20
184.8094607492057
 10
261.1709868786915
 20
185.020559189178
 10
261.9889933335842
 20
182.0304311919588
 10
261.2173473988179
 20
181.8193327519865
 10
261.4812204487833
 20
180.8547753335287
 10
247.9774165903741
 20
177.1605526340135
 10
247.7135435404088
 20
178.1251100524713
 10
246.9418976056425
 20
177.914011612499
 10
246.1238911507498
 20
180.9041396097181
 10
246.8955370855161
 20
181.1152380496904
 10
245.3650733957169
 20
186.7096710767457
 10
244.5934274609507
 20
186.4985726367734
 10
243.775421006058
 20
189.4887006339926
 10
244.5470669408243
 20
189.6997990739648
 10
244.2831938908589
 20
190.6643564924227
 10
257.786997749268
 20
194.3585791919378
  0
LWPOLYLINE
  5
93
330
1F
100
AcDbEntity
  8
0
  6
Continuous
 62
    18
420
        0
370
     9
100
AcDbPolyline
 90
       21
 70
     1
 43
0.0
 10
275.5335348389216
 20
201.6819720071262
 10
275.7974078888869
 20
200.7174145886684
 10
276.5690538236532
 20
200.9285130286407
 10
277.3870602785458
 20
197.9383850314216
 10
276.6154143437796
 20
197.7272865914493
 10
278.1458780335788
 20
192.1328535643941
 10
278.917523968345
 20
192.3439520043663
 10
279.7355304232377
 20
189.3538240071472
 10
278.9638844884714
 20
189.1427255671749
 10
279.2277575384368
 20
188.1781681487171
 10
265.7239536800276
 20
184.4839454492018
 10
265.4600806300623
 20
185.4485028676596
 10
264.688434695296
 20
185.2374044276874
 10
263.8704282404034
 20
188.2275324249065
 10
264.6420741751696
 20
188.4386308648788
 10
263.1116104853705
 20
194.033063891934
 10
262.3399645506042
 20
193.8219654519618
 10
261.5219580957116
 20
196.8120934491809
 10
262.2936040304778
 20
197.0231918891532
 10
262.0297309805124
 20
197.987749307611
 10
275.5335348389216
 20
201.6819720071262
  0
LWPOLYLINE
  5
94
330
1F
100
AcDbEntity
  8
0
  6
Continuous
 62
    18
420
        0
370
     9
100
AcDbPolyline
 90
       21
 70
     1
 43
0.0
 10
327.516054897847
 20
228.2473019942243
 10
327.7799279478124
 20
227.2827445757665
 10
328.5515738825786
 20
227.4938430157388
 10
329.3695803374713
 20
224.5037150185196
 10
328.5979344027051
 20
224.2926165785473
 10
330.1283980925043
 20
218.6981835514921
 10
330.9000440272705
 20
218.9092819914644
 10
331.7180504821631
 20
215.9191539942452
 10
330.9464045473969
 20
215.7080555542729
 10
331.2102775973623
 20
214.7434981358151
 10
317.7064737389531
 20
211.0492754362999
 10
317.4426006889877
 20
212.0138328547577
 10
316.6709547542215
 20
211.8027344147854
 10
315.8529482993288
 20
214.7928624120046
 10
316.6245942340951
 20
215.0039608519769
 10
315.0941305442959
 20
220.5983938790321
 10
314.3224846095297
 20
220.3872954390598
 10
313.504478154637
 20
223.377423436279
 10
314.2761240894033
 20
223.5885218762513
 10
314.0122510394379
 20
224.5530792947091
 10
327.516054897847
 20
228.2473019942243
  0
LWPOLYLINE
  5
95
330
1F
100
AcDbEntity
  8
0
  6
Continuous
 62
    18
420
        0
370
     9
100
AcDbPolyline
 90
       21
 70
     1
 43
0.0
 10
309.141236076226
 20
223.2205203923839
 10
309.4051091261914
 20
222.2559629739262
 10
310.1767550609576
 20
222.4670614138984
 10
310.9947615158503
 20
219.4769334166793
 10
310.223115581084
 20
219.265834976707
 10
311.7535792708832
 20
213.6714019496517
 10
312.5252252056494
 20
213.8825003896241
 10
313.3432316605421
 20
210.8923723924049
 10
312.5715857257759
 20
210.6812739524326
 10
312.8354587757412
 20
209.7167165339748
 10
299.3316549173321
 20
206.0224938344595
 10
299.0677818673667
 20
206.9870512529174
 10
298.2961359326005
 20
206.775952812945
 10
297.4781294777078
 20
209.7660808101642
 10
298.249775412474
 20
209.9771792501365
 10
296.7193117226748
 20
215.5716122771918
 10
295.9476657879086
 20
215.3605138372195
 10
295.129659333016
 20
218.3506418344386
 10
295.9013052677822
 20
218.5617402744109
 10
295.6374322178168
 20
219.5262976928687
 10
309.141236076226
 20
223.2205203923839
  0
LWPOLYLINE
  5
96
330
1F
100
AcDbEntity
  8
0
  6
Continuous
 62
    18
420
        0
370
     9
100
AcDbPolyline
 90
       21
 70
     1
 43
0.0
 10
235.0136790577742
 20
205.4100051983706
 10
235.2775521077396
 20
204.4454477799127
 10
236.0491980425059
 20
204.6565462198851
 10
236.8672044973985
 20
201.6664182226659
 10
236.0955585626322
 20
201.4553197826936
 10
237.6260222524314
 20
195.8608867556383
 10
238.3976681871977
 20
196.0719851956106
 10
239.2156746420903
 20
193.0818571983914
 10
238.4440287073241
 20
192.8707587584192
 10
238.7079017572894
 20
191.9062013399614
 10
225.2040978988803
 20
188.2119786404461
 10
224.9402248489149
 20
189.176536058904
 10
224.1685789141486
 20
188.9654376189316
 10
223.350572459256
 20
191.9555656161508
 10
224.1222183940222
 20
192.1666640561231
 10
222.5917547042231
 20
197.7610970831784
 10
221.8201087694568
 20
197.549998643206
 10
221.0021023145642
 20
200.5401266404252
 10
221.7737482493304
 20
200.7512250803975
 10
221.509875199365
 20
201.7157824988553
 10
235.0136790577742
 20
205.4100051983706
  0
LWPOLYLINE
  5
97
330
1F
100
AcDbEntity
  8
0
  6
Continuous
 62
    18
420
        0
370
     9
100
AcDbPolyline
 90
       21
 70
     1
 43
0.0
 10
289.5098537906698
 20
222.7869612172397
 10
289.7737268406352
 20
221.8224037987818
 10
290.5453727754015
 20
222.0335022387541
 10
291.3633792302941
 20
219.0433742415349
 10
290.5917332955279
 20
218.8322758015627
 10
292.122196985327
 20
213.2378427745074
 10
292.8938429200933
 20
213.4489412144797
 10
293.7118493749859
 20
210.4588132172605
 10
292.9402034402197
 20
210.2477147772883
 10
293.2040764901851
 20
209.2831573588305
 10
279.7002726317759
 20
205.5889346593152
 10
279.4363995818105
 20
206.553492077773
 10
278.6647536470443
 20
206.3423936378007
 10
277.8467471921516
 20
209.3325216350199
 10
278.6183931269179
 20
209.5436200749922
 10
277.0879294371187
 20
215.1380531020474
 10
276.3162835023525
 20
214.9269546620751
 10
275.4982770474598
 20
217.9170826592943
 10
276.269922982226
 20
218.1281810992666
 10
276.0060499322606
 20
219.0927385177244
 10
289.5098537906698
 20
222.7869612172397
  0
LWPOLYLINE
  5
98
330
1F
100
AcDbEntity
  8
0
  6
Continuous
 62
    18
420
        0
370
     9
100
AcDbPolyline
 90
       21
 70
     1
 43
0.0
 10
252.7602161474277
 20
212.7333980135589
 10
253.0240891973931
 20
211.7688405951011
 10
253.7957351321593
 20
211.9799390350734
 10
254.613741587052
 20
208.9898110378542
 10
253.8420956522857
 20
208.778712597882
 10
255.3725593420849
 20
203.1842795708267
 10
256.1442052768512
 20
203.395378010799
 10
256.9622117317438
 20
200.4052500135798
 10
256.1905657969775
 20
200.1941515736075
 10
256.4544388469429
 20
199.2295941551498
 10
242.9506349885338
 20
195.5353714556345
 10
242.6867619385684
 20
196.4999288740923
 10
241.9151160038021
 20
196.28883043412
 10
241.0971095489095
 20
199.2789584313392
 10
241.8687554836757
 20
199.4900568713115
 10
240.3382917938766
 20
205.0844898983667
 10
239.5666458591103
 20
204.8733914583944
 10
238.7486394042177
 20
207.8635194556136
 10
239.5202853389839
 20
208.0746178955859
 10
239.2564122890186
 20
209.0391753140437
 10
252.7602161474277
 20
212.7333980135589
  0
LWPOLYLINE
  5
99
330
1F
100
AcDbEntity
  8
0
  6
Continuous
 62
    18
420
        0
370
     9
100
AcDbPolyline
 90
       21
 70
     1
 43
0.0
 10
270.5067532370812
 20
220.0567908287473
 10
270.7706262870466
 20
219.0922334102895
 10
271.5422722218129
 20
219.3033318502618
 10
272.3602786767055
 20
216.3132038530426
 10
271.5886327419393
 20
216.1021054130703
 10
273.1190964317384
 20
210.5076723860151
 10
273.8907423665046
 20
210.7187708259874
 10
274.7087488213973
 20
207.7286428287682
 10
273.9371028866311
 20
207.5175443887959
 10
274.2009759365965
 20
206.5529869703381
 10
260.6971720781873
 20
202.8587642708229
 10
260.4332990282219
 20
203.8233216892807
 10
259.6616530934556
 20
203.6122232493084
 10
258.843646638563
 20
206.6023512465276
 10
259.6152925733293
 20
206.8134496864999
 10
258.0848288835301
 20
212.4078827135551
 10
257.3131829487638
 20
212.1967842735828
 10
256.4951764938712
 20
215.186912270802
 10
257.2668224286375
 20
215.3980107107743
 10
257.002949378672
 20
216.3625681292321
 10
270.5067532370812
 20
220.0567908287473
  0
SPLINE
  5
9A
330
1F
100
AcDbEntity
  8
0
  6
Continuous
 62
    18
420
        0
370
    35
100
AcDbSpline
210
0.0
220
0.0
230
1.0
 70
    11
 71
     3
 72
   200
 73
   196
 74
     0
 42
0.000000001
 43
0.0
 40
0.0
 40
0.0
 40
0.0
 40
0.0
 40
1.0
 40
1.0
 40
1.0
 40
2.0
 40
2.0
 40
2.0
 40
3.0
 40
3.0
 40
3.0
 40
4.0
 40
4.0
 40
4.0
 40
5.0
 40
5.0
 40
5.0
 40
6.0
 40
6.0
 40
6.0
 40
7.0
 40
7.0
 40
7.0
 40
8.0
 40
8.0
 40
8.0
 40
9.0
 40
9.0
 40
9.0
 40
10.0
 40
10.0
 40
10.0
 40
11.0
 40
11.0
 40
11.0
 40
12.0
 40
12.0
 40
12.0
 40
13.0
 40
13.0
 40
13.0
 40
14.0
 40
14.0
 40
14.0
 40
15.0
 40
15.0
 40
15.0
 40
16.0
 40
16.0
 40
16.0
 40
17.0
 40
17.0
 40
17.0
 40
18.0
 40
18.0
 40
18.0
 40
19.0
 40
19.0
 40
19.0
 40
20.0
 40
20.0
 40
20.0
 40
21.0
 40
21.0
 40
21.0
 40
22.0
 40
22.0
 40
22.0
 40
23.0
 40
23.0
 40
23.0
 40
24.0
 40
24.0
 40
24.0
 40
25.0
 40
25.0
 40
25.0
 40
26.0
 40
26.0
 40
26.0
 40
27.0
 40
27.0
 40
27.0
 40
28.0
 40
28.0
 40
28.0
 40
29.0
 40
29.0
 40
29.0
 40
30.0
 40
30.0
 40
30.0
 40
31.0
 40
31.0
 40
31.0
 40
32.0
 40
32.0
 40
32.0
 40
33.0
 40
33.0
 40
33.0
 40
34.0
 40
34.0
 40
34.0
 40
35.0
 40
35.0
 40
35.0
 40
36.0
 40
36.0
 40
36.0
 40
37.0
 40
37.0
 40
37.0
 40
38.0
 40
38.0
 40
38.0
 40
39.0
 40
39.0
 40
39.0
 40
40.0
 40
40.0
 40
40.0
 40
41.0
 40
41.0
 40
41.0
 40
42.0
 40
42.0
 40
42.0
 40
43.0
 40
43.0
 40
43.0
 40
44.0
 40
44.0
 40
44.0
 40
45.0
 40
45.0
 40
45.0
 40
46.0
 40
46.0
 40
46.0
 40
47.0
 40
47.0
 40
47.0
 40
48.0
 40
48.0
 40
48.0
 40
49.0
 40
49.0
 40
49.0
 40
50.0
 40
50.0
 40
50.0
 40
51.0
 40
51.0
 40
51.0
 40
52.0
 40
52.0
 40
52.0
 40
53.0
 40
53.0
 40
53.0
 40
54.0
 40
54.0
 40
54.0
 40
55.0
 40
55.0
 40
55.0
 40
56.0
 40
56.0
 40
56.0
 40
57.0
 40
57.0
 40
57.0
 40
58.0
 40
58.0
 40
58.0
 40
59.0
 40
59.0
 40
59.0
 40
60.0
 40
60.0
 40
60.0
 40
61.0
 40
61.0
 40
61.0
 40
62.0
 40
62.0
 40
62.0
 40
63.0
 40
63.0
 40
63.0
 40
64.0
 40
64.0
 40
64.0
 40
65.0
 40
65.0
 40
65.0
 40
65.0
 10
199.1895349241958
 20
66.41391454330991
 30
0.0
 10
199.1895349241958
 20
66.41391454330991
 30
0.0
 10
220.41631756589
 20
66.41391454330991
 30
0.0
 10
220.41631756589
 20
66.41391454330991
 30
0.0
 10
222.4720747724882
 20
66.41391405659223
 30
0.0
 10
224.2691969804362
 20
67.80042424886028
 30
0.0
 10
224.7908061207352
 20
69.7889064834396
 30
0.0
 10
224.7908061207352
 20
69.7889064834396
 30
0.0
 10
229.2013455703831
 20
86.6027930762726
 30
0.0
 10
229.2013455703831
 20
86.6027930762726
 30
0.0
 10
229.245639922018
 20
86.7716519644321
 30
0.0
 10
229.311851740611
 20
86.93398482779344
 30
0.0
 10
229.3982929542943
 20
87.08565298619905
 30
0.0
 10
229.3982929542943
 20
87.08565298619905
 30
0.0
 10
238.5063312575836
 20
103.0664591002241
 30
0.0
 10
238.5063312575836
 20
103.0664591002241
 30
0.0
 10
238.6799696411928
 20
103.3711221604399
 30
0.0
 10
238.9306601830388
 20
103.6247760699833
 30
0.0
 10
239.2332617903603
 20
103.801982547768
 30
0.0
 10
239.2332617903603
 20
103.801982547768
 30
0.0
 10
252.0301783616632
 20
111.2959926720365
 30
0.0
 10
252.0301783616632
 20
111.2959926720365
 30
0.0
 10
252.1827388126074
 20
111.3853337754781
 30
0.0
 10
252.346400666377
 20
111.4541944483921
 30
0.0
 10
252.5169426753007
 20
111.5007986021635
 30
0.0
 10
252.5169426753007
 20
111.5007986021635
 30
0.0
 10
316.4353614246605
 20
128.9678683792854
 30
0.0
 10
316.4353614246605
 20
128.9678683792854
 30
0.0
 10
318.8243377959405
 20
129.6207071833979
 30
0.0
 10
320.2367854115114
 20
132.0812080679182
 30
0.0
 10
319.5958009135344
 20
134.4733923166838
 30
0.0
 10
319.5958009135344
 20
134.4733923166838
 30
0.0
 10
317.5892963429324
 20
141.9617693197901
 30
0.0
 10
317.5892963429324
 20
141.9617693197901
 30
0.0
 10
316.9480937262323
 20
144.3547723280461
 30
0.0
 10
318.3617247336197
 20
146.8159561524509
 30
0.0
 10
320.7518336762968
 20
147.4678636883182
 30
0.0
 10
320.7518336762968
 20
147.4678636883182
 30
0.0
 10
348.828378984259
 20
155.1258018332055
 30
0.0
 10
348.828378984259
 20
155.1258018332055
 30
0.0
 10
349.9800369165113
 20
155.4399190162056
 30
0.0
 10
350.9596963937938
 20
156.1987560757495
 30
0.0
 10
351.55175870094
 20
157.2353118253511
 30
0.0
 10
352.1438210080861
 20
158.2718675749527
 30
0.0
 10
352.2997662689963
 20
159.5011956231019
 30
0.0
 10
351.9852748055901
 20
160.6527514042172
 30
0.0
 10
351.9852748055901
 20
160.6527514042172
 30
0.0
 10
333.9469502614556
 20
226.7027161865393
 30
0.0
 10
333.9469502614556
 20
226.7027161865393
 30
0.0
 10
333.9469502614556
 20
226.7027161865393
 30
0.0
 10
332.9895349721874
 20
230.2758386900315
 30
0.0
 10
332.9895349721874
 20
230.2758386900315
 30
0.0
 10
332.6819867779587
 20
231.4236237248185
 30
0.0
 10
331.9297173634196
 20
232.4015292631215
 30
0.0
 10
330.8991957458766
 20
232.9931554741965
 30
0.0
 10
329.8686741283338
 20
233.5847816852715
 30
0.0
 10
328.6448702962568
 20
233.7413469895013
 30
0.0
 10
327.4985986910743
 20
233.4282051925362
 30
0.0
 10
327.4985986910743
 20
233.4282051925362
 30
0.0
 10
297.9844341968442
 20
225.3654406270941
 30
0.0
 10
297.9844341968442
 20
225.3654406270941
 30
0.0
 10
297.2067042737249
 20
225.1529783191294
 30
0.0
 10
296.3763698573383
 20
225.2592059399925
 30
0.0
 10
295.6771748605377
 20
225.660616480549
 30
0.0
 10
294.9779798637371
 20
226.0620270211055
 30
0.0
 10
294.4675752626312
 20
226.7255228339334
 30
0.0
 10
294.258908005696
 20
227.5042795619967
 30
0.0
 10
294.258908005696
 20
227.5042795619967
 30
0.0
 10
293.9869702541201
 20
228.5191650673739
 30
0.0
 10
293.9869702541201
 20
228.5191650673739
 30
0.0
 10
293.7789727545024
 20
229.2954223417743
 30
0.0
 10
293.2701111499187
 20
229.9567399316349
 30
0.0
 10
292.573059443219
 20
230.3566864706796
 30
0.0
 10
291.8760077365192
 20
230.7566330097242
 30
0.0
 10
291.0482790703254
 20
230.8622092496617
 30
0.0
 10
290.2731521617847
 20
230.6500381122208
 30
0.0
 10
290.2731521617847
 20
230.6500381122208
 30
0.0
 10
274.8093561421392
 20
226.4172125491312
 30
0.0
 10
274.8093561421392
 20
226.4172125491312
 30
0.0
 10
274.8093561421392
 20
226.4172125491312
 30
0.0
 10
274.8085635130046
 20
226.4169958218095
 30
0.0
 10
274.8085635130046
 20
226.4169958218095
 30
0.0
 10
274.8085635130046
 20
226.4169958218095
 30
0.0
 10
233.6468693300514
 20
215.1744749398019
 30
0.0
 10
233.6468693300514
 20
215.1744749398019
 30
0.0
 10
232.5995627697125
 20
214.8884234239509
 30
0.0
 10
231.9802968641738
 20
213.8098186839252
 30
0.0
 10
232.26128850671
 20
212.7611432346682
 30
0.0
 10
232.26128850671
 20
212.7611432346682
 30
0.0
 10
232.4864620769117
 20
211.9207840301538
 30
0.0
 10
232.4864620769117
 20
211.9207840301538
 30
0.0
 10
232.7641163778401
 20
210.8845658606202
 30
0.0
 10
232.1524628627516
 20
209.8187156498743
 30
0.0
 10
231.1177126322293
 20
209.5356397481627
 30
0.0
 10
231.1177126322293
 20
209.5356397481627
 30
0.0
 10
206.1895349241958
 20
202.7160620267922
 30
0.0
 10
206.1895349241958
 20
202.7160620267922
 30
0.0
 10
206.1895349241958
 20
202.7160620267922
 30
0.0
 10
192.1895349241958
 20
202.7160620267921
 30
0.0
 10
192.1895349241958
 20
202.7160620267921
 30
0.0
 10
192.1895349241958
 20
202.7160620267921
 30
0.0
 10
167.2613572161623
 20
209.5356397481627
 30
0.0
 10
167.2613572161623
 20
209.5356397481627
 30
0.0
 10
166.22660698564
 20
209.8187156498743
 30
0.0
 10
165.6149534705515
 20
210.8845658606202
 30
0.0
 10
165.8926077714799
 20
211.9207840301538
 30
0.0
 10
165.8926077714799
 20
211.9207840301538
 30
0.0
 10
166.1177813416816
 20
212.7611432346682
 30
0.0
 10
166.1177813416816
 20
212.7611432346682
 30
0.0
 10
166.3987729842178
 20
213.8098186839252
 30
0.0
 10
165.7795070786791
 20
214.8884234239509
 30
0.0
 10
164.7322005183402
 20
215.1744749398019
 30
0.0
 10
164.7322005183402
 20
215.1744749398019
 30
0.0
 10
123.5705063353869
 20
226.4169958218095
 30
0.0
 10
123.5705063353869
 20
226.4169958218095
 30
0.0
 10
123.5705063353869
 20
226.4169958218095
 30
0.0
 10
123.5697137062524
 20
226.4172125491312
 30
0.0
 10
123.5697137062524
 20
226.4172125491312
 30
0.0
 10
123.5697137062524
 20
226.4172125491312
 30
0.0
 10
108.1059176866068
 20
230.6500381122208
 30
0.0
 10
108.1059176866068
 20
230.6500381122208
 30
0.0
 10
107.3307907780662
 20
230.8622092496617
 30
0.0
 10
106.5030621118723
 20
230.7566330097242
 30
0.0
 10
105.8060104051725
 20
230.3566864706796
 30
0.0
 10
105.1089586984728
 20
229.9567399316349
 30
0.0
 10
104.6000970938891
 20
229.2954223417743
 30
0.0
 10
104.3920995942714
 20
228.5191650673739
 30
0.0
 10
104.3920995942714
 20
228.5191650673739
 30
0.0
 10
104.1201618426956
 20
227.5042795619968
 30
0.0
 10
104.1201618426956
 20
227.5042795619968
 30
0.0
 10
103.9114945857604
 20
226.7255228339334
 30
0.0
 10
103.4010899846544
 20
226.0620270211055
 30
0.0
 10
102.7018949878539
 20
225.660616480549
 30
0.0
 10
102.0026999910533
 20
225.2592059399925
 30
0.0
 10
101.1723655746666
 20
225.1529783191294
 30
0.0
 10
100.3946356515474
 20
225.3654406270941
 30
0.0
 10
100.3946356515474
 20
225.3654406270941
 30
0.0
 10
70.88047115731722
 20
233.4282051925362
 30
0.0
 10
70.88047115731722
 20
233.4282051925362
 30
0.0
 10
69.73419955213471
 20
233.7413469895013
 30
0.0
 10
68.51039572005779
 20
233.5847816852715
 30
0.0
 10
67.47987410251488
 20
232.9931554741964
 30
0.0
 10
66.44935248497198
 20
232.4015292631215
 30
0.0
 10
65.69708307043281
 20
231.4236237248185
 30
0.0
 10
65.38953487620415
 20
230.2758386900315
 30
0.0
 10
65.38953487620415
 20
230.2758386900315
 30
0.0
 10
64.43211958693594
 20
226.7027161865393
 30
0.0
 10
64.43211958693594
 20
226.7027161865393
 30
0.0
 10
64.43211958693594
 20
226.7027161865393
 30
0.0
 10
46.39379504280141
 20
160.6527514042172
 30
0.0
 10
46.39379504280141
 20
160.6527514042172
 30
0.0
 10
46.07930357939524
 20
159.5011956231019
 30
0.0
 10
46.23524884030532
 20
158.2718675749527
 30
0.0
 10
46.82731114745154
 20
157.2353118253511
 30
0.0
 10
47.41937345459775
 20
156.1987560757495
 30
0.0
 10
48.39903293188027
 20
155.4399190162056
 30
0.0
 10
49.55069086413248
 20
155.1258018332055
 30
0.0
 10
49.55069086413248
 20
155.1258018332055
 30
0.0
 10
77.6272361720948
 20
147.4678636883181
 30
0.0
 10
77.6272361720948
 20
147.4678636883181
 30
0.0
 10
80.01734511477183
 20
146.8159561524508
 30
0.0
 10
81.43097612215924
 20
144.3547723280461
 30
0.0
 10
80.78977350545914
 20
141.9617693197901
 30
0.0
 10
80.78977350545914
 20
141.9617693197901
 30
0.0
 10
78.78326893485719
 20
134.4733923166838
 30
0.0
 10
78.78326893485719
 20
134.4733923166838
 30
0.0
 10
78.14228443688013
 20
132.0812080679183
 30
0.0
 10
79.55473205245104
 20
129.6207071833979
 30
0.0
 10
81.94370842373105
 20
128.9678683792854
 30
0.0
 10
81.94370842373105
 20
128.9678683792854
 30
0.0
 10
145.8621271730909
 20
111.5007986021635
 30
0.0
 10
145.8621271730909
 20
111.5007986021635
 30
0.0
 10
146.0326691820145
 20
111.4541944483921
 30
0.0
 10
146.1963310357842
 20
111.3853337754781
 30
0.0
 10
146.3488914867283
 20
111.2959926720366
 30
0.0
 10
146.3488914867283
 20
111.2959926720366
 30
0.0
 10
159.1458080580313
 20
103.801982547768
 30
0.0
 10
159.1458080580313
 20
103.801982547768
 30
0.0
 10
159.4484096653528
 20
103.6247760699833
 30
0.0
 10
159.6991002071988
 20
103.3711221604399
 30
0.0
 10
159.8727385908079
 20
103.0664591002241
 30
0.0
 10
159.8727385908079
 20
103.0664591002241
 30
0.0
 10
168.9807768940972
 20
87.08565298619905
 30
0.0
 10
168.9807768940972
 20
87.08565298619905
 30
0.0
 10
169.0672181077806
 20
86.93398482779344
 30
0.0
 10
169.1334299263735
 20
86.7716519644321
 30
0.0
 10
169.1777242780085
 20
86.6027930762726
 30
0.0
 10
169.1777242780085
 20
86.6027930762726
 30
0.0
 10
173.5882637276563
 20
69.7889064834396
 30
0.0
 10
173.5882637276563
 20
69.7889064834396
 30
0.0
 10
174.1098728679553
 20
67.80042424886022
 30
0.0
 10
175.9069950759033
 20
66.41391405659223
 30
0.0
 10
177.9627522825016
 20
66.41391454330991
 30
0.0
 10
177.9627522825016
 20
66.41391454330991
 30
0.0
 10
199.1895349241958
 20
66.41391454330991
 30
0.0
 10
199.1895349241958
 20
66.41391454330991
 30
0.0
  0
SPLINE
  5
9B
330
1F
100
AcDbEntity
  8
0
  6
Continuous
 62
    18
420
        0
370
    35
100
AcDbSpline
210
0.0
220
0.0
230
1.0
 70
    11
 71
     3
 72
    17
 73
    13
 74
     0
 42
0.000000001
 43
0.0
 40
0.0
 40
0.0
 40
0.0
 40
0.0
 40
1.0
 40
1.0
 40
1.0
 40
2.0
 40
2.0
 40
2.0
 40
3.0
 40
3.0
 40
3.0
 40
4.0
 40
4.0
 40
4.0
 40
4.0
 10
245.8282559640024
 20
172.4468635193903
 30
0.0
 10
245.2891031410189
 20
172.4468635193903
 30
0.0
 10
244.8513794539313
 20
172.0091398323027
 30
0.0
 10
244.8513794539313
 20
171.4699870093191
 30
0.0
 10
244.8513794539313
 20
170.9308341863356
 30
0.0
 10
245.2891031410189
 20
170.493110499248
 30
0.0
 10
245.8282559640024
 20
170.493110499248
 30
0.0
 10
246.3674087869859
 20
170.493110499248
 30
0.0
 10
246.8051324740736
 20
170.9308341863356
 30
0.0
 10
246.8051324740736
 20
171.4699870093191
 30
0.0
 10
246.8051324740736
 20
172.0091398323027
 30
0.0
 10
246.3674087869859
 20
172.4468635193903
 30
0.0
 10
245.8282559640024
 20
172.4468635193903
 30
0.0
  0
SPLINE
  5
9C
330
1F
100
AcDbEntity
  8
0
  6
Continuous
 62
    18
420
        0
370
    35
100
AcDbSpline
210
0.0
220
0.0
230
1.0
 70
    11
 71
     3
 72
    17
 73
    13
 74
     0
 42
0.000000001
 43
0.0
 40
0.0
 40
0.0
 40
0.0
 40
0.0
 40
1.0
 40
1.0
 40
1.0
 40
2.0
 40
2.0
 40
2.0
 40
3.0
 40
3.0
 40
3.0
 40
4.0
 40
4.0
 40
4.0
 40
4.0
 10
289.5692117516189
 20
226.1088915374318
 30
0.0
 10
289.0300589286354
 20
226.1088915374318
 30
0.0
 10
288.5923352415479
 20
225.6711678503442
 30
0.0
 10
288.5923352415479
 20
225.1320150273607
 30
0.0
 10
288.5923352415479
 20
224.5928622043772
 30
0.0
 10
289.0300589286354
 20
224.1551385172896
 30
0.0
 10
289.5692117516189
 20
224.1551385172896
 30
0.0
 10
290.1083645746025
 20
224.1551385172896
 30
0.0
 10
290.54608826169
 20
224.5928622043772
 30
0.0
 10
290.54608826169
 20
225.1320150273607
 30
0.0
 10
290.54608826169
 20
225.6711678503442
 30
0.0
 10
290.1083645746025
 20
226.1088915374318
 30
0.0
 10
289.5692117516189
 20
226.1088915374318
 30
0.0
  0
SPLINE
  5
9D
330
1F
100
AcDbEntity
  8
0
  6
Continuous
 62
    18
420
        0
370
    35
100
AcDbSpline
210
0.0
220
0.0
230
1.0
 70
    11
 71
     3
 72
    17
 73
    13
 74
     0
 42
0.000000001
 43
0.0
 40
0.0
 40
0.0
 40
0.0
 40
0.0
 40
1.0
 40
1.0
 40
1.0
 40
2.0
 40
2.0
 40
2.0
 40
3.0
 40
3.0
 40
3.0
 40
4.0
 40
4.0
 40
4.0
 40
4.0
 10
237.7882258065902
 20
211.9985539585374
 30
0.0
 10
237.2490729836067
 20
211.9985539585374
 30
0.0
 10
236.8113492965191
 20
211.5608302714498
 30
0.0
 10
236.8113492965191
 20
211.0216774484663
 30
0.0
 10
236.8113492965191
 20
210.4825246254828
 30
0.0
 10
237.2490729836067
 20
210.0448009383952
 30
0.0
 10
237.7882258065902
 20
210.0448009383952
 30
0.0
 10
238.3273786295737
 20
210.0448009383952
 30
0.0
 10
238.7651023166613
 20
210.4825246254828
 30
0.0
 10
238.7651023166613
 20
211.0216774484663
 30
0.0
 10
238.7651023166613
 20
211.5608302714498
 30
0.0
 10
238.3273786295737
 20
211.9985539585374
 30
0.0
 10
237.7882258065902
 20
211.9985539585374
 30
0.0
  0
SPLINE
  5
9E
330
1F
100
AcDbEntity
  8
0
  6
Continuous
 62
    18
420
        0
370
    35
100
AcDbSpline
210
0.0
220
0.0
230
1.0
 70
    11
 71
     3
 72
    17
 73
    13
 74
     0
 42
0.000000001
 43
0.0
 40
0.0
 40
0.0
 40
0.0
 40
0.0
 40
1.0
 40
1.0
 40
1.0
 40
2.0
 40
2.0
 40
2.0
 40
3.0
 40
3.0
 40
3.0
 40
4.0
 40
4.0
 40
4.0
 40
4.0
 10
283.9030245102947
 20
185.4070309917114
 30
0.0
 10
283.3638716873112
 20
185.4070309917114
 30
0.0
 10
282.9261480002236
 20
184.9693073046238
 30
0.0
 10
282.9261480002236
 20
184.4301544816403
 30
0.0
 10
282.9261480002236
 20
183.8910016586568
 30
0.0
 10
283.3638716873112
 20
183.4532779715692
 30
0.0
 10
283.9030245102947
 20
183.4532779715692
 30
0.0
 10
284.4421773332782
 20
183.4532779715692
 30
0.0
 10
284.8799010203658
 20
183.8910016586568
 30
0.0
 10
284.8799010203658
 20
184.4301544816403
 30
0.0
 10
284.8799010203658
 20
184.9693073046238
 30
0.0
 10
284.4421773332782
 20
185.4070309917114
 30
0.0
 10
283.9030245102947
 20
185.4070309917114
 30
0.0
  0
SPLINE
  5
9F
330
1F
100
AcDbEntity
  8
0
  6
Continuous
 62
    18
420
        0
370
    35
100
AcDbSpline
210
0.0
220
0.0
230
1.0
 70
    11
 71
     3
 72
    17
 73
    13
 74
     0
 42
0.000000001
 43
0.0
 40
0.0
 40
0.0
 40
0.0
 40
0.0
 40
1.0
 40
1.0
 40
1.0
 40
2.0
 40
2.0
 40
2.0
 40
3.0
 40
3.0
 40
3.0
 40
4.0
 40
4.0
 40
4.0
 40
4.0
 10
315.9382266105409
 20
208.8261202814252
 30
0.0
 10
315.3990737875574
 20
208.8261202814252
 30
0.0
 10
314.9613501004698
 20
208.3883965943376
 30
0.0
 10
314.9613501004698
 20
207.8492437713541
 30
0.0
 10
314.9613501004698
 20
207.3100909483705
 30
0.0
 10
315.3990737875574
 20
206.8723672612829
 30
0.0
 10
315.9382266105409
 20
206.8723672612829
 30
0.0
 10
316.4773794335244
 20
206.8723672612829
 30
0.0
 10
316.915103120612
 20
207.3100909483705
 30
0.0
 10
316.915103120612
 20
207.8492437713541
 30
0.0
 10
316.915103120612
 20
208.3883965943376
 30
0.0
 10
316.4773794335244
 20
208.8261202814252
 30
0.0
 10
315.9382266105409
 20
208.8261202814252
 30
0.0
  0
SPLINE
  5
A0
330
1F
100
AcDbEntity
  8
0
  6
Continuous
 62
    18
420
        0
370
    35
100
AcDbSpline
210
0.0
220
0.0
230
1.0
 70
    11
 71
     3
 72
    17
 73
    13
 74
     0
 42
0.000000001
 43
0.0
 40
0.0
 40
0.0
 40
0.0
 40
0.0
 40
1.0
 40
1.0
 40
1.0
 40
2.0
 40
2.0
 40
2.0
 40
3.0
 40
3.0
 40
3.0
 40
4.0
 40
4.0
 40
4.0
 40
4.0
 10
314.6111929305933
 20
134.6560059716472
 30
0.0
 10
314.0720401076098
 20
134.6560059716472
 30
0.0
 10
313.6343164205222
 20
134.2182822845596
 30
0.0
 10
313.6343164205222
 20
133.6791294615761
 30
0.0
 10
313.6343164205222
 20
133.1399766385926
 30
0.0
 10
314.0720401076098
 20
132.702252951505
 30
0.0
 10
314.6111929305933
 20
132.702252951505
 30
0.0
 10
315.1503457535769
 20
132.702252951505
 30
0.0
 10
315.5880694406644
 20
133.1399766385926
 30
0.0
 10
315.5880694406644
 20
133.6791294615761
 30
0.0
 10
315.5880694406644
 20
134.2182822845596
 30
0.0
 10
315.1503457535769
 20
134.6560059716472
 30
0.0
 10
314.6111929305933
 20
134.6560059716472
 30
0.0
  0
SPLINE
  5
A1
330
1F
100
AcDbEntity
  8
0
  6
Continuous
 62
    18
420
        0
370
    35
100
AcDbSpline
210
0.0
220
0.0
230
1.0
 70
    11
 71
     3
 72
    17
 73
    13
 74
     0
 42
0.000000001
 43
0.0
 40
0.0
 40
0.0
 40
0.0
 40
0.0
 40
1.0
 40
1.0
 40
1.0
 40
2.0
 40
2.0
 40
2.0
 40
3.0
 40
3.0
 40
3.0
 40
4.0
 40
4.0
 40
4.0
 40
4.0
 10
274.9392052398074
 20
145.8441217498273
 30
0.0
 10
274.4000524168239
 20
145.8441217498273
 30
0.0
 10
273.9623287297363
 20
145.4063980627396
 30
0.0
 10
273.9623287297363
 20
144.8672452397561
 30
0.0
 10
273.9623287297363
 20
144.3280924167726
 30
0.0
 10
274.4000524168239
 20
143.890368729685
 30
0.0
 10
274.9392052398074
 20
143.890368729685
 30
0.0
 10
275.4783580627909
 20
143.890368729685
 30
0.0
 10
275.9160817498785
 20
144.3280924167726
 30
0.0
 10
275.9160817498785
 20
144.8672452397561
 30
0.0
 10
275.9160817498785
 20
145.4063980627396
 30
0.0
 10
275.4783580627909
 20
145.8441217498273
 30
0.0
 10
274.9392052398074
 20
145.8441217498273
 30
0.0
  0
SPLINE
  5
A2
330
1F
100
AcDbEntity
  8
0
  6
Continuous
 62
    18
420
        0
370
    35
100
AcDbSpline
210
0.0
220
0.0
230
1.0
 70
    11
 71
     3
 72
    17
 73
    13
 74
     0
 42
0.000000001
 43
0.0
 40
0.0
 40
0.0
 40
0.0
 40
0.0
 40
1.0
 40
1.0
 40
1.0
 40
2.0
 40
2.0
 40
2.0
 40
3.0
 40
3.0
 40
3.0
 40
4.0
 40
4.0
 40
4.0
 40
4.0
 10
326.030896373599
 20
172.0711108011849
 30
0.0
 10
325.4917435506155
 20
172.0711108011849
 30
0.0
 10
325.0540198635279
 20
171.6333871140973
 30
0.0
 10
325.0540198635279
 20
171.0942342911138
 30
0.0
 10
325.0540198635279
 20
170.5550814681303
 30
0.0
 10
325.4917435506155
 20
170.1173577810427
 30
0.0
 10
326.030896373599
 20
170.1173577810427
 30
0.0
 10
326.5700491965825
 20
170.1173577810427
 30
0.0
 10
327.0077728836702
 20
170.5550814681303
 30
0.0
 10
327.0077728836702
 20
171.0942342911138
 30
0.0
 10
327.0077728836702
 20
171.6333871140973
 30
0.0
 10
326.5700491965825
 20
172.0711108011849
 30
0.0
 10
326.030896373599
 20
172.0711108011849
 30
0.0
  0
SPLINE
  5
A3
330
1F
100
AcDbEntity
  8
0
  6
Continuous
 62
    18
420
        0
370
    35
100
AcDbSpline
210
0.0
220
0.0
230
1.0
 70
    11
 71
     3
 72
    17
 73
    13
 74
     0
 42
0.000000001
 43
0.0
 40
0.0
 40
0.0
 40
0.0
 40
0.0
 40
1.0
 40
1.0
 40
1.0
 40
2.0
 40
2.0
 40
2.0
 40
3.0
 40
3.0
 40
3.0
 40
4.0
 40
4.0
 40
4.0
 40
4.0
 10
226.8945131147732
 20
115.9387345268595
 30
0.0
 10
226.3553602917897
 20
115.9387345268595
 30
0.0
 10
225.9176366047021
 20
115.5010108397719
 30
0.0
 10
225.9176366047021
 20
114.9618580167883
 30
0.0
 10
225.9176366047021
 20
114.4227051938048
 30
0.0
 10
226.3553602917897
 20
113.9849815067172
 30
0.0
 10
226.8945131147732
 20
113.9849815067172
 30
0.0
 10
227.4336659377567
 20
113.9849815067172
 30
0.0
 10
227.8713896248443
 20
114.4227051938048
 30
0.0
 10
227.8713896248443
 20
114.9618580167883
 30
0.0
 10
227.8713896248443
 20
115.5010108397719
 30
0.0
 10
227.4336659377567
 20
115.9387345268595
 30
0.0
 10
226.8945131147732
 20
115.9387345268595
 30
0.0
  0
SPLINE
  5
A4
330
1F
100
AcDbEntity
  8
0
  6
Continuous
 62
    18
420
        0
370
    35
100
AcDbSpline
210
0.0
220
0.0
230
1.0
 70
    11
 71
     3
 72
    17
 73
    13
 74
     0
 42
0.000000001
 43
0.0
 40
0.0
 40
0.0
 40
0.0
 40
0.0
 40
1.0
 40
1.0
 40
1.0
 40
2.0
 40
2.0
 40
2.0
 40
3.0
 40
3.0
 40
3.0
 40
4.0
 40
4.0
 40
4.0
 40
4.0
 10
152.5508138843892
 20
172.4468635193903
 30
0.0
 10
153.0899667073727
 20
172.4468635193903
 30
0.0
 10
153.5276903944603
 20
172.0091398323027
 30
0.0
 10
153.5276903944603
 20
171.4699870093191
 30
0.0
 10
153.5276903944603
 20
170.9308341863356
 30
0.0
 10
153.0899667073727
 20
170.493110499248
 30
0.0
 10
152.5508138843892
 20
170.493110499248
 30
0.0
 10
152.0116610614056
 20
170.493110499248
 30
0.0
 10
151.5739373743181
 20
170.9308341863356
 30
0.0
 10
151.5739373743181
 20
171.4699870093191
 30
0.0
 10
151.5739373743181
 20
172.0091398323027
 30
0.0
 10
152.0116610614056
 20
172.4468635193903
 30
0.0
 10
152.5508138843892
 20
172.4468635193903
 30
0.0
  0
SPLINE
  5
A5
330
1F
100
AcDbEntity
  8
0
  6
Continuous
 62
    18
420
        0
370
    35
100
AcDbSpline
210
0.0
220
0.0
230
1.0
 70
    11
 71
     3
 72
    17
 73
    13
 74
     0
 42
0.000000001
 43
0.0
 40
0.0
 40
0.0
 40
0.0
 40
0.0
 40
1.0
 40
1.0
 40
1.0
 40
2.0
 40
2.0
 40
2.0
 40
3.0
 40
3.0
 40
3.0
 40
4.0
 40
4.0
 40
4.0
 40
4.0
 10
108.8098580967727
 20
226.1088915374318
 30
0.0
 10
109.3490109197562
 20
226.1088915374318
 30
0.0
 10
109.7867346068438
 20
225.6711678503442
 30
0.0
 10
109.7867346068438
 20
225.1320150273607
 30
0.0
 10
109.7867346068438
 20
224.5928622043772
 30
0.0
 10
109.3490109197562
 20
224.1551385172896
 30
0.0
 10
108.8098580967727
 20
224.1551385172896
 30
0.0
 10
108.2707052737891
 20
224.1551385172896
 30
0.0
 10
107.8329815867015
 20
224.5928622043772
 30
0.0
 10
107.8329815867015
 20
225.1320150273607
 30
0.0
 10
107.8329815867015
 20
225.6711678503442
 30
0.0
 10
108.2707052737891
 20
226.1088915374318
 30
0.0
 10
108.8098580967727
 20
226.1088915374318
 30
0.0
  0
SPLINE
  5
A6
330
1F
100
AcDbEntity
  8
0
  6
Continuous
 62
    18
420
        0
370
    35
100
AcDbSpline
210
0.0
220
0.0
230
1.0
 70
    11
 71
     3
 72
    17
 73
    13
 74
     0
 42
0.000000001
 43
0.0
 40
0.0
 40
0.0
 40
0.0
 40
0.0
 40
1.0
 40
1.0
 40
1.0
 40
2.0
 40
2.0
 40
2.0
 40
3.0
 40
3.0
 40
3.0
 40
4.0
 40
4.0
 40
4.0
 40
4.0
 10
160.5908440418014
 20
211.9985539585374
 30
0.0
 10
161.1299968647849
 20
211.9985539585374
 30
0.0
 10
161.5677205518725
 20
211.5608302714498
 30
0.0
 10
161.5677205518725
 20
211.0216774484663
 30
0.0
 10
161.5677205518725
 20
210.4825246254828
 30
0.0
 10
161.1299968647849
 20
210.0448009383952
 30
0.0
 10
160.5908440418014
 20
210.0448009383952
 30
0.0
 10
160.0516912188179
 20
210.0448009383952
 30
0.0
 10
159.6139675317303
 20
210.4825246254828
 30
0.0
 10
159.6139675317303
 20
211.0216774484663
 30
0.0
 10
159.6139675317303
 20
211.5608302714498
 30
0.0
 10
160.0516912188179
 20
211.9985539585374
 30
0.0
 10
160.5908440418014
 20
211.9985539585374
 30
0.0
  0
SPLINE
  5
A7
330
1F
100
AcDbEntity
  8
0
  6
Continuous
 62
    18
420
        0
370
    35
100
AcDbSpline
210
0.0
220
0.0
230
1.0
 70
    11
 71
     3
 72
    17
 73
    13
 74
     0
 42
0.000000001
 43
0.0
 40
0.0
 40
0.0
 40
0.0
 40
0.0
 40
1.0
 40
1.0
 40
1.0
 40
2.0
 40
2.0
 40
2.0
 40
3.0
 40
3.0
 40
3.0
 40
4.0
 40
4.0
 40
4.0
 40
4.0
 10
114.4760453380969
 20
185.4070309917114
 30
0.0
 10
115.0151981610804
 20
185.4070309917114
 30
0.0
 10
115.452921848168
 20
184.9693073046238
 30
0.0
 10
115.452921848168
 20
184.4301544816403
 30
0.0
 10
115.452921848168
 20
183.8910016586568
 30
0.0
 10
115.0151981610804
 20
183.4532779715692
 30
0.0
 10
114.4760453380969
 20
183.4532779715692
 30
0.0
 10
113.9368925151134
 20
183.4532779715692
 30
0.0
 10
113.4991688280258
 20
183.8910016586568
 30
0.0
 10
113.4991688280258
 20
184.4301544816403
 30
0.0
 10
113.4991688280258
 20
184.9693073046238
 30
0.0
 10
113.9368925151134
 20
185.4070309917114
 30
0.0
 10
114.4760453380969
 20
185.4070309917114
 30
0.0
  0
SPLINE
  5
A8
330
1F
100
AcDbEntity
  8
0
  6
Continuous
 62
    18
420
        0
370
    35
100
AcDbSpline
210
0.0
220
0.0
230
1.0
 70
    11
 71
     3
 72
    17
 73
    13
 74
     0
 42
0.000000001
 43
0.0
 40
0.0
 40
0.0
 40
0.0
 40
0.0
 40
1.0
 40
1.0
 40
1.0
 40
2.0
 40
2.0
 40
2.0
 40
3.0
 40
3.0
 40
3.0
 40
4.0
 40
4.0
 40
4.0
 40
4.0
 10
82.44084323785069
 20
208.8261202814252
 30
0.0
 10
82.9799960608342
 20
208.8261202814252
 30
0.0
 10
83.4177197479218
 20
208.3883965943376
 30
0.0
 10
83.4177197479218
 20
207.8492437713541
 30
0.0
 10
83.4177197479218
 20
207.3100909483705
 30
0.0
 10
82.9799960608342
 20
206.8723672612829
 30
0.0
 10
82.44084323785069
 20
206.8723672612829
 30
0.0
 10
81.90169041486718
 20
206.8723672612829
 30
0.0
 10
81.46396672777956
 20
207.3100909483705
 30
0.0
 10
81.46396672777956
 20
207.8492437713541
 30
0.0
 10
81.46396672777956
 20
208.3883965943376
 30
0.0
 10
81.90169041486718
 20
208.8261202814252
 30
0.0
 10
82.44084323785069
 20
208.8261202814252
 30
0.0
  0
SPLINE
  5
A9
330
1F
100
AcDbEntity
  8
0
  6
Continuous
 62
    18
420
        0
370
    35
100
AcDbSpline
210
0.0
220
0.0
230
1.0
 70
    11
 71
     3
 72
    17
 73
    13
 74
     0
 42
0.000000001
 43
0.0
 40
0.0
 40
0.0
 40
0.0
 40
0.0
 40
1.0
 40
1.0
 40
1.0
 40
2.0
 40
2.0
 40
2.0
 40
3.0
 40
3.0
 40
3.0
 40
4.0
 40
4.0
 40
4.0
 40
4.0
 10
83.76787691779829
 20
134.6560059716472
 30
0.0
 10
84.3070297407818
 20
134.6560059716472
 30
0.0
 10
84.7447534278694
 20
134.2182822845596
 30
0.0
 10
84.7447534278694
 20
133.6791294615761
 30
0.0
 10
84.7447534278694
 20
133.1399766385926
 30
0.0
 10
84.3070297407818
 20
132.702252951505
 30
0.0
 10
83.76787691779829
 20
132.702252951505
 30
0.0
 10
83.22872409481477
 20
132.702252951505
 30
0.0
 10
82.79100040772717
 20
133.1399766385926
 30
0.0
 10
82.79100040772717
 20
133.6791294615761
 30
0.0
 10
82.79100040772717
 20
134.2182822845596
 30
0.0
 10
83.22872409481477
 20
134.6560059716472
 30
0.0
 10
83.76787691779829
 20
134.6560059716472
 30
0.0
  0
SPLINE
  5
AA
330
1F
100
AcDbEntity
  8
0
  6
Continuous
 62
    18
420
        0
370
    35
100
AcDbSpline
210
0.0
220
0.0
230
1.0
 70
    11
 71
     3
 72
    17
 73
    13
 74
     0
 42
0.000000001
 43
0.0
 40
0.0
 40
0.0
 40
0.0
 40
0.0
 40
1.0
 40
1.0
 40
1.0
 40
2.0
 40
2.0
 40
2.0
 40
3.0
 40
3.0
 40
3.0
 40
4.0
 40
4.0
 40
4.0
 40
4.0
 10
123.4398646085842
 20
145.8441217498273
 30
0.0
 10
123.9790174315677
 20
145.8441217498273
 30
0.0
 10
124.4167411186553
 20
145.4063980627396
 30
0.0
 10
124.4167411186553
 20
144.8672452397561
 30
0.0
 10
124.4167411186553
 20
144.3280924167726
 30
0.0
 10
123.9790174315677
 20
143.890368729685
 30
0.0
 10
123.4398646085842
 20
143.890368729685
 30
0.0
 10
122.9007117856007
 20
143.890368729685
 30
0.0
 10
122.4629880985131
 20
144.3280924167726
 30
0.0
 10
122.4629880985131
 20
144.8672452397561
 30
0.0
 10
122.4629880985131
 20
145.4063980627396
 30
0.0
 10
122.9007117856007
 20
145.8441217498273
 30
0.0
 10
123.4398646085842
 20
145.8441217498273
 30
0.0
  0
SPLINE
  5
AB
330
1F
100
AcDbEntity
  8
0
  6
Continuous
 62
    18
420
        0
370
    35
100
AcDbSpline
210
0.0
220
0.0
230
1.0
 70
    11
 71
     3
 72
    17
 73
    13
 74
     0
 42
0.000000001
 43
0.0
 40
0.0
 40
0.0
 40
0.0
 40
0.0
 40
1.0
 40
1.0
 40
1.0
 40
2.0
 40
2.0
 40
2.0
 40
3.0
 40
3.0
 40
3.0
 40
4.0
 40
4.0
 40
4.0
 40
4.0
 10
72.34817347479256
 20
172.0711108011849
 30
0.0
 10
72.88732629777607
 20
172.0711108011849
 30
0.0
 10
73.32504998486367
 20
171.6333871140973
 30
0.0
 10
73.32504998486367
 20
171.0942342911138
 30
0.0
 10
73.32504998486367
 20
170.5550814681303
 30
0.0
 10
72.88732629777607
 20
170.1173577810427
 30
0.0
 10
72.34817347479256
 20
170.1173577810427
 30
0.0
 10
71.80902065180904
 20
170.1173577810427
 30
0.0
 10
71.37129696472144
 20
170.5550814681303
 30
0.0
 10
71.37129696472144
 20
171.0942342911138
 30
0.0
 10
71.37129696472144
 20
171.6333871140973
 30
0.0
 10
71.80902065180904
 20
172.0711108011849
 30
0.0
 10
72.34817347479256
 20
172.0711108011849
 30
0.0
  0
SPLINE
  5
AC
330
1F
100
AcDbEntity
  8
0
  6
Continuous
 62
    18
420
        0
370
    35
100
AcDbSpline
210
0.0
220
0.0
230
1.0
 70
    11
 71
     3
 72
    17
 73
    13
 74
     0
 42
0.000000001
 43
0.0
 40
0.0
 40
0.0
 40
0.0
 40
0.0
 40
1.0
 40
1.0
 40
1.0
 40
2.0
 40
2.0
 40
2.0
 40
3.0
 40
3.0
 40
3.0
 40
4.0
 40
4.0
 40
4.0
 40
4.0
 10
171.4845567336184
 20
115.9387345268595
 30
0.0
 10
172.0237095566019
 20
115.9387345268595
 30
0.0
 10
172.4614332436895
 20
115.5010108397719
 30
0.0
 10
172.4614332436895
 20
114.9618580167883
 30
0.0
 10
172.4614332436895
 20
114.4227051938048
 30
0.0
 10
172.0237095566019
 20
113.9849815067172
 30
0.0
 10
171.4845567336184
 20
113.9849815067172
 30
0.0
 10
170.9454039106349
 20
113.9849815067172
 30
0.0
 10
170.5076802235473
 20
114.4227051938048
 30
0.0
 10
170.5076802235473
 20
114.9618580167883
 30
0.0
 10
170.5076802235473
 20
115.5010108397719
 30
0.0
 10
170.9454039106349
 20
115.9387345268595
 30
0.0
 10
171.4845567336184
 20
115.9387345268595
 30
0.0
  0
SPLINE
  5
AD
330
1F
100
AcDbEntity
  8
0
  6
Continuous
 62
    18
420
        0
370
    35
100
AcDbSpline
210
0.0
220
0.0
230
1.0
 70
    11
 71
     3
 72
    17
 73
    13
 74
     0
 42
0.000000001
 43
0.0
 40
0.0
 40
0.0
 40
0.0
 40
0.0
 40
1.0
 40
1.0
 40
1.0
 40
2.0
 40
2.0
 40
2.0
 40
3.0
 40
3.0
 40
3.0
 40
4.0
 40
4.0
 40
4.0
 40
4.0
 10
199.1895349241958
 20
73.06641560487296
 30
0.0
 10
198.6503821012123
 20
73.06641560487296
 30
0.0
 10
198.2126584141247
 20
72.62869191778537
 30
0.0
 10
198.2126584141247
 20
72.08953909480186
 30
0.0
 10
198.2126584141247
 20
71.55038627181835
 30
0.0
 10
198.6503821012123
 20
71.11266258473071
 30
0.0
 10
199.1895349241958
 20
71.11266258473071
 30
0.0
 10
199.7286877471793
 20
71.11266258473071
 30
0.0
 10
200.1664114342669
 20
71.55038627181835
 30
0.0
 10
200.1664114342669
 20
72.08953909480186
 30
0.0
 10
200.1664114342669
 20
72.62869191778537
 30
0.0
 10
199.7286877471793
 20
73.06641560487296
 30
0.0
 10
199.1895349241958
 20
73.06641560487296
 30
0.0
  0
VIEWPORT
  5
B2
330
AE
100
AcDbEntity
 67
     1
  8
0
100
AcDbViewport
 10
128.5
 20
97.5
 30
0.0
 40
314.226
 41
222.18
 68
     1
 69
     1
 12
150.0
 22
200.0
 13
0.0
 23
0.0
 14
10.0
 24
10.0
 15
10.0
 25
10.0
 16
0.0
 26
0.0
 36
1.0
 17
0.0
 27
0.0
 37
0.0
 42
50.0
 43
0.0
 44
0.0
 45
222.18
 50
0.0
 51
0.0
 72
   100
 90
   557152
  1

281
     0
 71
     1
 74
     0
110
0.0
120
0.0
130
0.0
111
1.0
121
0.0
131
0.0
112
0.0
122
1.0
132
0.0
 79
     0
146
0.0
170
     0
 61
     5
348
2F
292
     1
282
     1
141
0.0
142
0.0
 63
   256
361
B3
  0
VIEWPORT
  5
B4
330
AE
100
AcDbEntity
 67
     1
  8
0
100
AcDbViewport
 10
200.0
 20
150.0
 30
0.0
 40
400.0
 41
300.0
 68
     2
 69
     2
 12
200.0
 22
150.0
 13
0.0
 23
0.0
 14
10.0
 24
10.0
 15
10.0
 25
10.0
 16
0.0
 26
0.0
 36
1.0
 17
0.0
 27
0.0
 37
0.0
 42
50.0
 43
0.0
 44
0.0
 45
300.0
 50
0.0
 51
0.0
 72
   100
 90
   557152
  1

281
     0
 71
     1
 74
     0
110
0.0
120
0.0
130
0.0
111
1.0
121
0.0
131
0.0
112
0.0
122
1.0
132
0.0
 79
     0
146
0.0
170
     0
 61
     5
348
2F
292
     1
282
     1
141
0.0
142
0.0
 63
   256
361
B5
  0
ENDSEC
  0
SECTION
  2
OBJECTS
  0
DICTIONARY
  5
C
330
0
100
AcDbDictionary
281
     1
  3
ACAD_DETAILVIEWSTYLE
350
BD
  3
ACAD_GROUP
350
D
  3
ACAD_LAYOUT
350
1A
  3
ACAD_MATERIAL
350
43
  3
ACAD_MLEADERSTYLE
350
5B
  3
ACAD_MLINESTYLE
350
17
  3
ACAD_PLOTSETTINGS
350
19
  3
ACAD_PLOTSTYLENAME
350
E
  3
ACAD_SCALELIST
350
47
  3
ACAD_SECTIONVIEWSTYLE
350
BE
  3
ACAD_TABLESTYLE
350
59
  3
ACAD_VISUALSTYLE
350
2A
  3
ACDB_RECOMPOSE_DATA
350
BA
  3
AcDbVariableDictionary
350
B6
  0
SUN
  5
5D
330
29
100
AcDbSun
 90
        1
290
     0
 63
     7
421
 16777215
 40
1.0
291
     1
 91
  2455826
 92
 54000000
292
     0
 70
     2
 71
   256
280
     1
  0
SUN
  5
B3
330
B2
100
AcDbSun
 90
        1
290
     0
 63
     7
421
 16777215
 40
1.0
291
     1
 91
  2455826
 92
 54000000
292
     0
 70
     2
 71
   256
280
     1
  0
SUN
  5
B5
330
B4
100
AcDbSun
 90
        1
290
     0
 63
     7
421
 16777215
 40
1.0
291
     1
 91
  2455826
 92
 54000000
292
     0
 70
     2
 71
   256
280
     1
  0
DICTIONARY
  5
BD
102
{ACAD_REACTORS
330
C
102
}
330
C
100
AcDbDictionary
281
     1
  0
DICTIONARY
  5
D
102
{ACAD_REACTORS
330
C
102
}
330
C
100
AcDbDictionary
281
     1
  0
DICTIONARY
  5
1A
102
{ACAD_REACTORS
330
C
102
}
330
C
100
AcDbDictionary
281
     1
  3
Layout1
350
AF
  3
Model
350
22
  0
DICTIONARY
  5
43
102
{ACAD_REACTORS
330
C
102
}
330
C
100
AcDbDictionary
281
     1
  3
ByBlock
350
45
  3
ByLayer
350
44
  3
Global
350
46
  0
DICTIONARY
  5
5B
102
{ACAD_REACTORS
330
C
102
}
330
C
100
AcDbDictionary
281
     1
  3
Standard
350
5C
  0
DICTIONARY
  5
17
102
{ACAD_REACTORS
330
C
102
}
330
C
100
AcDbDictionary
281
     1
  3
Standard
350
18
  0
DICTIONARY
  5
19
102
{ACAD_REACTORS
330
C
102
}
330
C
100
AcDbDictionary
281
     1
  0
ACDBDICTIONARYWDFLT
  5
E
102
{ACAD_REACTORS
330
C
102
}
330
C
100
AcDbDictionary
281
     1
  3
Normal
350
F
100
AcDbDictionaryWithDefault
340
F
  0
DICTIONARY
  5
47
102
{ACAD_REACTORS
330
C
102
}
330
C
100
AcDbDictionary
281
     1
  3
A0
350
48
  3
A1
350
49
  3
A2
350
4A
  3
A3
350
4B
  3
A4
350
4C
  3
A5
350
4D
  3
A6
350
4E
  3
A7
350
4F
  3
A8
350
50
  3
A9
350
51
  3
B0
350
52
  3
B1
350
53
  3
B2
350
54
  3
B3
350
55
  3
B4
350
56
  3
B5
350
57
  3
B6
350
58
  0
DICTIONARY
  5
BE
102
{ACAD_REACTORS
330
C
102
}
330
C
100
AcDbDictionary
281
     1
  0
DICTIONARY
  5
59
102
{ACAD_REACTORS
330
C
102
}
330
C
100
AcDbDictionary
281
     1
  3
Standard
350
5A
  0
DICTIONARY
  5
2A
102
{ACAD_REACTORS
330
C
102
}
330
C
100
AcDbDictionary
281
     1
  3
2dWireframe
350
2F
  3
Basic
350
32
  3
Brighten
350
36
  3
ColorChange
350
3A
  3
Conceptual
350
34
  3
Dim
350
35
  3
EdgeColorOff
350
3D
  3
Facepattern
350
39
  3
Flat
350
2B
  3
FlatWithEdges
350
2C
  3
Gouraud
350
2D
  3
GouraudWithEdges
350
2E
  3
Hidden
350
31
  3
JitterOff
350
3B
  3
Linepattern
350
38
  3
OverhangOff
350
3C
  3
Realistic
350
33
  3
Shaded
350
42
  3
Shaded with edges
350
41
  3
Shades of Gray
350
3E
  3
Sketchy
350
3F
  3
Thicken
350
37
  3
Wireframe
350
30
  3
X-Ray
350
40
  0
XRECORD
  5
BA
102
{ACAD_REACTORS
330
C
102
}
330
C
100
AcDbXrecord
280
     1
 90
        1
330
5A
  0
DICTIONARY
  5
B6
102
{ACAD_REACTORS
330
C
102
}
330
C
100
AcDbDictionary
281
     1
  3
CANNOSCALE
350
B7
  3
CENTEREXE
350
BF
  3
CENTERLTYPEFILE
350
C0
  3
CMLEADERSTYLE
350
BC
  3
CTABLESTYLE
350
BB
  0
LAYOUT
  5
AF
102
{ACAD_REACTORS
330
1A
102
}
330
1A
100
AcDbPlotSettings
  1

  2
none_device
  4
ISO_A4_(210.00_x_297.00_MM)
  6

 40
0.0
 41
0.0
 42
0.0
 43
0.0
 44
300.0
 45
400.0
 46
0.0
 47
0.0
 48
0.0
 49
0.0
140
0.0
141
0.0
142
1.0
143
1.0
 70
   688
 72
     1
 73
     3
 74
     5
  7

 75
    16
 76
     0
 77
     2
 78
   300
147
1.0
148
0.0
149
0.0
100
AcDbLayout
  1
Layout1
 70
     1
 71
     1
 10
-20.0
 20
-7.5
 11
277.0
 21
202.5
 12
0.0
 22
0.0
 32
0.0
 14
300.0
 24
400.0
 34
0.0
 15
0.0
 25
0.0
 35
0.0
146
0.0
 13
0.0
 23
0.0
 33
0.0
 16
1.0
 26
0.0
 36
0.0
 17
0.0
 27
1.0
 37
0.0
 76
     0
330
AE
331
B2
  0
LAYOUT
  5
22
102
{ACAD_REACTORS
330
1A
102
}
330
1A
100
AcDbPlotSettings
  1

  2
none_device
  4
Letter_(8.50_x_11.00_Inches)
  6

 40
6.35
 41
6.35
 42
6.35000508
 43
6.35000508
 44
215.9
 45
279.4
 46
0.0
 47
0.0
 48
0.0
 49
0.0
140
0.0
141
0.0
142
1.0
143
1.0
 70
  1712
 72
     1
 73
     0
 74
     0
  7

 75
     0
 76
     0
 77
     2
 78
   300
147
1.0
148
0.0
149
0.0
100
AcDbLayout
  1
Model
 70
     1
 71
     0
 10
0.0
 20
0.0
 11
420.0
 21
297.0
 12
0.0
 22
0.0
 32
0.0
 14
1.000000000000000E+20
 24
1.000000000000000E+20
 34
1.000000000000000E+20
 15
-1.000000000000000E+20
 25
-1.000000000000000E+20
 35
-1.000000000000000E+20
146
0.0
 13
0.0
 23
0.0
 33
0.0
 16
1.0
 26
0.0
 36
0.0
 17
0.0
 27
1.0
 37
0.0
 76
     0
330
1F
331
29
  0
MATERIAL
  5
45
102
{ACAD_REACTORS
330
43
102
}
330
43
100
AcDbMaterial
  1
ByBlock
 72
     1
 94
      127
  0
MATERIAL
  5
44
102
{ACAD_REACTORS
330
43
102
}
330
43
100
AcDbMaterial
  1
ByLayer
 72
     1
 94
      127
  0
MATERIAL
  5
46
102
{ACAD_REACTORS
330
43
102
}
330
43
100
AcDbMaterial
  1
Global
 72
     1
 94
      127
  0
MLEADERSTYLE
  5
5C
102
{ACAD_REACTORS
330
5B
102
}
330
5B
100
AcDbMLeaderStyle
179
     2
170
     2
171
     1
172
     0
 90
        2
 40
0.0
 41
0.0
173
     1
 91
-1056964608
340
14
 92
       -2
290
     1
 42
2.0
291
     1
 43
8.0
  3
Standard
341
0
 44
4.0
300

342
11
174
     1
178
     6
175
     1
176
     0
 93
-1056964608
 45
4.0
292
     0
297
     0
 46
4.0
343
0
 94
-1056964608
 47
1.0
 49
1.0
140
1.0
293
     1
141
0.0
294
     1
177
     0
142
1.0
295
     0
296
     0
143
3.75
271
     0
272
     9
273
     9
298
     0
  0
MLINESTYLE
  5
18
102
{ACAD_REACTORS
330
17
102
}
330
17
100
AcDbMlineStyle
  2
Standard
 70
     0
  3

 62
   256
 51
90.0
 52
90.0
 71
     2
 49
0.5
 62
   256
  6
BYLAYER
 49
-0.5
 62
   256
  6
BYLAYER
  0
ACDBPLACEHOLDER
  5
F
102
{ACAD_REACTORS
330
E
102
}
330
E
  0
SCALE
  5
48
102
{ACAD_REACTORS
330
47
102
}
330
47
100
AcDbScale
 70
     0
300
1:1
140
1.0
141
1.0
290
     1
  0
SCALE
  5
49
102
{ACAD_REACTORS
330
47
102
}
330
47
100
AcDbScale
 70
     0
300
1:2
140
1.0
141
2.0
290
     0
  0
SCALE
  5
4A
102
{ACAD_REACTORS
330
47
102
}
330
47
100
AcDbScale
 70
     0
300
1:4
140
1.0
141
4.0
290
     0
  0
SCALE
  5
4B
102
{ACAD_REACTORS
330
47
102
}
330
47
100
AcDbScale
 70
     0
300
1:5
140
1.0
141
5.0
290
     0
  0
SCALE
  5
4C
102
{ACAD_REACTORS
330
47
102
}
330
47
100
AcDbScale
 70
     0
300
1:8
140
1.0
141
8.0
290
     0
  0
SCALE
  5
4D
102
{ACAD_REACTORS
330
47
102
}
330
47
100
AcDbScale
 70
     0
300
1:10
140
1.0
141
10.0
290
     0
  0
SCALE
  5
4E
102
{ACAD_REACTORS
330
47
102
}
330
47
100
AcDbScale
 70
     0
300
1:16
140
1.0
141
16.0
290
     0
  0
SCALE
  5
4F
102
{ACAD_REACTORS
330
47
102
}
330
47
100
AcDbScale
 70
     0
300
1:20
140
1.0
141
20.0
290
     0
  0
SCALE
  5
50
102
{ACAD_REACTORS
330
47
102
}
330
47
100
AcDbScale
 70
     0
300
1:30
140
1.0
141
30.0
290
     0
  0
SCALE
  5
51
102
{ACAD_REACTORS
330
47
102
}
330
47
100
AcDbScale
 70
     0
300
1:40
140
1.0
141
40.0
290
     0
  0
SCALE
  5
52
102
{ACAD_REACTORS
330
47
102
}
330
47
100
AcDbScale
 70
     0
300
1:50
140
1.0
141
50.0
290
     0
  0
SCALE
  5
53
102
{ACAD_REACTORS
330
47
102
}
330
47
100
AcDbScale
 70
     0
300
1:100
140
1.0
141
100.0
290
     0
  0
SCALE
  5
54
102
{ACAD_REACTORS
330
47
102
}
330
47
100
AcDbScale
 70
     0
300
2:1
140
2.0
141
1.0
290
     0
  0
SCALE
  5
55
102
{ACAD_REACTORS
330
47
102
}
330
47
100
AcDbScale
 70
     0
300
4:1
140
4.0
141
1.0
290
     0
  0
SCALE
  5
56
102
{ACAD_REACTORS
330
47
102
}
330
47
100
AcDbScale
 70
     0
300
8:1
140
8.0
141
1.0
290
     0
  0
SCALE
  5
57
102
{ACAD_REACTORS
330
47
102
}
330
47
100
AcDbScale
 70
     0
300
10:1
140
10.0
141
1.0
290
     0
  0
SCALE
  5
58
102
{ACAD_REACTORS
330
47
102
}
330
47
100
AcDbScale
 70
     0
300
100:1
140
100.0
141
1.0
290
     0
  0
TABLESTYLE
  5
5A
102
{ACAD_REACTORS
330
59
102
}
102
{ACAD_XDICTIONARY
360
B8
102
}
330
59
100
AcDbTableStyle
  3
Standard
 70
     0
 71
     0
 40
0.06
 41
0.06
280
     0
281
     0
  7
Standard
140
4.5
170
     2
 62
     0
 63
   257
283
     0
 90
        4
 91
        0
  1

274
    -2
284
     1
 64
     0
275
    -2
285
     1
 65
     0
276
    -2
286
     1
 66
     0
277
    -2
287
     1
 67
     0
278
    -2
288
     1
 68
     0
279
    -2
289
     1
 69
     0
  7
Standard
140
6.0
170
     5
 62
     0
 63
   257
283
     0
 90
        4
 91
        0
  1

274
    -2
284
     1
 64
     0
275
    -2
285
     1
 65
     0
276
    -2
286
     1
 66
     0
277
    -2
287
     1
 67
     0
278
    -2
288
     1
 68
     0
279
    -2
289
     1
 69
     0
  7
Standard
140
4.5
170
     5
 62
     0
 63
   257
283
     0
 90
        4
 91
        0
  1

274
    -2
284
     1
 64
     0
275
    -2
285
     1
 65
     0
276
    -2
286
     1
 66
     0
277
    -2
287
     1
 67
     0
278
    -2
288
     1
 68
     0
279
    -2
289
     1
 69
     0
  0
VISUALSTYLE
  5
2F
102
{ACAD_REACTORS
330
2A
102
}
330
2A
100
AcDbVisualStyle
  2
2dWireframe
 70
     4
177
     3
291
     0
 70
    58
 90
        0
176
     1
 90
        2
176
     1
 90
        0
176
     1
 90
        0
176
     1
 40
0.6
176
     1
 40
30.0
176
     1
 62
     7
420
 16777215
176
     1
 90
        1
176
     1
 90
        4
176
     1
 62
     7
176
     1
 62
   257
176
     1
 90
        1
176
     1
 90
        1
176
     1
 40
1.0
176
     1
 90
        0
176
     1
 62
   257
176
     1
 40
1.0
176
     1
 90
        1
176
     1
 90
        6
176
     1
 90
        2
176
     1
 62
     7
176
     1
 90
        5
176
     1
 90
        0
176
     1
 90
        0
176
     1
290
     0
176
     1
 90
        1
176
     1
 40
0.0
176
     1
 90
        0
176
     1
290
     1
176
     1
290
     1
176
     1
290
     0
176
     1
290
     0
176
     1
290
     0
176
     1
290
     0
176
     1
290
     0
176
     1
290
     0
176
     1
290
     0
176
     1
 90
       50
176
     1
 40
0.0
176
     1
 40
1.0
176
     1
 90
        0
176
     1
 62
    18
420
        0
176
     1
 90
       50
176
     1
 90
        3
176
     1
 62
     5
420
      255
176
     1
290
     0
176
     1
 90
       50
176
     1
 90
       50
176
     1
 90
       50
176
     1
290
     0
176
     1
 90
       50
176
     1
 62
   256
176
     0
 40
1.0
176
     0
 90
        2
176
     1
  1
strokes_ogs.tif
176
     1
290
     0
176
     1
 40
1.0
176
     1
 40
1.0
176
     1
  0
VISUALSTYLE
  5
32
102
{ACAD_REACTORS
330
2A
102
}
330
2A
100
AcDbVisualStyle
  2
Basic
 70
     7
177
     3
291
     1
 70
    58
 90
        1
176
     1
 90
        0
176
     1
 90
        1
176
     1
 90
        0
176
     1
 40
0.6
176
     1
 40
30.0
176
     1
 62
     7
420
 16777215
176
     1
 90
        0
176
     1
 90
        4
176
     1
 62
     7
176
     1
 62
   257
176
     1
 90
        1
176
     1
 90
        1
176
     1
 40
1.0
176
     1
 90
        8
176
     1
 62
     7
176
     1
 40
1.0
176
     1
 90
        1
176
     1
 90
        6
176
     1
 90
        2
176
     1
 62
     7
176
     1
 90
        5
176
     1
 90
        0
176
     1
 90
        0
176
     1
290
     0
176
     1
 90
        1
176
     1
 40
0.0
176
     1
 90
        0
176
     1
290
     0
176
     1
290
     1
176
     1
290
     1
176
     1
290
     0
176
     1
290
     0
176
     1
290
     0
176
     1
290
     0
176
     1
290
     0
176
     1
290
     0
176
     1
 90
       50
176
     1
 40
0.0
176
     1
 40
1.0
176
     1
 90
        0
176
     1
 62
    18
420
        0
176
     1
 90
       50
176
     1
 90
        3
176
     1
 62
     5
420
      255
176
     1
290
     0
176
     1
 90
       50
176
     1
 90
       50
176
     1
 90
       50
176
     1
290
     0
176
     1
 90
       50
176
     1
 62
   256
176
     0
 40
1.0
176
     0
 90
        2
176
     1
  1
strokes_ogs.tif
176
     1
290
     0
176
     1
 40
1.0
176
     1
 40
1.0
176
     1
  0
VISUALSTYLE
  5
36
102
{ACAD_REACTORS
330
2A
102
}
330
2A
100
AcDbVisualStyle
  2
Brighten
 70
    12
177
     3
291
     1
 70
    58
 90
        2
176
     1
 90
        2
176
     1
 90
        0
176
     1
 90
        0
176
     1
 40
0.6
176
     1
 40
30.0
176
     1
 62
     7
420
 16777215
176
     1
 90
        1
176
     1
 90
        4
176
     1
 62
     7
176
     1
 62
   257
176
     1
 90
        1
176
     1
 90
        1
176
     1
 40
1.0
176
     1
 90
        8
176
     1
 62
     7
176
     1
 40
1.0
176
     1
 90
        1
176
     1
 90
        6
176
     1
 90
        2
176
     1
 62
     7
176
     1
 90
        5
176
     1
 90
        0
176
     1
 90
        0
176
     1
290
     0
176
     1
 90
        1
176
     1
 40
50.0
176
     1
 90
        0
176
     1
290
     0
176
     1
290
     1
176
     1
290
     1
176
     1
290
     0
176
     1
290
     0
176
     1
290
     0
176
     1
290
     0
176
     1
290
     0
176
     1
290
     0
176
     1
 90
       50
176
     1
 40
0.0
176
     1
 40
1.0
176
     1
 90
        0
176
     1
 62
    18
420
        0
176
     1
 90
       50
176
     1
 90
        3
176
     1
 62
     5
420
      255
176
     1
290
     0
176
     1
 90
       50
176
     1
 90
       50
176
     1
 90
       50
176
     1
290
     0
176
     1
 90
       50
176
     1
 62
   256
176
     0
 40
1.0
176
     0
 90
        2
176
     1
  1
strokes_ogs.tif
176
     1
290
     0
176
     1
 40
1.0
176
     1
 40
1.0
176
     1
  0
VISUALSTYLE
  5
3A
102
{ACAD_REACTORS
330
2A
102
}
330
2A
100
AcDbVisualStyle
  2
ColorChange
 70
    16
177
     3
291
     1
 70
    58
 90
        2
176
     1
 90
        2
176
     1
 90
        3
176
     1
 90
        0
176
     1
 40
0.6
176
     1
 40
30.0
176
     1
 62
     8
420
  8421504
176
     1
 90
        1
176
     1
 90
        4
176
     1
 62
     7
176
     1
 62
   257
176
     1
 90
        1
176
     1
 90
        1
176
     1
 40
1.0
176
     1
 90
        8
176
     1
 62
     8
420
  8421504
176
     1
 40
1.0
176
     1
 90
        1
176
     1
 90
        6
176
     1
 90
        2
176
     1
 62
     7
176
     1
 90
        5
176
     1
 90
        0
176
     1
 90
        0
176
     1
290
     0
176
     1
 90
        1
176
     1
 40
0.0
176
     1
 90
        0
176
     1
290
     0
176
     1
290
     1
176
     1
290
     1
176
     1
290
     0
176
     1
290
     0
176
     1
290
     0
176
     1
290
     0
176
     1
290
     0
176
     1
290
     0
176
     1
 90
       50
176
     1
 40
0.0
176
     1
 40
1.0
176
     1
 90
        0
176
     1
 62
    18
420
        0
176
     1
 90
       50
176
     1
 90
        3
176
     1
 62
     5
420
      255
176
     1
290
     0
176
     1
 90
       50
176
     1
 90
       50
176
     1
 90
       50
176
     1
290
     0
176
     1
 90
       50
176
     1
 62
   256
176
     0
 40
1.0
176
     0
 90
        2
176
     1
  1
strokes_ogs.tif
176
     1
290
     0
176
     1
 40
1.0
176
     1
 40
1.0
176
     1
  0
VISUALSTYLE
  5
34
102
{ACAD_REACTORS
330
2A
102
}
330
2A
100
AcDbVisualStyle
  2
Conceptual
 70
     9
177
     3
291
     0
 70
    58
 90
        3
176
     1
 90
        2
176
     1
 90
        0
176
     1
 90
        0
176
     1
 40
0.6
176
     1
 40
30.0
176
     1
 62
     7
420
 16777215
176
     1
 90
        2
176
     1
 90
        2
176
     1
 62
     7
176
     1
 62
   257
176
     1
 90
        1
176
     1
 90
        1
176
     1
 40
179.0
176
     1
 90
        8
176
     1
 62
     7
176
     1
 40
1.0
176
     1
 90
        1
176
     1
 90
        6
176
     1
 90
        2
176
     1
 62
     7
176
     1
 90
        3
176
     1
 90
        0
176
     1
 90
        0
176
     1
290
     0
176
     1
 90
        1
176
     1
 40
0.0
176
     1
 90
        0
176
     1
290
     0
176
     1
290
     1
176
     1
290
     1
176
     1
290
     0
176
     1
290
     0
176
     1
290
     0
176
     1
290
     0
176
     1
290
     0
176
     1
290
     0
176
     1
 90
       50
176
     1
 40
0.0
176
     1
 40
1.0
176
     1
 90
        0
176
     1
 62
    18
420
        0
176
     1
 90
       50
176
     1
 90
        3
176
     1
 62
     5
420
      255
176
     1
290
     0
176
     1
 90
       50
176
     1
 90
       50
176
     1
 90
       50
176
     1
290
     0
176
     1
 90
       50
176
     1
 62
   256
176
     0
 40
1.0
176
     0
 90
        2
176
     1
  1
strokes_ogs.tif
176
     1
290
     0
176
     1
 40
1.0
176
     1
 40
1.0
176
     1
  0
VISUALSTYLE
  5
35
102
{ACAD_REACTORS
330
2A
102
}
330
2A
100
AcDbVisualStyle
  2
Dim
 70
    11
177
     3
291
     1
 70
    58
 90
        2
176
     1
 90
        2
176
     1
 90
        0
176
     1
 90
        0
176
     1
 40
0.6
176
     1
 40
30.0
176
     1
 62
     7
420
 16777215
176
     1
 90
        1
176
     1
 90
        4
176
     1
 62
     7
176
     1
 62
   257
176
     1
 90
        1
176
     1
 90
        1
176
     1
 40
1.0
176
     1
 90
        8
176
     1
 62
     7
176
     1
 40
1.0
176
     1
 90
        1
176
     1
 90
        6
176
     1
 90
        2
176
     1
 62
     7
176
     1
 90
        5
176
     1
 90
        0
176
     1
 90
        0
176
     1
290
     0
176
     1
 90
        1
176
     1
 40
-50.0
176
     1
 90
        0
176
     1
290
     0
176
     1
290
     1
176
     1
290
     1
176
     1
290
     0
176
     1
290
     0
176
     1
290
     0
176
     1
290
     0
176
     1
290
     0
176
     1
290
     0
176
     1
 90
       50
176
     1
 40
0.0
176
     1
 40
1.0
176
     1
 90
        0
176
     1
 62
    18
420
        0
176
     1
 90
       50
176
     1
 90
        3
176
     1
 62
     5
420
      255
176
     1
290
     0
176
     1
 90
       50
176
     1
 90
       50
176
     1
 90
       50
176
     1
290
     0
176
     1
 90
       50
176
     1
 62
   256
176
     0
 40
1.0
176
     0
 90
        2
176
     1
  1
strokes_ogs.tif
176
     1
290
     0
176
     1
 40
1.0
176
     1
 40
1.0
176
     1
  0
VISUALSTYLE
  5
3D
102
{ACAD_REACTORS
330
2A
102
}
330
2A
100
AcDbVisualStyle
  2
EdgeColorOff
 70
    22
177
     3
291
     1
 70
    58
 90
        2
176
     0
 90
        2
176
     0
 90
        0
176
     0
 90
        0
176
     0
 40
0.6
176
     0
 40
30.0
176
     0
 62
     7
420
 16777215
176
     0
 90
        1
176
     0
 90
        4
176
     0
 62
     7
176
     0
 62
   257
176
     0
 90
        1
176
     0
 90
        1
176
     0
 40
1.0
176
     0
 90
        8
176
     2
 62
     7
176
     0
 40
1.0
176
     0
 90
        1
176
     0
 90
        6
176
     0
 90
        2
176
     0
 62
     7
176
     0
 90
        5
176
     0
 90
        0
176
     0
 90
        0
176
     0
290
     0
176
     0
 90
        1
176
     0
 40
0.0
176
     0
 90
        0
176
     0
290
     0
176
     0
290
     1
176
     0
290
     1
176
     0
290
     0
176
     0
290
     0
176
     0
290
     0
176
     0
290
     0
176
     0
290
     0
176
     0
290
     0
176
     0
 90
       50
176
     0
 40
0.0
176
     0
 40
1.0
176
     0
 90
        0
176
     0
 62
    18
420
        0
176
     0
 90
       50
176
     0
 90
        3
176
     0
 62
     5
420
      255
176
     0
290
     0
176
     0
 90
       50
176
     0
 90
       50
176
     0
 90
       50
176
     0
290
     0
176
     0
 90
       50
176
     0
 62
   256
176
     0
 40
1.0
176
     0
 90
        2
176
     0
  1
strokes_ogs.tif
176
     0
290
     0
176
     0
 40
1.0
176
     0
 40
1.0
176
     0
  0
VISUALSTYLE
  5
39
102
{ACAD_REACTORS
330
2A
102
}
330
2A
100
AcDbVisualStyle
  2
Facepattern
 70
    15
177
     3
291
     1
 70
    58
 90
        2
176
     1
 90
        2
176
     1
 90
        0
176
     1
 90
        0
176
     1
 40
0.6
176
     1
 40
30.0
176
     1
 62
     7
420
 16777215
176
     1
 90
        1
176
     1
 90
        4
176
     1
 62
     7
176
     1
 62
   257
176
     1
 90
        1
176
     1
 90
        1
176
     1
 40
1.0
176
     1
 90
        8
176
     1
 62
     7
176
     1
 40
1.0
176
     1
 90
        1
176
     1
 90
        6
176
     1
 90
        2
176
     1
 62
     7
176
     1
 90
        5
176
     1
 90
        0
176
     1
 90
        0
176
     1
290
     0
176
     1
 90
        1
176
     1
 40
0.0
176
     1
 90
        0
176
     1
290
     0
176
     1
290
     1
176
     1
290
     1
176
     1
290
     0
176
     1
290
     0
176
     1
290
     0
176
     1
290
     0
176
     1
290
     0
176
     1
290
     0
176
     1
 90
       50
176
     1
 40
0.0
176
     1
 40
1.0
176
     1
 90
        0
176
     1
 62
    18
420
        0
176
     1
 90
       50
176
     1
 90
        3
176
     1
 62
     5
420
      255
176
     1
290
     0
176
     1
 90
       50
176
     1
 90
       50
176
     1
 90
       50
176
     1
290
     0
176
     1
 90
       50
176
     1
 62
   256
176
     0
 40
1.0
176
     0
 90
        2
176
     1
  1
strokes_ogs.tif
176
     1
290
     0
176
     1
 40
1.0
176
     1
 40
1.0
176
     1
  0
VISUALSTYLE
  5
2B
102
{ACAD_REACTORS
330
2A
102
}
330
2A
100
AcDbVisualStyle
  2
Flat
 70
     0
177
     3
291
     1
 70
    58
 90
        2
176
     1
 90
        1
176
     1
 90
        1
176
     1
 90
        2
176
     1
 40
0.6
176
     1
 40
30.0
176
     1
 62
     7
420
 16777215
176
     1
 90
        0
176
     1
 90
        0
176
     1
 62
     7
176
     1
 62
   257
176
     1
 90
        1
176
     1
 90
        1
176
     1
 40
1.0
176
     1
 90
        8
176
     1
 62
     7
176
     1
 40
1.0
176
     1
 90
        1
176
     1
 90
        6
176
     1
 90
        2
176
     1
 62
     7
176
     1
 90
        5
176
     1
 90
        0
176
     1
 90
        0
176
     1
290
     0
176
     1
 90
       13
176
     1
 40
0.0
176
     1
 90
        0
176
     1
290
     0
176
     1
290
     1
176
     1
290
     1
176
     1
290
     0
176
     1
290
     0
176
     1
290
     0
176
     1
290
     0
176
     1
290
     0
176
     1
290
     0
176
     1
 90
       50
176
     1
 40
0.0
176
     1
 40
1.0
176
     1
 90
        0
176
     1
 62
    18
420
        0
176
     1
 90
       50
176
     1
 90
        3
176
     1
 62
     5
420
      255
176
     1
290
     0
176
     1
 90
       50
176
     1
 90
       50
176
     1
 90
       50
176
     1
290
     0
176
     1
 90
       50
176
     1
 62
   256
176
     0
 40
1.0
176
     0
 90
        2
176
     1
  1
strokes_ogs.tif
176
     1
290
     0
176
     1
 40
1.0
176
     1
 40
1.0
176
     1
  0
VISUALSTYLE
  5
2C
102
{ACAD_REACTORS
330
2A
102
}
330
2A
100
AcDbVisualStyle
  2
FlatWithEdges
 70
     1
177
     3
291
     1
 70
    58
 90
        2
176
     1
 90
        1
176
     1
 90
        1
176
     1
 90
        2
176
     1
 40
0.6
176
     1
 40
30.0
176
     1
 62
     7
420
 16777215
176
     1
 90
        1
176
     1
 90
        0
176
     1
 62
     7
176
     1
 62
   257
176
     1
 90
        1
176
     1
 90
        1
176
     1
 40
1.0
176
     1
 90
        0
176
     1
 62
   257
176
     1
 40
1.0
176
     1
 90
        1
176
     1
 90
        6
176
     1
 90
        2
176
     1
 62
     7
176
     1
 90
        5
176
     1
 90
        0
176
     1
 90
        0
176
     1
290
     0
176
     1
 90
       13
176
     1
 40
0.0
176
     1
 90
        0
176
     1
290
     0
176
     1
290
     1
176
     1
290
     1
176
     1
290
     0
176
     1
290
     0
176
     1
290
     0
176
     1
290
     0
176
     1
290
     0
176
     1
290
     0
176
     1
 90
       50
176
     1
 40
0.0
176
     1
 40
1.0
176
     1
 90
        0
176
     1
 62
    18
420
        0
176
     1
 90
       50
176
     1
 90
        3
176
     1
 62
     5
420
      255
176
     1
290
     0
176
     1
 90
       50
176
     1
 90
       50
176
     1
 90
       50
176
     1
290
     0
176
     1
 90
       50
176
     1
 62
   256
176
     0
 40
1.0
176
     0
 90
        2
176
     1
  1
strokes_ogs.tif
176
     1
290
     0
176
     1
 40
1.0
176
     1
 40
1.0
176
     1
  0
VISUALSTYLE
  5
2D
102
{ACAD_REACTORS
330
2A
102
}
330
2A
100
AcDbVisualStyle
  2
Gouraud
 70
     2
177
     3
291
     1
 70
    58
 90
        2
176
     1
 90
        2
176
     1
 90
        1
176
     1
 90
        2
176
     1
 40
0.6
176
     1
 40
30.0
176
     1
 62
     7
420
 16777215
176
     1
 90
        0
176
     1
 90
        0
176
     1
 62
     7
176
     1
 62
   257
176
     1
 90
        1
176
     1
 90
        1
176
     1
 40
1.0
176
     1
 90
        0
176
     1
 62
     7
176
     1
 40
1.0
176
     1
 90
        1
176
     1
 90
        6
176
     1
 90
        2
176
     1
 62
     7
176
     1
 90
        5
176
     1
 90
        0
176
     1
 90
        0
176
     1
290
     0
176
     1
 90
       13
176
     1
 40
0.0
176
     1
 90
        0
176
     1
290
     0
176
     1
290
     1
176
     1
290
     1
176
     1
290
     0
176
     1
290
     0
176
     1
290
     0
176
     1
290
     0
176
     1
290
     0
176
     1
290
     0
176
     1
 90
       50
176
     1
 40
0.0
176
     1
 40
1.0
176
     1
 90
        0
176
     1
 62
    18
420
        0
176
     1
 90
       50
176
     1
 90
        3
176
     1
 62
     5
420
      255
176
     1
290
     0
176
     1
 90
       50
176
     1
 90
       50
176
     1
 90
       50
176
     1
290
     0
176
     1
 90
       50
176
     1
 62
   256
176
     0
 40
1.0
176
     0
 90
        2
176
     1
  1
strokes_ogs.tif
176
     1
290
     0
176
     1
 40
1.0
176
     1
 40
1.0
176
     1
  0
VISUALSTYLE
  5
2E
102
{ACAD_REACTORS
330
2A
102
}
330
2A
100
AcDbVisualStyle
  2
GouraudWithEdges
 70
     3
177
     3
291
     1
 70
    58
 90
        2
176
     1
 90
        2
176
     1
 90
        1
176
     1
 90
        2
176
     1
 40
0.6
176
     1
 40
30.0
176
     1
 62
     7
420
 16777215
176
     1
 90
        1
176
     1
 90
        0
176
     1
 62
     7
176
     1
 62
   257
176
     1
 90
        1
176
     1
 90
        1
176
     1
 40
1.0
176
     1
 90
        0
176
     1
 62
   257
176
     1
 40
1.0
176
     1
 90
        1
176
     1
 90
        6
176
     1
 90
        2
176
     1
 62
     7
176
     1
 90
        5
176
     1
 90
        0
176
     1
 90
        0
176
     1
290
     0
176
     1
 90
       13
176
     1
 40
0.0
176
     1
 90
        0
176
     1
290
     0
176
     1
290
     1
176
     1
290
     1
176
     1
290
     0
176
     1
290
     0
176
     1
290
     0
176
     1
290
     0
176
     1
290
     0
176
     1
290
     0
176
     1
 90
       50
176
     1
 40
0.0
176
     1
 40
1.0
176
     1
 90
        0
176
     1
 62
    18
420
        0
176
     1
 90
       50
176
     1
 90
        3
176
     1
 62
     5
420
      255
176
     1
290
     0
176
     1
 90
       50
176
     1
 90
       50
176
     1
 90
       50
176
     1
290
     0
176
     1
 90
       50
176
     1
 62
   256
176
     0
 40
1.0
176
     0
 90
        2
176
     1
  1
strokes_ogs.tif
176
     1
290
     0
176
     1
 40
1.0
176
     1
 40
1.0
176
     1
  0
VISUALSTYLE
  5
31
102
{ACAD_REACTORS
330
2A
102
}
330
2A
100
AcDbVisualStyle
  2
Hidden
 70
     6
177
     3
291
     0
 70
    58
 90
        1
176
     1
 90
        2
176
     1
 90
        2
176
     1
 90
        0
176
     1
 40
0.6
176
     1
 40
30.0
176
     1
 62
     7
420
 16777215
176
     1
 90
        2
176
     1
 90
        2
176
     1
 62
     7
176
     1
 62
   257
176
     1
 90
        2
176
     1
 90
        1
176
     1
 40
40.0
176
     1
 90
        0
176
     1
 62
   257
176
     1
 40
1.0
176
     1
 90
        1
176
     1
 90
        6
176
     1
 90
        2
176
     1
 62
     7
176
     1
 90
        3
176
     1
 90
        0
176
     1
 90
        0
176
     1
290
     0
176
     1
 90
        1
176
     1
 40
0.0
176
     1
 90
        0
176
     1
290
     0
176
     1
290
     1
176
     1
290
     1
176
     1
290
     0
176
     1
290
     0
176
     1
290
     0
176
     1
290
     0
176
     1
290
     0
176
     1
290
     0
176
     1
 90
       50
176
     1
 40
0.0
176
     1
 40
1.0
176
     1
 90
        0
176
     1
 62
    18
420
        0
176
     1
 90
       50
176
     1
 90
        3
176
     1
 62
     5
420
      255
176
     1
290
     0
176
     1
 90
       50
176
     1
 90
       50
176
     1
 90
       50
176
     1
290
     0
176
     1
 90
       50
176
     1
 62
   256
176
     0
 40
1.0
176
     0
 90
        2
176
     1
  1
strokes_ogs.tif
176
     1
290
     0
176
     1
 40
1.0
176
     1
 40
1.0
176
     1
  0
VISUALSTYLE
  5
3B
102
{ACAD_REACTORS
330
2A
102
}
330
2A
100
AcDbVisualStyle
  2
JitterOff
 70
    20
177
     3
291
     1
 70
    58
 90
        2
176
     0
 90
        2
176
     0
 90
        0
176
     0
 90
        0
176
     0
 40
0.6
176
     0
 40
30.0
176
     0
 62
     7
420
 16777215
176
     0
 90
        1
176
     0
 90
        4
176
     0
 62
     7
176
     0
 62
   257
176
     0
 90
        1
176
     0
 90
        1
176
     0
 40
1.0
176
     0
 90
       10
176
     2
 62
     7
176
     0
 40
1.0
176
     0
 90
        1
176
     0
 90
        6
176
     0
 90
        2
176
     0
 62
     7
176
     0
 90
        5
176
     0
 90
        0
176
     0
 90
        0
176
     0
290
     0
176
     0
 90
        1
176
     0
 40
0.0
176
     0
 90
        0
176
     0
290
     0
176
     0
290
     1
176
     0
290
     1
176
     0
290
     0
176
     0
290
     0
176
     0
290
     0
176
     0
290
     0
176
     0
290
     0
176
     0
290
     0
176
     0
 90
       50
176
     0
 40
0.0
176
     0
 40
1.0
176
     0
 90
        0
176
     0
 62
    18
420
        0
176
     0
 90
       50
176
     0
 90
        3
176
     0
 62
     5
420
      255
176
     0
290
     0
176
     0
 90
       50
176
     0
 90
       50
176
     0
 90
       50
176
     0
290
     0
176
     0
 90
       50
176
     0
 62
   256
176
     0
 40
1.0
176
     0
 90
        2
176
     0
  1
strokes_ogs.tif
176
     0
290
     0
176
     0
 40
1.0
176
     0
 40
1.0
176
     0
  0
VISUALSTYLE
  5
38
102
{ACAD_REACTORS
330
2A
102
}
330
2A
100
AcDbVisualStyle
  2
Linepattern
 70
    14
177
     3
291
     1
 70
    58
 90
        2
176
     1
 90
        2
176
     1
 90
        0
176
     1
 90
        0
176
     1
 40
0.6
176
     1
 40
30.0
176
     1
 62
     7
420
 16777215
176
     1
 90
        1
176
     1
 90
        4
176
     1
 62
     7
176
     1
 62
   257
176
     1
 90
        7
176
     1
 90
        7
176
     1
 40
1.0
176
     1
 90
        8
176
     1
 62
     7
176
     1
 40
1.0
176
     1
 90
        1
176
     1
 90
        6
176
     1
 90
        2
176
     1
 62
     7
176
     1
 90
        5
176
     1
 90
        0
176
     1
 90
        0
176
     1
290
     0
176
     1
 90
        1
176
     1
 40
0.0
176
     1
 90
        0
176
     1
290
     0
176
     1
290
     1
176
     1
290
     1
176
     1
290
     0
176
     1
290
     0
176
     1
290
     0
176
     1
290
     0
176
     1
290
     0
176
     1
290
     0
176
     1
 90
       50
176
     1
 40
0.0
176
     1
 40
1.0
176
     1
 90
        0
176
     1
 62
    18
420
        0
176
     1
 90
       50
176
     1
 90
        3
176
     1
 62
     5
420
      255
176
     1
290
     0
176
     1
 90
       50
176
     1
 90
       50
176
     1
 90
       50
176
     1
290
     0
176
     1
 90
       50
176
     1
 62
   256
176
     0
 40
1.0
176
     0
 90
        2
176
     1
  1
strokes_ogs.tif
176
     1
290
     0
176
     1
 40
1.0
176
     1
 40
1.0
176
     1
  0
VISUALSTYLE
  5
3C
102
{ACAD_REACTORS
330
2A
102
}
330
2A
100
AcDbVisualStyle
  2
OverhangOff
 70
    21
177
     3
291
     1
 70
    58
 90
        2
176
     0
 90
        2
176
     0
 90
        0
176
     0
 90
        0
176
     0
 40
0.6
176
     0
 40
30.0
176
     0
 62
     7
420
 16777215
176
     0
 90
        1
176
     0
 90
        4
176
     0
 62
     7
176
     0
 62
   257
176
     0
 90
        1
176
     0
 90
        1
176
     0
 40
1.0
176
     0
 90
        9
176
     2
 62
     7
176
     0
 40
1.0
176
     0
 90
        1
176
     0
 90
        6
176
     0
 90
        2
176
     0
 62
     7
176
     0
 90
        5
176
     0
 90
        0
176
     0
 90
        0
176
     0
290
     0
176
     0
 90
        1
176
     0
 40
0.0
176
     0
 90
        0
176
     0
290
     0
176
     0
290
     1
176
     0
290
     1
176
     0
290
     0
176
     0
290
     0
176
     0
290
     0
176
     0
290
     0
176
     0
290
     0
176
     0
290
     0
176
     0
 90
       50
176
     0
 40
0.0
176
     0
 40
1.0
176
     0
 90
        0
176
     0
 62
    18
420
        0
176
     0
 90
       50
176
     0
 90
        3
176
     0
 62
     5
420
      255
176
     0
290
     0
176
     0
 90
       50
176
     0
 90
       50
176
     0
 90
       50
176
     0
290
     0
176
     0
 90
       50
176
     0
 62
   256
176
     0
 40
1.0
176
     0
 90
        2
176
     0
  1
strokes_ogs.tif
176
     0
290
     0
176
     0
 40
1.0
176
     0
 40
1.0
176
     0
  0
VISUALSTYLE
  5
33
102
{ACAD_REACTORS
330
2A
102
}
330
2A
100
AcDbVisualStyle
  2
Realistic
 70
     8
177
     3
291
     0
 70
    58
 90
        2
176
     1
 90
        3
176
     1
 90
        0
176
     1
 90
        2
176
     1
 40
0.6
176
     1
 40
30.0
176
     1
 62
     7
420
 16777215
176
     1
 90
        0
176
     1
 90
        0
176
     1
 62
     7
176
     1
 62
   257
176
     1
 90
        1
176
     1
 90
        1
176
     1
 40
1.0
176
     1
 90
        8
176
     1
 62
   257
176
     1
 40
1.0
176
     1
 90
        1
176
     1
 90
        6
176
     1
 90
        2
176
     1
 62
     7
176
     1
 90
        3
176
     1
 90
        0
176
     1
 90
        0
176
     1
290
     0
176
     1
 90
       13
176
     1
 40
0.0
176
     1
 90
        0
176
     1
290
     0
176
     1
290
     1
176
     1
290
     1
176
     1
290
     0
176
     1
290
     0
176
     1
290
     0
176
     1
290
     0
176
     1
290
     0
176
     1
290
     0
176
     1
 90
       50
176
     1
 40
0.0
176
     1
 40
1.0
176
     1
 90
        0
176
     1
 62
    18
420
        0
176
     1
 90
       50
176
     1
 90
        3
176
     1
 62
     5
420
      255
176
     1
290
     0
176
     1
 90
       50
176
     1
 90
       50
176
     1
 90
       50
176
     1
290
     0
176
     1
 90
       50
176
     1
 62
   256
176
     0
 40
1.0
176
     0
 90
        2
176
     1
  1
strokes_ogs.tif
176
     1
290
     0
176
     1
 40
1.0
176
     1
 40
1.0
176
     1
  0
VISUALSTYLE
  5
42
102
{ACAD_REACTORS
330
2A
102
}
330
2A
100
AcDbVisualStyle
  2
Shaded
 70
    27
177
     3
291
     0
 70
    58
 90
        2
176
     1
 90
        2
176
     1
 90
        1
176
     1
 90
        2
176
     1
 40
0.6
176
     1
 40
30.0
176
     1
 62
     7
420
 16777215
176
     1
 90
        0
176
     1
 90
        4
176
     1
 62
     7
176
     1
 62
   257
176
     1
 90
        1
176
     1
 90
        1
176
     1
 40
1.0
176
     1
 90
        8
176
     1
 62
   257
176
     1
 40
1.0
176
     1
 90
        1
176
     1
 90
        6
176
     1
 90
        2
176
     1
 62
     8
420
  7895160
176
     1
 90
        3
176
     1
 90
        0
176
     1
 90
        0
176
     1
290
     0
176
     1
 90
        5
176
     1
 40
0.0
176
     1
 90
        0
176
     1
290
     0
176
     1
290
     1
176
     1
290
     1
176
     1
290
     0
176
     1
290
     0
176
     1
290
     0
176
     1
290
     0
176
     1
290
     0
176
     1
290
     0
176
     1
 90
       50
176
     1
 40
0.0
176
     1
 40
1.0
176
     1
 90
        0
176
     1
 62
    18
420
        0
176
     1
 90
       50
176
     1
 90
        3
176
     1
 62
     5
420
      255
176
     1
290
     0
176
     1
 90
       50
176
     1
 90
       50
176
     1
 90
       50
176
     1
290
     0
176
     1
 90
       50
176
     1
 62
   256
176
     0
 40
1.0
176
     0
 90
        2
176
     1
  1
strokes_ogs.tif
176
     1
290
     0
176
     1
 40
1.0
176
     1
 40
1.0
176
     1
  0
VISUALSTYLE
  5
41
102
{ACAD_REACTORS
330
2A
102
}
330
2A
100
AcDbVisualStyle
  2
Shaded with edges
 70
    26
177
     3
291
     0
 70
    58
 90
        2
176
     1
 90
        2
176
     1
 90
        1
176
     1
 90
        2
176
     1
 40
0.6
176
     1
 40
30.0
176
     1
 62
     7
420
 16777215
176
     1
 90
        1
176
     1
 90
       10
176
     1
 62
     7
176
     1
 62
   257
176
     1
 90
        2
176
     1
 90
        1
176
     1
 40
1.0
176
     1
 90
        8
176
     1
 62
   257
176
     1
 40
1.0
176
     1
 90
        1
176
     1
 90
        6
176
     1
 90
        2
176
     1
 62
     7
176
     1
 90
        3
176
     1
 90
        0
176
     1
 90
        0
176
     1
290
     0
176
     1
 90
        5
176
     1
 40
0.0
176
     1
 90
        0
176
     1
290
     0
176
     1
290
     1
176
     1
290
     1
176
     1
290
     0
176
     1
290
     0
176
     1
290
     0
176
     1
290
     0
176
     1
290
     0
176
     1
290
     0
176
     1
 90
       50
176
     1
 40
0.0
176
     1
 40
1.0
176
     1
 90
        0
176
     1
 62
    18
420
        0
176
     1
 90
       50
176
     1
 90
        3
176
     1
 62
     5
420
      255
176
     1
290
     0
176
     1
 90
       50
176
     1
 90
       50
176
     1
 90
       50
176
     1
290
     0
176
     1
 90
       50
176
     1
 62
   256
176
     0
 40
1.0
176
     0
 90
        2
176
     1
  1
strokes_ogs.tif
176
     1
290
     0
176
     1
 40
1.0
176
     1
 40
1.0
176
     1
  0
VISUALSTYLE
  5
3E
102
{ACAD_REACTORS
330
2A
102
}
330
2A
100
AcDbVisualStyle
  2
Shades of Gray
 70
    23
177
     3
291
     0
 70
    58
 90
        2
176
     1
 90
        2
176
     1
 90
        3
176
     1
 90
        0
176
     1
 40
0.6
176
     1
 40
30.0
176
     1
 62
     7
420
 16777215
176
     1
 90
        2
176
     1
 90
        2
176
     1
 62
     7
176
     1
 62
     7
176
     1
 90
        1
176
     1
 90
        1
176
     1
 40
40.0
176
     1
 90
        8
176
     1
 62
     7
176
     1
 40
1.0
176
     1
 90
        1
176
     1
 90
        6
176
     1
 90
        2
176
     1
 62
     7
176
     1
 90
        3
176
     1
 90
        0
176
     1
 90
        0
176
     1
290
     0
176
     1
 90
        1
176
     1
 40
0.0
176
     1
 90
        0
176
     1
290
     0
176
     1
290
     1
176
     1
290
     1
176
     1
290
     0
176
     1
290
     0
176
     1
290
     0
176
     1
290
     0
176
     1
290
     0
176
     1
290
     0
176
     1
 90
       50
176
     1
 40
0.0
176
     1
 40
1.0
176
     1
 90
        0
176
     1
 62
    18
420
        0
176
     1
 90
       50
176
     1
 90
        3
176
     1
 62
     5
420
      255
176
     1
290
     0
176
     1
 90
       50
176
     1
 90
       50
176
     1
 90
       50
176
     1
290
     0
176
     1
 90
       50
176
     1
 62
   256
176
     0
 40
1.0
176
     0
 90
        2
176
     1
  1
strokes_ogs.tif
176
     1
290
     0
176
     1
 40
1.0
176
     1
 40
1.0
176
     1
  0
VISUALSTYLE
  5
3F
102
{ACAD_REACTORS
330
2A
102
}
330
2A
100
AcDbVisualStyle
  2
Sketchy
 70
    24
177
     3
291
     0
 70
    58
 90
        1
176
     1
 90
        2
176
     1
 90
        2
176
     1
 90
        0
176
     1
 40
0.6
176
     1
 40
30.0
176
     1
 62
     7
420
 16777215
176
     1
 90
        2
176
     1
 90
        2
176
     1
 62
     7
176
     1
 62
     7
176
     1
 90
        1
176
     1
 90
        1
176
     1
 40
40.0
176
     1
 90
       11
176
     1
 62
     7
176
     1
 40
1.0
176
     1
 90
        1
176
     1
 90
        6
176
     1
 90
        2
176
     1
 62
     7
176
     1
 90
        6
176
     1
 90
        0
176
     1
 90
        0
176
     1
290
     0
176
     1
 90
        1
176
     1
 40
0.0
176
     1
 90
        0
176
     1
290
     0
176
     1
290
     1
176
     1
290
     1
176
     1
290
     0
176
     1
290
     0
176
     1
290
     0
176
     1
290
     0
176
     1
290
     0
176
     1
290
     0
176
     1
 90
       50
176
     1
 40
0.0
176
     1
 40
1.0
176
     1
 90
        0
176
     1
 62
    18
420
        0
176
     1
 90
       50
176
     1
 90
        3
176
     1
 62
     5
420
      255
176
     1
290
     0
176
     1
 90
       50
176
     1
 90
       50
176
     1
 90
       50
176
     1
290
     0
176
     1
 90
       50
176
     1
 62
   256
176
     0
 40
1.0
176
     0
 90
        2
176
     1
  1
strokes_ogs.tif
176
     1
290
     0
176
     1
 40
1.0
176
     1
 40
1.0
176
     1
  0
VISUALSTYLE
  5
37
102
{ACAD_REACTORS
330
2A
102
}
330
2A
100
AcDbVisualStyle
  2
Thicken
 70
    13
177
     3
291
     1
 70
    58
 90
        2
176
     1
 90
        2
176
     1
 90
        0
176
     1
 90
        0
176
     1
 40
0.6
176
     1
 40
30.0
176
     1
 62
     7
420
 16777215
176
     1
 90
        1
176
     1
 90
        4
176
     1
 62
     7
176
     1
 62
   257
176
     1
 90
        1
176
     1
 90
        1
176
     1
 40
1.0
176
     1
 90
       12
176
     1
 62
     7
176
     1
 40
1.0
176
     1
 90
        1
176
     1
 90
        6
176
     1
 90
        2
176
     1
 62
     7
176
     1
 90
        5
176
     1
 90
        0
176
     1
 90
        0
176
     1
290
     0
176
     1
 90
        1
176
     1
 40
0.0
176
     1
 90
        0
176
     1
290
     0
176
     1
290
     1
176
     1
290
     1
176
     1
290
     0
176
     1
290
     0
176
     1
290
     0
176
     1
290
     0
176
     1
290
     0
176
     1
290
     0
176
     1
 90
       50
176
     1
 40
0.0
176
     1
 40
1.0
176
     1
 90
        0
176
     1
 62
    18
420
        0
176
     1
 90
       50
176
     1
 90
        3
176
     1
 62
     5
420
      255
176
     1
290
     0
176
     1
 90
       50
176
     1
 90
       50
176
     1
 90
       50
176
     1
290
     0
176
     1
 90
       50
176
     1
 62
   256
176
     0
 40
1.0
176
     0
 90
        2
176
     1
  1
strokes_ogs.tif
176
     1
290
     0
176
     1
 40
1.0
176
     1
 40
1.0
176
     1
  0
VISUALSTYLE
  5
30
102
{ACAD_REACTORS
330
2A
102
}
330
2A
100
AcDbVisualStyle
  2
Wireframe
 70
     5
177
     3
291
     0
 70
    58
 90
        0
176
     1
 90
        2
176
     1
 90
        0
176
     1
 90
        0
176
     1
 40
0.6
176
     1
 40
30.0
176
     1
 62
     7
420
 16777215
176
     1
 90
        1
176
     1
 90
        4
176
     1
 62
     7
176
     1
 62
   257
176
     1
 90
        1
176
     1
 90
        1
176
     1
 40
1.0
176
     1
 90
        0
176
     1
 62
   257
176
     1
 40
1.0
176
     1
 90
        1
176
     1
 90
        6
176
     1
 90
        2
176
     1
 62
     7
176
     1
 90
        3
176
     1
 90
        0
176
     1
 90
        0
176
     1
290
     0
176
     1
 90
        1
176
     1
 40
0.0
176
     1
 90
        0
176
     1
290
     0
176
     1
290
     1
176
     1
290
     1
176
     1
290
     0
176
     1
290
     0
176
     1
290
     0
176
     1
290
     0
176
     1
290
     0
176
     1
290
     0
176
     1
 90
       50
176
     1
 40
0.0
176
     1
 40
1.0
176
     1
 90
        0
176
     1
 62
    18
420
        0
176
     1
 90
       50
176
     1
 90
        3
176
     1
 62
     5
420
      255
176
     1
290
     0
176
     1
 90
       50
176
     1
 90
       50
176
     1
 90
       50
176
     1
290
     0
176
     1
 90
       50
176
     1
 62
   256
176
     0
 40
1.0
176
     0
 90
        2
176
     1
  1
strokes_ogs.tif
176
     1
290
     0
176
     1
 40
1.0
176
     1
 40
1.0
176
     1
  0
VISUALSTYLE
  5
40
102
{ACAD_REACTORS
330
2A
102
}
330
2A
100
AcDbVisualStyle
  2
X-Ray
 70
    25
177
     3
291
     0
 70
    58
 90
        2
176
     1
 90
        2
176
     1
 90
        1
176
     1
 90
        1
176
     1
 40
0.5
176
     1
 40
30.0
176
     1
 62
     7
420
 16777215
176
     1
 90
        1
176
     1
 90
        0
176
     1
 62
     7
176
     1
 62
   257
176
     1
 90
        1
176
     1
 90
        1
176
     1
 40
1.0
176
     1
 90
        8
176
     1
 62
     7
176
     1
 40
1.0
176
     1
 90
        1
176
     1
 90
        6
176
     1
 90
        2
176
     1
 62
     7
176
     1
 90
        3
176
     1
 90
        0
176
     1
 90
        0
176
     1
290
     0
176
     1
 90
       13
176
     1
 40
0.0
176
     1
 90
        0
176
     1
290
     0
176
     1
290
     1
176
     1
290
     1
176
     1
290
     0
176
     1
290
     0
176
     1
290
     0
176
     1
290
     0
176
     1
290
     0
176
     1
290
     0
176
     1
 90
       50
176
     1
 40
0.0
176
     1
 40
1.0
176
     1
 90
        0
176
     1
 62
    18
420
        0
176
     1
 90
       50
176
     1
 90
        3
176
     1
 62
     5
420
      255
176
     1
290
     0
176
     1
 90
       50
176
     1
 90
       50
176
     1
 90
       50
176
     1
290
     0
176
     1
 90
       50
176
     1
 62
   256
176
     0
 40
1.0
176
     0
 90
        2
176
     1
  1
strokes_ogs.tif
176
     1
290
     0
176
     1
 40
1.0
176
     1
 40
1.0
176
     1
  0
DICTIONARYVAR
  5
B7
102
{ACAD_REACTORS
330
B6
102
}
330
B6
100
DictionaryVariables
280
     0
  1
1:1
  0
DICTIONARYVAR
  5
BF
102
{ACAD_REACTORS
330
B6
102
}
330
B6
100
DictionaryVariables
280
     0
  1
3.500000
  0
DICTIONARYVAR
  5
C0
102
{ACAD_REACTORS
330
B6
102
}
330
B6
100
DictionaryVariables
280
     0
  1
acadiso.lin
  0
DICTIONARYVAR
  5
BC
102
{ACAD_REACTORS
330
B6
102
}
330
B6
100
DictionaryVariables
280
     0
  1
Standard
  0
DICTIONARYVAR
  5
BB
102
{ACAD_REACTORS
330
B6
102
}
330
B6
100
DictionaryVariables
280
     0
  1
Standard
  0
DICTIONARY
  5
B8
330
5A
100
AcDbDictionary
280
     1
281
     1
  3
ACAD_ROUNDTRIP_2008_TABLESTYLE_CELLSTYLEMAP
360
B9
  0
CELLSTYLEMAP
  5
B9
102
{ACAD_REACTORS
330
B8
102
}
330
B8
100
AcDbCellStyleMap
 90
        3
300
CELLSTYLE
  1
TABLEFORMAT_BEGIN
 90
        5
170
     1
 91
        0
 92
    32768
 62
   257
 93
        1
300
CONTENTFORMAT
  1
CONTENTFORMAT_BEGIN
 90
        0
 91
        0
 92
        4
 93
        0
300

 40
0.0
140
1.0
 94
        5
 62
     0
340
11
144
6.0
309
CONTENTFORMAT_END
171
     1
301
MARGIN
  1
CELLMARGIN_BEGIN
 40
1.5
 40
1.5
 40
1.5
 40
1.5
 40
1.5
 40
1.5
309
CELLMARGIN_END
 94
        6
 95
        1
302
GRIDFORMAT
  1
GRIDFORMAT_BEGIN
 90
        0
 91
        1
 62
     0
 92
       -2
340
14
 93
        0
 40
0.045
309
GRIDFORMAT_END
 95
        2
302
GRIDFORMAT
  1
GRIDFORMAT_BEGIN
 90
        0
 91
        1
 62
     0
 92
       -2
340
14
 93
        0
 40
0.045
309
GRIDFORMAT_END
 95
        4
302
GRIDFORMAT
  1
GRIDFORMAT_BEGIN
 90
        0
 91
        1
 62
     0
 92
       -2
340
14
 93
        0
 40
0.045
309
GRIDFORMAT_END
 95
        8
302
GRIDFORMAT
  1
GRIDFORMAT_BEGIN
 90
        0
 91
        1
 62
     0
 92
       -2
340
14
 93
        0
 40
0.045
309
GRIDFORMAT_END
 95
       16
302
GRIDFORMAT
  1
GRIDFORMAT_BEGIN
 90
        0
 91
        1
 62
     0
 92
       -2
340
14
 93
        0
 40
0.045
309
GRIDFORMAT_END
 95
       32
302
GRIDFORMAT
  1
GRIDFORMAT_BEGIN
 90
        0
 91
        1
 62
     0
 92
       -2
340
14
 93
        0
 40
0.045
309
GRIDFORMAT_END
309
TABLEFORMAT_END
  1
CELLSTYLE_BEGIN
 90
        1
 91
        1
300
_TITLE
309
CELLSTYLE_END
300
CELLSTYLE
  1
TABLEFORMAT_BEGIN
 90
        5
170
     1
 91
        0
 92
        0
 62
   257
 93
        1
300
CONTENTFORMAT
  1
CONTENTFORMAT_BEGIN
 90
        0
 91
        0
 92
        4
 93
        0
300

 40
0.0
140
1.0
 94
        5
 62
     0
340
11
144
4.5
309
CONTENTFORMAT_END
171
     1
301
MARGIN
  1
CELLMARGIN_BEGIN
 40
1.5
 40
1.5
 40
1.5
 40
1.5
 40
1.5
 40
1.5
309
CELLMARGIN_END
 94
        6
 95
        1
302
GRIDFORMAT
  1
GRIDFORMAT_BEGIN
 90
        0
 91
        1
 62
     0
 92
       -2
340
14
 93
        0
 40
0.045
309
GRIDFORMAT_END
 95
        2
302
GRIDFORMAT
  1
GRIDFORMAT_BEGIN
 90
        0
 91
        1
 62
     0
 92
       -2
340
14
 93
        0
 40
0.045
309
GRIDFORMAT_END
 95
        4
302
GRIDFORMAT
  1
GRIDFORMAT_BEGIN
 90
        0
 91
        1
 62
     0
 92
       -2
340
14
 93
        0
 40
0.045
309
GRIDFORMAT_END
 95
        8
302
GRIDFORMAT
  1
GRIDFORMAT_BEGIN
 90
        0
 91
        1
 62
     0
 92
       -2
340
14
 93
        0
 40
0.045
309
GRIDFORMAT_END
 95
       16
302
GRIDFORMAT
  1
GRIDFORMAT_BEGIN
 90
        0
 91
        1
 62
     0
 92
       -2
340
14
 93
        0
 40
0.045
309
GRIDFORMAT_END
 95
       32
302
GRIDFORMAT
  1
GRIDFORMAT_BEGIN
 90
        0
 91
        1
 62
     0
 92
       -2
340
14
 93
        0
 40
0.045
309
GRIDFORMAT_END
309
TABLEFORMAT_END
  1
CELLSTYLE_BEGIN
 90
        2
 91
        1
300
_HEADER
309
CELLSTYLE_END
300
CELLSTYLE
  1
TABLEFORMAT_BEGIN
 90
        5
170
     1
 91
        0
 92
        0
 62
   257
 93
        1
300
CONTENTFORMAT
  1
CONTENTFORMAT_BEGIN
 90
        0
 91
        0
 92
        4
 93
        0
300

 40
0.0
140
1.0
 94
        2
 62
     0
340
11
144
4.5
309
CONTENTFORMAT_END
171
     1
301
MARGIN
  1
CELLMARGIN_BEGIN
 40
1.5
 40
1.5
 40
1.5
 40
1.5
 40
1.5
 40
1.5
309
CELLMARGIN_END
 94
        6
 95
        1
302
GRIDFORMAT
  1
GRIDFORMAT_BEGIN
 90
        0
 91
        1
 62
     0
 92
       -2
340
14
 93
        0
 40
0.045
309
GRIDFORMAT_END
 95
        2
302
GRIDFORMAT
  1
GRIDFORMAT_BEGIN
 90
        0
 91
        1
 62
     0
 92
       -2
340
14
 93
        0
 40
0.045
309
GRIDFORMAT_END
 95
        4
302
GRIDFORMAT
  1
GRIDFORMAT_BEGIN
 90
        0
 91
        1
 62
     0
 92
       -2
340
14
 93
        0
 40
0.045
309
GRIDFORMAT_END
 95
        8
302
GRIDFORMAT
  1
GRIDFORMAT_BEGIN
 90
        0
 91
        1
 62
     0
 92
       -2
340
14
 93
        0
 40
0.045
309
GRIDFORMAT_END
 95
       16
302
GRIDFORMAT
  1
GRIDFORMAT_BEGIN
 90
        0
 91
        1
 62
     0
 92
       -2
340
14
 93
        0
 40
0.045
309
GRIDFORMAT_END
 95
       32
302
GRIDFORMAT
  1
GRIDFORMAT_BEGIN
 90
        0
 91
        1
 62
     0
 92
       -2
340
14
 93
        0
 40
0.045
309
GRIDFORMAT_END
309
TABLEFORMAT_END
  1
CELLSTYLE_BEGIN
 90
        3
 91
        2
300
_DATA
309
CELLSTYLE_END
  0
ENDSEC
  0
EOF
